{"asset":{"generator":"Khronos glTF Blender I/O v4.0.44","version":"2.0"},"scene":0,"scenes":[{"name":"Scene","nodes":[0]}],"nodes":[{"extras":{"titancraft_visual_only":true,"titancraft_collision":"none"},"mesh":0,"name":"TC_ENV_StoneHouse_V1"}],"materials":[{"doubleSided":true,"name":"TC_MAT_HouseRender","pbrMetallicRoughness":{"baseColorFactor":[0.8588240146636963,0.8313729763031006,0.7607839703559875,1],"metallicFactor":0,"roughnessFactor":0.9200000166893005}},{"doubleSided":true,"name":"TC_MAT_HouseShadow","pbrMetallicRoughness":{"baseColorFactor":[0.35294100642204285,0.3176470100879669,0.2627449929714203,1],"metallicFactor":0,"roughnessFactor":0.949999988079071}},{"doubleSided":true,"name":"TC_MAT_HouseStone","pbrMetallicRoughness":{"baseColorFactor":[0.5607839822769165,0.5098040103912354,0.4235289990901947,1],"metallicFactor":0,"roughnessFactor":0.9399999976158142}},{"doubleSided":true,"name":"TC_MAT_HouseOpening","pbrMetallicRoughness":{"baseColorFactor":[0.07999999821186066,0.07500000298023224,0.07000000029802322,1],"metallicFactor":0,"roughnessFactor":0.9800000190734863}},{"doubleSided":true,"name":"TC_MAT_HouseShutter","pbrMetallicRoughness":{"baseColorFactor":[0.22352899610996246,0.1450980007648468,0.08627499639987946,1],"metallicFactor":0,"roughnessFactor":0.6200000047683716}}],"meshes":[{"name":"Cube","primitives":[{"attributes":{"POSITION":0,"NORMAL":1,"TEXCOORD_0":2},"indices":3,"material":0},{"attributes":{"POSITION":4,"NORMAL":5,"TEXCOORD_0":6},"indices":7,"material":1},{"attributes":{"POSITION":8,"NORMAL":9,"TEXCOORD_0":10},"indices":11,"material":2},{"attributes":{"POSITION":12,"NORMAL":13,"TEXCOORD_0":14},"indices":15,"material":3},{"attributes":{"POSITION":16,"NORMAL":17,"TEXCOORD_0":18},"indices":19,"material":4}]}],"accessors":[{"bufferView":0,"componentType":5126,"count":576,"max":[5.0799994468688965,6.059999465942383,3.129999876022339],"min":[-3.6299996376037598,0,-3.129999876022339],"type":"VEC3"},{"bufferView":1,"componentType":5126,"count":576,"type":"VEC3"},{"bufferView":2,"componentType":5126,"count":576,"type":"VEC2"},{"bufferView":3,"componentType":5123,"count":792,"type":"SCALAR"},{"bufferView":4,"componentType":5126,"count":96,"max":[3.5999999046325684,0.5,3.0999999046325684],"min":[-3.5999999046325684,0,-3.0999999046325684],"type":"VEC3"},{"bufferView":5,"componentType":5126,"count":96,"type":"VEC3"},{"bufferView":6,"componentType":5126,"count":96,"type":"VEC2"},{"bufferView":7,"componentType":5123,"count":132,"type":"SCALAR"},{"bufferView":8,"componentType":5126,"count":2208,"max":[4.999999523162842,6.160000324249268,3.2699999809265137],"min":[-3.6999995708465576,0,-3.200000286102295],"type":"VEC3"},{"bufferView":9,"componentType":5126,"count":2208,"type":"VEC3"},{"bufferView":10,"componentType":5126,"count":2208,"type":"VEC2"},{"bufferView":11,"componentType":5123,"count":3036,"type":"SCALAR"},{"bufferView":12,"componentType":5126,"count":576,"max":[3.489999771118164,4.699999809265137,2.9700000286102295],"min":[-2.6999998092651367,0,-1.9499999284744263],"type":"VEC3"},{"bufferView":13,"componentType":5126,"count":576,"type":"VEC3"},{"bufferView":14,"componentType":5126,"count":576,"type":"VEC2"},{"bufferView":15,"componentType":5123,"count":792,"type":"SCALAR"},{"bufferView":16,"componentType":5126,"count":576,"max":[3.4600000381469727,4.769999980926514,3.0949997901916504],"min":[-3.2599997520446777,3.429999828338623,3.0250000953674316],"type":"VEC3"},{"bufferView":17,"componentType":5126,"count":576,"type":"VEC3"},{"bufferView":18,"componentType":5126,"count":576,"type":"VEC2"},{"bufferView":19,"componentType":5123,"count":792,"type":"SCALAR"}],"bufferViews":[{"buffer":0,"byteLength":6912,"byteOffset":0,"target":34962},{"buffer":0,"byteLength":6912,"byteOffset":6912,"target":34962},{"buffer":0,"byteLength":4608,"byteOffset":13824,"target":34962},{"buffer":0,"byteLength":1584,"byteOffset":18432,"target":34963},{"buffer":0,"byteLength":1152,"byteOffset":20016,"target":34962},{"buffer":0,"byteLength":1152,"byteOffset":21168,"target":34962},{"buffer":0,"byteLength":768,"byteOffset":22320,"target":34962},{"buffer":0,"byteLength":264,"byteOffset":23088,"target":34963},{"buffer":0,"byteLength":26496,"byteOffset":23352,"target":34962},{"buffer":0,"byteLength":26496,"byteOffset":49848,"target":34962},{"buffer":0,"byteLength":17664,"byteOffset":76344,"target":34962},{"buffer":0,"byteLength":6072,"byteOffset":94008,"target":34963},{"buffer":0,"byteLength":6912,"byteOffset":100080,"target":34962},{"buffer":0,"byteLength":6912,"byteOffset":106992,"target":34962},{"buffer":0,"byteLength":4608,"byteOffset":113904,"target":34962},{"buffer":0,"byteLength":1584,"byteOffset":118512,"target":34963},{"buffer":0,"byteLength":6912,"byteOffset":120096,"target":34962},{"buffer":0,"byteLength":6912,"byteOffset":127008,"target":34962},{"buffer":0,"byteLength":4608,"byteOffset":133920,"target":34962},{"buffer":0,"byteLength":1584,"byteOffset":138528,"target":34963}],"buffers":[{"byteLength":140112,"uri":"data:application/octet-stream;base64,"}]}
