{"asset":{"generator":"Khronos glTF Blender I/O v4.0.44","version":"2.0"},"scene":0,"scenes":[{"name":"Scene","nodes":[0]}],"nodes":[{"extras":{"titancraft_visual_only":true,"titancraft_collision":"none"},"mesh":0,"name":"TC_ENV_CoralWallSegment_V1"}],"materials":[{"doubleSided":true,"name":"TC_MAT_PlasterLossCore","pbrMetallicRoughness":{"baseColorFactor":[0.09019599854946136,0.08627499639987946,0.08235300332307816,1],"metallicFactor":0,"roughnessFactor":0.9700000286102295}},{"doubleSided":true,"name":"TC_MAT_LimeRender","pbrMetallicRoughness":{"baseColorFactor":[0.8588240146636963,0.8313729763031006,0.7607839703559875,1],"metallicFactor":0,"roughnessFactor":0.9200000166893005}},{"doubleSided":true,"name":"TC_MAT_CoralRag","pbrMetallicRoughness":{"baseColorFactor":[0.5607839822769165,0.5098040103912354,0.4235289990901947,1],"metallicFactor":0,"roughnessFactor":0.949999988079071}},{"doubleSided":true,"name":"TC_MAT_CoralWeathered","pbrMetallicRoughness":{"baseColorFactor":[0.35294100642204285,0.3176470100879669,0.2627449929714203,1],"metallicFactor":0,"roughnessFactor":0.9599999785423279}}],"meshes":[{"name":"Cube","primitives":[{"attributes":{"POSITION":0,"NORMAL":1,"TEXCOORD_0":2},"indices":3,"material":0},{"attributes":{"POSITION":4,"NORMAL":5,"TEXCOORD_0":6},"indices":7,"material":1},{"attributes":{"POSITION":8,"NORMAL":9,"TEXCOORD_0":10},"indices":11,"material":2},{"attributes":{"POSITION":12,"NORMAL":13,"TEXCOORD_0":14},"indices":15,"material":3}]}],"accessors":[{"bufferView":0,"componentType":5126,"count":1298,"max":[2.9600000381469727,2.9600000381469727,0.24699999392032623],"min":[-2.9600000381469727,-1.1920928955078125e-07,-0.24699997901916504],"type":"VEC3"},{"bufferView":1,"componentType":5126,"count":1298,"type":"VEC3"},{"bufferView":2,"componentType":5126,"count":1298,"type":"VEC2"},{"bufferView":3,"componentType":5123,"count":1794,"type":"SCALAR"},{"bufferView":4,"componentType":5126,"count":534,"max":[3.000000238418579,3,0.39500001072883606],"min":[-3.000000238418579,-1.1920928955078125e-07,-0.39500001072883606],"type":"VEC3"},{"bufferView":5,"componentType":5126,"count":534,"type":"VEC3"},{"bufferView":6,"componentType":5126,"count":534,"type":"VEC2"},{"bufferView":7,"componentType":5123,"count":786,"type":"SCALAR"},{"bufferView":8,"componentType":5126,"count":192,"max":[3.119999885559082,3.180000066757202,0.33500000834465027],"min":[-3.119999885559082,1.8100000619888306,-0.33500000834465027],"type":"VEC3"},{"bufferView":9,"componentType":5126,"count":192,"type":"VEC3"},{"bufferView":10,"componentType":5126,"count":192,"type":"VEC2"},{"bufferView":11,"componentType":5123,"count":264,"type":"SCALAR"},{"bufferView":12,"componentType":5126,"count":96,"max":[3.080000162124634,0.41999995708465576,0.3050000071525574],"min":[-3.080000162124634,-1.1920928955078125e-07,-0.3050000071525574],"type":"VEC3"},{"bufferView":13,"componentType":5126,"count":96,"type":"VEC3"},{"bufferView":14,"componentType":5126,"count":96,"type":"VEC2"},{"bufferView":15,"componentType":5123,"count":132,"type":"SCALAR"}],"bufferViews":[{"buffer":0,"byteLength":15576,"byteOffset":0,"target":34962},{"buffer":0,"byteLength":15576,"byteOffset":15576,"target":34962},{"buffer":0,"byteLength":10384,"byteOffset":31152,"target":34962},{"buffer":0,"byteLength":3588,"byteOffset":41536,"target":34963},{"buffer":0,"byteLength":6408,"byteOffset":45124,"target":34962},{"buffer":0,"byteLength":6408,"byteOffset":51532,"target":34962},{"buffer":0,"byteLength":4272,"byteOffset":57940,"target":34962},{"buffer":0,"byteLength":1572,"byteOffset":62212,"target":34963},{"buffer":0,"byteLength":2304,"byteOffset":63784,"target":34962},{"buffer":0,"byteLength":2304,"byteOffset":66088,"target":34962},{"buffer":0,"byteLength":1536,"byteOffset":68392,"target":34962},{"buffer":0,"byteLength":528,"byteOffset":69928,"target":34963},{"buffer":0,"byteLength":1152,"byteOffset":70456,"target":34962},{"buffer":0,"byteLength":1152,"byteOffset":71608,"target":34962},{"buffer":0,"byteLength":768,"byteOffset":72760,"target":34962},{"buffer":0,"byteLength":264,"byteOffset":73528,"target":34963}],"buffers":[{"byteLength":73792,"uri":"data:application/octet-stream;base64,"}]}
