{"asset":{"generator":"Khronos glTF Blender I/O v4.0.44","version":"2.0"},"scene":0,"scenes":[{"name":"Scene","nodes":[0]}],"nodes":[{"extras":{"titancraft_visual_only":true,"titancraft_collision":"none"},"mesh":0,"name":"TC_ENV_MarketStall_V1"}],"materials":[{"doubleSided":true,"name":"TC_MAT_StallTimber","pbrMetallicRoughness":{"baseColorFactor":[0.4352940022945404,0.4000000059604645,0.35294100642204285,1],"metallicFactor":0,"roughnessFactor":0.800000011920929}},{"doubleSided":true,"name":"TC_MAT_StallCloth","pbrMetallicRoughness":{"baseColorFactor":[0.6156859993934631,0.32548999786376953,0.21176500618457794,1],"metallicFactor":0,"roughnessFactor":0.949999988079071}},{"doubleSided":true,"name":"TC_MAT_StallBasket","pbrMetallicRoughness":{"baseColorFactor":[0.48235300183296204,0.37647101283073425,0.21960799396038055,1],"metallicFactor":0,"roughnessFactor":0.8999999761581421}},{"doubleSided":true,"name":"TC_MAT_StallStone","pbrMetallicRoughness":{"baseColorFactor":[0.5607839822769165,0.5098040103912354,0.4235289990901947,1],"metallicFactor":0,"roughnessFactor":0.9399999976158142}}],"meshes":[{"name":"Cylinder","primitives":[{"attributes":{"POSITION":0,"NORMAL":1,"TEXCOORD_0":2},"indices":3,"material":0},{"attributes":{"POSITION":4,"NORMAL":5,"TEXCOORD_0":6},"indices":7,"material":1},{"attributes":{"POSITION":8,"NORMAL":9,"TEXCOORD_0":10},"indices":11,"material":2},{"attributes":{"POSITION":12,"NORMAL":13,"TEXCOORD_0":14},"indices":15,"material":3}]}],"accessors":[{"bufferView":0,"componentType":5126,"count":864,"max":[1.360621690750122,2.299999952316284,0.9610000252723694],"min":[-1.360621690750122,0,-0.9610000252723694],"type":"VEC3"},{"bufferView":1,"componentType":5126,"count":864,"type":"VEC3"},{"bufferView":2,"componentType":5126,"count":864,"type":"VEC2"},{"bufferView":3,"componentType":5123,"count":1212,"type":"SCALAR"},{"bufferView":4,"componentType":5126,"count":192,"max":[1.5499999523162842,2.384183406829834,1.0449999570846558],"min":[-1.5499999523162842,1.9758164882659912,-1.0385082960128784],"type":"VEC3"},{"bufferView":5,"componentType":5126,"count":192,"type":"VEC3"},{"bufferView":6,"componentType":5126,"count":192,"type":"VEC2"},{"bufferView":7,"componentType":5123,"count":264,"type":"SCALAR"},{"bufferView":8,"componentType":5126,"count":576,"max":[1.2431117296218872,0.46000003814697266,-0.15688827633857727],"min":[-1.2331117391586304,0,-0.8931117057800293],"type":"VEC3"},{"bufferView":9,"componentType":5126,"count":576,"type":"VEC3"},{"bufferView":10,"componentType":5126,"count":576,"type":"VEC2"},{"bufferView":11,"componentType":5123,"count":828,"type":"SCALAR"},{"bufferView":12,"componentType":5126,"count":96,"max":[1.2000000476837158,0.1600000262260437,1.600000023841858],"min":[-1.2000000476837158,0,1.100000023841858],"type":"VEC3"},{"bufferView":13,"componentType":5126,"count":96,"type":"VEC3"},{"bufferView":14,"componentType":5126,"count":96,"type":"VEC2"},{"bufferView":15,"componentType":5123,"count":132,"type":"SCALAR"}],"bufferViews":[{"buffer":0,"byteLength":10368,"byteOffset":0,"target":34962},{"buffer":0,"byteLength":10368,"byteOffset":10368,"target":34962},{"buffer":0,"byteLength":6912,"byteOffset":20736,"target":34962},{"buffer":0,"byteLength":2424,"byteOffset":27648,"target":34963},{"buffer":0,"byteLength":2304,"byteOffset":30072,"target":34962},{"buffer":0,"byteLength":2304,"byteOffset":32376,"target":34962},{"buffer":0,"byteLength":1536,"byteOffset":34680,"target":34962},{"buffer":0,"byteLength":528,"byteOffset":36216,"target":34963},{"buffer":0,"byteLength":6912,"byteOffset":36744,"target":34962},{"buffer":0,"byteLength":6912,"byteOffset":43656,"target":34962},{"buffer":0,"byteLength":4608,"byteOffset":50568,"target":34962},{"buffer":0,"byteLength":1656,"byteOffset":55176,"target":34963},{"buffer":0,"byteLength":1152,"byteOffset":56832,"target":34962},{"buffer":0,"byteLength":1152,"byteOffset":57984,"target":34962},{"buffer":0,"byteLength":768,"byteOffset":59136,"target":34962},{"buffer":0,"byteLength":264,"byteOffset":59904,"target":34963}],"buffers":[{"byteLength":60168,"uri":"data:application/octet-stream;base64,"}]}
