{"asset":{"generator":"Khronos glTF Blender I/O v4.0.44","version":"2.0"},"scene":0,"scenes":[{"name":"Scene","nodes":[0]}],"nodes":[{"extras":{"titancraft_visual_only":true,"titancraft_collision":"none"},"mesh":0,"name":"TC_ENV_CarvedDoorway_V1"}],"materials":[{"doubleSided":true,"name":"TC_MAT_DoorSurroundStone","pbrMetallicRoughness":{"baseColorFactor":[0.5607839822769165,0.5098040103912354,0.4235289990901947,1],"metallicFactor":0,"roughnessFactor":0.9399999976158142}},{"doubleSided":true,"name":"TC_MAT_DoorRender","pbrMetallicRoughness":{"baseColorFactor":[0.8588240146636963,0.8313729763031006,0.7607839703559875,1],"metallicFactor":0,"roughnessFactor":0.8999999761581421}},{"doubleSided":true,"name":"TC_MAT_DoorReveal","pbrMetallicRoughness":{"baseColorFactor":[0.09000000357627869,0.07999999821186066,0.07000000029802322,1],"metallicFactor":0,"roughnessFactor":0.9800000190734863}},{"doubleSided":true,"name":"TC_MAT_DoorHardwood","pbrMetallicRoughness":{"baseColorFactor":[0.22352899610996246,0.1450980007648468,0.08627499639987946,1],"metallicFactor":0,"roughnessFactor":0.6000000238418579}},{"doubleSided":true,"name":"TC_MAT_DoorBrass","pbrMetallicRoughness":{"baseColorFactor":[0.5411760210990906,0.3960779905319214,0.18039199709892273,1],"metallicFactor":0.75,"roughnessFactor":0.41999998688697815}}],"meshes":[{"name":"Cube","primitives":[{"attributes":{"POSITION":0,"NORMAL":1,"TEXCOORD_0":2},"indices":3,"material":0},{"attributes":{"POSITION":4,"NORMAL":5,"TEXCOORD_0":6},"indices":7,"material":1},{"attributes":{"POSITION":8,"NORMAL":9,"TEXCOORD_0":10},"indices":7,"material":2},{"attributes":{"POSITION":11,"NORMAL":12,"TEXCOORD_0":13},"indices":14,"material":3},{"attributes":{"POSITION":15,"NORMAL":16,"TEXCOORD_0":17},"indices":18,"material":4}]}],"accessors":[{"bufferView":0,"componentType":5126,"count":1824,"max":[1.7499998807907104,3.310000419616699,0.44999998807907104],"min":[-1.75,0,-0.44999998807907104],"type":"VEC3"},{"bufferView":1,"componentType":5126,"count":1824,"type":"VEC3"},{"bufferView":2,"componentType":5126,"count":1824,"type":"VEC2"},{"bufferView":3,"componentType":5123,"count":2508,"type":"SCALAR"},{"bufferView":4,"componentType":5126,"count":96,"max":[1.4999998807907104,3.3600003719329834,0.40000003576278687],"min":[-1.5,3.060000419616699,-0.40000003576278687],"type":"VEC3"},{"bufferView":5,"componentType":5126,"count":96,"type":"VEC3"},{"bufferView":6,"componentType":5126,"count":96,"type":"VEC2"},{"bufferView":7,"componentType":5123,"count":132,"type":"SCALAR"},{"bufferView":8,"componentType":5126,"count":96,"max":[0.9499999284744263,2.5999999046325684,0.005000005476176739],"min":[-0.9500000476837158,0,-0.24500000476837158],"type":"VEC3"},{"bufferView":9,"componentType":5126,"count":96,"type":"VEC3"},{"bufferView":10,"componentType":5126,"count":96,"type":"VEC2"},{"bufferView":11,"componentType":5126,"count":192,"max":[0.9350000619888306,2.5,0.1600000113248825],"min":[-0.9350000619888306,0,0.040000006556510925],"type":"VEC3"},{"bufferView":12,"componentType":5126,"count":192,"type":"VEC3"},{"bufferView":13,"componentType":5126,"count":192,"type":"VEC2"},{"bufferView":14,"componentType":5123,"count":264,"type":"SCALAR"},{"bufferView":15,"componentType":5126,"count":2304,"max":[0.7326313257217407,2.496000289916992,0.25],"min":[-0.732631504535675,0.30400002002716064,0.15000000596046448],"type":"VEC3"},{"bufferView":16,"componentType":5126,"count":2304,"type":"VEC3"},{"bufferView":17,"componentType":5126,"count":2304,"type":"VEC2"},{"bufferView":18,"componentType":5123,"count":3264,"type":"SCALAR"}],"bufferViews":[{"buffer":0,"byteLength":21888,"byteOffset":0,"target":34962},{"buffer":0,"byteLength":21888,"byteOffset":21888,"target":34962},{"buffer":0,"byteLength":14592,"byteOffset":43776,"target":34962},{"buffer":0,"byteLength":5016,"byteOffset":58368,"target":34963},{"buffer":0,"byteLength":1152,"byteOffset":63384,"target":34962},{"buffer":0,"byteLength":1152,"byteOffset":64536,"target":34962},{"buffer":0,"byteLength":768,"byteOffset":65688,"target":34962},{"buffer":0,"byteLength":264,"byteOffset":66456,"target":34963},{"buffer":0,"byteLength":1152,"byteOffset":66720,"target":34962},{"buffer":0,"byteLength":1152,"byteOffset":67872,"target":34962},{"buffer":0,"byteLength":768,"byteOffset":69024,"target":34962},{"buffer":0,"byteLength":2304,"byteOffset":69792,"target":34962},{"buffer":0,"byteLength":2304,"byteOffset":72096,"target":34962},{"buffer":0,"byteLength":1536,"byteOffset":74400,"target":34962},{"buffer":0,"byteLength":528,"byteOffset":75936,"target":34963},{"buffer":0,"byteLength":27648,"byteOffset":76464,"target":34962},{"buffer":0,"byteLength":27648,"byteOffset":104112,"target":34962},{"buffer":0,"byteLength":18432,"byteOffset":131760,"target":34962},{"buffer":0,"byteLength":6528,"byteOffset":150192,"target":34963}],"buffers":[{"byteLength":156720,"uri":"data:application/octet-stream;base64,"}]}
