{"asset":{"generator":"Khronos glTF Blender I/O v4.0.44","version":"2.0"},"extensionsUsed":["KHR_materials_emissive_strength"],"scene":0,"scenes":[{"name":"Scene","nodes":[0]}],"nodes":[{"extras":{"titancraft_visual_only":true,"titancraft_collision":"none"},"mesh":0,"name":"TC_ENV_QuarterTower_V1"}],"materials":[{"doubleSided":true,"name":"TC_MAT_TowerRender","pbrMetallicRoughness":{"baseColorFactor":[0.8588240146636963,0.8313729763031006,0.7607839703559875,1],"metallicFactor":0,"roughnessFactor":0.8999999761581421}},{"doubleSided":true,"name":"TC_MAT_TowerStone","pbrMetallicRoughness":{"baseColorFactor":[0.5607839822769165,0.5098040103912354,0.4235289990901947,1],"metallicFactor":0,"roughnessFactor":0.9399999976158142}},{"doubleSided":true,"name":"TC_MAT_TowerShadow","pbrMetallicRoughness":{"baseColorFactor":[0.35294100642204285,0.3176470100879669,0.2627449929714203,1],"metallicFactor":0,"roughnessFactor":0.949999988079071}},{"doubleSided":true,"name":"TC_MAT_TowerOpening","pbrMetallicRoughness":{"baseColorFactor":[0.07000000029802322,0.06499999761581421,0.05999999865889549,1],"metallicFactor":0,"roughnessFactor":0.9800000190734863}},{"doubleSided":true,"name":"TC_MAT_TowerLampSteel","pbrMetallicRoughness":{"baseColorFactor":[0.4313730001449585,0.4549019932746887,0.47058799862861633,1],"metallicFactor":0.5,"roughnessFactor":0.6000000238418579}},{"doubleSided":true,"emissiveFactor":[1,0.5172410822395054,0.1465513446101665],"extensions":{"KHR_materials_emissive_strength":{"emissiveStrength":3.6392159461975098}},"name":"TC_MAT_TowerBeaconGlass","pbrMetallicRoughness":{"baseColorFactor":[0.9098039865493774,0.47058799862861633,0.1333329975605011,1],"metallicFactor":0,"roughnessFactor":0.30000001192092896}}],"meshes":[{"name":"Cube","primitives":[{"attributes":{"POSITION":0,"NORMAL":1,"TEXCOORD_0":2},"indices":3,"material":0},{"attributes":{"POSITION":4,"NORMAL":5,"TEXCOORD_0":6},"indices":7,"material":1},{"attributes":{"POSITION":8,"NORMAL":9,"TEXCOORD_0":10},"indices":11,"material":2},{"attributes":{"POSITION":12,"NORMAL":13,"TEXCOORD_0":14},"indices":15,"material":3},{"attributes":{"POSITION":16,"NORMAL":17,"TEXCOORD_0":18},"indices":19,"material":4},{"attributes":{"POSITION":20,"NORMAL":21,"TEXCOORD_0":22},"indices":19,"material":5}]}],"accessors":[{"bufferView":0,"componentType":5126,"count":672,"max":[1.600000023841858,10.699999809265137,1.600000023841858],"min":[-1.600000023841858,0,-1.600000023841858],"type":"VEC3"},{"bufferView":1,"componentType":5126,"count":672,"type":"VEC3"},{"bufferView":2,"componentType":5126,"count":672,"type":"VEC2"},{"bufferView":3,"componentType":5123,"count":924,"type":"SCALAR"},{"bufferView":4,"componentType":5126,"count":384,"max":[1.7299998998641968,10.979999542236328,1.7299998998641968],"min":[-1.7299998998641968,3.2899999618530273,-1.7299998998641968],"type":"VEC3"},{"bufferView":5,"componentType":5126,"count":384,"type":"VEC3"},{"bufferView":6,"componentType":5126,"count":384,"type":"VEC2"},{"bufferView":7,"componentType":5123,"count":528,"type":"SCALAR"},{"bufferView":8,"componentType":5126,"count":960,"max":[1.8499997854232788,11.069998741149902,1.8499997854232788],"min":[-1.8499997854232788,0,-1.8499997854232788],"type":"VEC3"},{"bufferView":9,"componentType":5126,"count":960,"type":"VEC3"},{"bufferView":10,"componentType":5126,"count":960,"type":"VEC2"},{"bufferView":11,"componentType":5123,"count":1320,"type":"SCALAR"},{"bufferView":12,"componentType":5126,"count":768,"max":[1.5999997854232788,5.074999809265137,1.5999997854232788],"min":[-1.5999997854232788,1.225000023841858,-1.5999997854232788],"type":"VEC3"},{"bufferView":13,"componentType":5126,"count":768,"type":"VEC3"},{"bufferView":14,"componentType":5126,"count":768,"type":"VEC2"},{"bufferView":15,"componentType":5123,"count":1056,"type":"SCALAR"},{"bufferView":16,"componentType":5126,"count":192,"max":[0.2931116819381714,11.489998817443848,0.2931116819381714],"min":[-0.2931116819381714,11.069998741149902,-0.2931116819381714],"type":"VEC3"},{"bufferView":17,"componentType":5126,"count":192,"type":"VEC3"},{"bufferView":18,"componentType":5126,"count":192,"type":"VEC2"},{"bufferView":19,"componentType":5123,"count":276,"type":"SCALAR"},{"bufferView":20,"componentType":5126,"count":192,"max":[0.21311168372631073,11.710000038146973,0.21311168372631073],"min":[-0.21311168372631073,11.40999984741211,-0.21311168372631073],"type":"VEC3"},{"bufferView":21,"componentType":5126,"count":192,"type":"VEC3"},{"bufferView":22,"componentType":5126,"count":192,"type":"VEC2"}],"bufferViews":[{"buffer":0,"byteLength":8064,"byteOffset":0,"target":34962},{"buffer":0,"byteLength":8064,"byteOffset":8064,"target":34962},{"buffer":0,"byteLength":5376,"byteOffset":16128,"target":34962},{"buffer":0,"byteLength":1848,"byteOffset":21504,"target":34963},{"buffer":0,"byteLength":4608,"byteOffset":23352,"target":34962},{"buffer":0,"byteLength":4608,"byteOffset":27960,"target":34962},{"buffer":0,"byteLength":3072,"byteOffset":32568,"target":34962},{"buffer":0,"byteLength":1056,"byteOffset":35640,"target":34963},{"buffer":0,"byteLength":11520,"byteOffset":36696,"target":34962},{"buffer":0,"byteLength":11520,"byteOffset":48216,"target":34962},{"buffer":0,"byteLength":7680,"byteOffset":59736,"target":34962},{"buffer":0,"byteLength":2640,"byteOffset":67416,"target":34963},{"buffer":0,"byteLength":9216,"byteOffset":70056,"target":34962},{"buffer":0,"byteLength":9216,"byteOffset":79272,"target":34962},{"buffer":0,"byteLength":6144,"byteOffset":88488,"target":34962},{"buffer":0,"byteLength":2112,"byteOffset":94632,"target":34963},{"buffer":0,"byteLength":2304,"byteOffset":96744,"target":34962},{"buffer":0,"byteLength":2304,"byteOffset":99048,"target":34962},{"buffer":0,"byteLength":1536,"byteOffset":101352,"target":34962},{"buffer":0,"byteLength":552,"byteOffset":102888,"target":34963},{"buffer":0,"byteLength":2304,"byteOffset":103440,"target":34962},{"buffer":0,"byteLength":2304,"byteOffset":105744,"target":34962},{"buffer":0,"byteLength":1536,"byteOffset":108048,"target":34962}],"buffers":[{"byteLength":109584,"uri":"data:application/octet-stream;base64,"}]}
