{"asset":{"generator":"Khronos glTF Blender I/O v4.0.44","version":"2.0"},"scene":0,"scenes":[{"name":"Scene","nodes":[0]}],"nodes":[{"extras":{"titancraft_visual_only":true,"titancraft_collision":"none"},"mesh":0,"name":"TC_ENV_ArcadeBay_V1"}],"materials":[{"doubleSided":true,"name":"TC_MAT_ArcadeStone","pbrMetallicRoughness":{"baseColorFactor":[0.5607839822769165,0.5098040103912354,0.4235289990901947,1],"metallicFactor":0,"roughnessFactor":0.9399999976158142}},{"doubleSided":true,"name":"TC_MAT_ArcadeRender","pbrMetallicRoughness":{"baseColorFactor":[0.8588240146636963,0.8313729763031006,0.7607839703559875,1],"metallicFactor":0,"roughnessFactor":0.8999999761581421}},{"doubleSided":true,"name":"TC_MAT_ArcadeShadow","pbrMetallicRoughness":{"baseColorFactor":[0.35294100642204285,0.3176470100879669,0.2627449929714203,1],"metallicFactor":0,"roughnessFactor":0.949999988079071}}],"meshes":[{"name":"Cube","primitives":[{"attributes":{"POSITION":0,"NORMAL":1,"TEXCOORD_0":2},"indices":3,"material":0},{"attributes":{"POSITION":4,"NORMAL":5,"TEXCOORD_0":6},"indices":7,"material":1},{"attributes":{"POSITION":8,"NORMAL":9,"TEXCOORD_0":10},"indices":11,"material":2}]}],"accessors":[{"bufferView":0,"componentType":5126,"count":4032,"max":[5.5,5.4800004959106445,0.6600000262260437],"min":[-5.5,1.959999918937683,-0.6600000262260437],"type":"VEC3"},{"bufferView":1,"componentType":5126,"count":4032,"type":"VEC3"},{"bufferView":2,"componentType":5126,"count":4032,"type":"VEC2"},{"bufferView":3,"componentType":5123,"count":5544,"type":"SCALAR"},{"bufferView":4,"componentType":5126,"count":576,"max":[5.30000114440918,5.100000381469727,0.5],"min":[-5.300000190734863,0,-0.5],"type":"VEC3"},{"bufferView":5,"componentType":5126,"count":576,"type":"VEC3"},{"bufferView":6,"componentType":5126,"count":576,"type":"VEC2"},{"bufferView":7,"componentType":5123,"count":792,"type":"SCALAR"},{"bufferView":8,"componentType":5126,"count":384,"max":[5.399999618530273,0.3000004291534424,0.6000000238418579],"min":[-5.399999618530273,2.384185791015625e-07,-0.6000000238418579],"type":"VEC3"},{"bufferView":9,"componentType":5126,"count":384,"type":"VEC3"},{"bufferView":10,"componentType":5126,"count":384,"type":"VEC2"},{"bufferView":11,"componentType":5123,"count":528,"type":"SCALAR"}],"bufferViews":[{"buffer":0,"byteLength":48384,"byteOffset":0,"target":34962},{"buffer":0,"byteLength":48384,"byteOffset":48384,"target":34962},{"buffer":0,"byteLength":32256,"byteOffset":96768,"target":34962},{"buffer":0,"byteLength":11088,"byteOffset":129024,"target":34963},{"buffer":0,"byteLength":6912,"byteOffset":140112,"target":34962},{"buffer":0,"byteLength":6912,"byteOffset":147024,"target":34962},{"buffer":0,"byteLength":4608,"byteOffset":153936,"target":34962},{"buffer":0,"byteLength":1584,"byteOffset":158544,"target":34963},{"buffer":0,"byteLength":4608,"byteOffset":160128,"target":34962},{"buffer":0,"byteLength":4608,"byteOffset":164736,"target":34962},{"buffer":0,"byteLength":3072,"byteOffset":169344,"target":34962},{"buffer":0,"byteLength":1056,"byteOffset":172416,"target":34963}],"buffers":[{"byteLength":173472,"uri":"data:application/octet-stream;base64,"}]}
