{"asset":{"generator":"Khronos glTF Blender I/O v4.0.44","version":"2.0"},"scene":0,"scenes":[{"name":"Scene","nodes":[0]}],"nodes":[{"extras":{"titancraft_visual_only":true,"titancraft_collision":"none"},"mesh":0,"name":"TC_ENV_SeaWallQuay_V1"}],"materials":[{"doubleSided":true,"name":"TC_MAT_QuayStone","pbrMetallicRoughness":{"baseColorFactor":[0.5607839822769165,0.5098040103912354,0.4235289990901947,1],"metallicFactor":0,"roughnessFactor":0.949999988079071}},{"doubleSided":true,"name":"TC_MAT_QuayCoping","pbrMetallicRoughness":{"baseColorFactor":[0.35294100642204285,0.3176470100879669,0.2627449929714203,1],"metallicFactor":0,"roughnessFactor":0.8999999761581421}},{"doubleSided":true,"name":"TC_MAT_QuayBollard","pbrMetallicRoughness":{"baseColorFactor":[0.35294100642204285,0.3176470100879669,0.2627449929714203,1],"metallicFactor":0.4000000059604645,"roughnessFactor":0.699999988079071}}],"meshes":[{"name":"Cube","primitives":[{"attributes":{"POSITION":0,"NORMAL":1,"TEXCOORD_0":2},"indices":3,"material":0},{"attributes":{"POSITION":4,"NORMAL":5,"TEXCOORD_0":6},"indices":7,"material":1},{"attributes":{"POSITION":8,"NORMAL":9,"TEXCOORD_0":10},"indices":11,"material":2}]}],"accessors":[{"bufferView":0,"componentType":5126,"count":96,"max":[6,1.899999976158142,1.100000023841858],"min":[-6,0,-1.100000023841858],"type":"VEC3"},{"bufferView":1,"componentType":5126,"count":96,"type":"VEC3"},{"bufferView":2,"componentType":5126,"count":96,"type":"VEC2"},{"bufferView":3,"componentType":5123,"count":132,"type":"SCALAR"},{"bufferView":4,"componentType":5126,"count":672,"max":[6.179999351501465,2.1599998474121094,2.8799996376037598],"min":[-6.179999351501465,0.050000011920928955,-1.2799997329711914],"type":"VEC3"},{"bufferView":5,"componentType":5126,"count":672,"type":"VEC3"},{"bufferView":6,"componentType":5126,"count":672,"type":"VEC2"},{"bufferView":7,"componentType":5123,"count":924,"type":"SCALAR"},{"bufferView":8,"componentType":5126,"count":1152,"max":[4.223111152648926,2.919999599456787,0.22311170399188995],"min":[-4.223111152648926,2.1599998474121094,-0.22311170399188995],"type":"VEC3"},{"bufferView":9,"componentType":5126,"count":1152,"type":"VEC3"},{"bufferView":10,"componentType":5126,"count":1152,"type":"VEC2"},{"bufferView":11,"componentType":5123,"count":1656,"type":"SCALAR"}],"bufferViews":[{"buffer":0,"byteLength":1152,"byteOffset":0,"target":34962},{"buffer":0,"byteLength":1152,"byteOffset":1152,"target":34962},{"buffer":0,"byteLength":768,"byteOffset":2304,"target":34962},{"buffer":0,"byteLength":264,"byteOffset":3072,"target":34963},{"buffer":0,"byteLength":8064,"byteOffset":3336,"target":34962},{"buffer":0,"byteLength":8064,"byteOffset":11400,"target":34962},{"buffer":0,"byteLength":5376,"byteOffset":19464,"target":34962},{"buffer":0,"byteLength":1848,"byteOffset":24840,"target":34963},{"buffer":0,"byteLength":13824,"byteOffset":26688,"target":34962},{"buffer":0,"byteLength":13824,"byteOffset":40512,"target":34962},{"buffer":0,"byteLength":9216,"byteOffset":54336,"target":34962},{"buffer":0,"byteLength":3312,"byteOffset":63552,"target":34963}],"buffers":[{"byteLength":66864,"uri":"data:application/octet-stream;base64,"}]}
