{"asset":{"generator":"Khronos glTF Blender I/O v4.0.44","version":"2.0"},"scene":0,"scenes":[{"name":"Scene","nodes":[0]}],"nodes":[{"extras":{"titancraft_visual_only":true,"titancraft_collision":"none"},"mesh":0,"name":"TC_ENV_PalmCluster_V1"}],"materials":[{"doubleSided":true,"name":"TC_MAT_PalmTrunk","pbrMetallicRoughness":{"baseColorFactor":[0.37647101283073425,0.32548999786376953,0.24313700199127197,1],"metallicFactor":0,"roughnessFactor":0.9200000166893005}},{"doubleSided":true,"name":"TC_MAT_PalmFrond","pbrMetallicRoughness":{"baseColorFactor":[0.2784309983253479,0.34117600321769714,0.20392200350761414,1],"metallicFactor":0,"roughnessFactor":0.8799999952316284}}],"meshes":[{"name":"Cylinder","primitives":[{"attributes":{"POSITION":0,"NORMAL":1,"TEXCOORD_0":2},"indices":3,"material":0},{"attributes":{"POSITION":4,"NORMAL":5,"TEXCOORD_0":6},"indices":7,"material":1}]}],"accessors":[{"bufferView":0,"componentType":5126,"count":2016,"max":[1.4905256032943726,6.299999237060547,0.25099998712539673],"min":[-1.2905256748199463,-0.03100001811981201,-1.0509999990463257],"type":"VEC3"},{"bufferView":1,"componentType":5126,"count":2016,"type":"VEC3"},{"bufferView":2,"componentType":5126,"count":2016,"type":"VEC2"},{"bufferView":3,"componentType":5123,"count":2856,"type":"SCALAR"},{"bufferView":4,"componentType":5126,"count":4032,"max":[2.558900833129883,6.113683700561523,1.5890257358551025],"min":[-2.259243965148926,2.3267312049865723,-2.2966480255126953],"type":"VEC3"},{"bufferView":5,"componentType":5126,"count":4032,"type":"VEC3"},{"bufferView":6,"componentType":5126,"count":4032,"type":"VEC2"},{"bufferView":7,"componentType":5123,"count":5544,"type":"SCALAR"}],"bufferViews":[{"buffer":0,"byteLength":24192,"byteOffset":0,"target":34962},{"buffer":0,"byteLength":24192,"byteOffset":24192,"target":34962},{"buffer":0,"byteLength":16128,"byteOffset":48384,"target":34962},{"buffer":0,"byteLength":5712,"byteOffset":64512,"target":34963},{"buffer":0,"byteLength":48384,"byteOffset":70224,"target":34962},{"buffer":0,"byteLength":48384,"byteOffset":118608,"target":34962},{"buffer":0,"byteLength":32256,"byteOffset":166992,"target":34962},{"buffer":0,"byteLength":11088,"byteOffset":199248,"target":34963}],"buffers":[{"byteLength":210336,"uri":"data:application/octet-stream;base64,"}]}
