{"asset":{"generator":"Khronos glTF Blender I/O v4.0.44","version":"2.0"},"scene":0,"scenes":[{"name":"Scene","nodes":[5]}],"nodes":[{"name":"banner_lower","translation":[0,1.059999942779541,0]},{"children":[0],"name":"banner_upper","rotation":[-0.7071067690849304,0,0,0.7071067690849304],"translation":[0,0.6000000238418579,-0.039999961853027344]},{"children":[1],"name":"bracket","rotation":[-0.7071067690849304,0,0,0.7071067690849304],"translation":[0,3.0999999046325684,0]},{"name":"neutral_bone","rotation":[-0.7071067690849304,0,0,0.7071067690849304]},{"extras":{"titancraft_visual_only":true,"titancraft_collision":"none"},"mesh":0,"name":"TC_ENV_BannerCloth_V1","skin":0},{"children":[4,2,3],"name":"TC_RIG_BannerCloth"}],"animations":[{"channels":[{"sampler":0,"target":{"node":2,"path":"translation"}},{"sampler":1,"target":{"node":2,"path":"rotation"}},{"sampler":2,"target":{"node":2,"path":"scale"}},{"sampler":3,"target":{"node":1,"path":"translation"}},{"sampler":4,"target":{"node":1,"path":"rotation"}},{"sampler":5,"target":{"node":1,"path":"scale"}},{"sampler":6,"target":{"node":0,"path":"translation"}},{"sampler":7,"target":{"node":0,"path":"rotation"}},{"sampler":8,"target":{"node":0,"path":"scale"}}],"name":"TC_RIG_BannerClothAction","samplers":[{"input":19,"interpolation":"STEP","output":20},{"input":19,"interpolation":"STEP","output":21},{"input":19,"interpolation":"STEP","output":22},{"input":19,"interpolation":"STEP","output":23},{"input":24,"interpolation":"LINEAR","output":25},{"input":19,"interpolation":"STEP","output":26},{"input":19,"interpolation":"STEP","output":27},{"input":24,"interpolation":"LINEAR","output":28},{"input":19,"interpolation":"STEP","output":29}]}],"materials":[{"doubleSided":true,"name":"TC_MAT_MotionBannerBracket","pbrMetallicRoughness":{"baseColorFactor":[0.4313730001449585,0.4549019932746887,0.47058799862861633,1],"metallicFactor":0.5,"roughnessFactor":0.6499999761581421}},{"doubleSided":true,"name":"TC_MAT_MotionBannerTrim","pbrMetallicRoughness":{"baseColorFactor":[0.22352899610996246,0.1450980007648468,0.08627499639987946,1],"metallicFactor":0,"roughnessFactor":0.699999988079071}},{"doubleSided":true,"name":"TC_MAT_MotionBannerCloth","pbrMetallicRoughness":{"baseColorFactor":[0.7294120192527771,0.564706027507782,0.313726007938385,1],"metallicFactor":0,"roughnessFactor":0.9399999976158142}}],"meshes":[{"name":"Cube","primitives":[{"attributes":{"POSITION":0,"NORMAL":1,"TEXCOORD_0":2,"JOINTS_0":3,"WEIGHTS_0":4},"indices":5,"material":0},{"attributes":{"POSITION":6,"NORMAL":7,"TEXCOORD_0":8,"JOINTS_0":9,"WEIGHTS_0":10},"indices":11,"material":1},{"attributes":{"POSITION":12,"NORMAL":13,"TEXCOORD_0":14,"JOINTS_0":15,"WEIGHTS_0":16},"indices":17,"material":2}]}],"skins":[{"inverseBindMatrices":18,"joints":[2,1,0,3],"name":"TC_RIG_BannerCloth"}],"accessors":[{"bufferView":0,"componentType":5126,"count":240,"max":[0.10000000149011612,3.25,0.05999999865889549],"min":[-0.10000000149011612,2.9499998092651367,-0.6199999451637268],"type":"VEC3"},{"bufferView":1,"componentType":5126,"count":240,"type":"VEC3"},{"bufferView":2,"componentType":5126,"count":240,"type":"VEC2"},{"bufferView":3,"componentType":5121,"count":240,"type":"VEC4"},{"bufferView":4,"componentType":5126,"count":240,"type":"VEC4"},{"bufferView":5,"componentType":5123,"count":336,"type":"SCALAR"},{"bufferView":6,"componentType":5126,"count":236,"max":[0.5,3.0842487812042236,-0.574999988079071],"min":[-0.5,0.9999997615814209,-0.625],"type":"VEC3"},{"bufferView":7,"componentType":5126,"count":236,"type":"VEC3"},{"bufferView":8,"componentType":5126,"count":236,"type":"VEC2"},{"bufferView":9,"componentType":5121,"count":236,"type":"VEC4"},{"bufferView":10,"componentType":5126,"count":236,"type":"VEC4"},{"bufferView":11,"componentType":5123,"count":336,"type":"SCALAR"},{"bufferView":12,"componentType":5126,"count":96,"max":[0.45000001788139343,3.059999942779541,-0.5849999785423279],"min":[-0.45000001788139343,1.059999704360962,-0.6150000095367432],"type":"VEC3"},{"bufferView":13,"componentType":5126,"count":96,"type":"VEC3"},{"bufferView":14,"componentType":5126,"count":96,"type":"VEC2"},{"bufferView":15,"componentType":5121,"count":96,"type":"VEC4"},{"bufferView":16,"componentType":5126,"count":96,"type":"VEC4"},{"bufferView":17,"componentType":5123,"count":132,"type":"SCALAR"},{"bufferView":18,"componentType":5126,"count":4,"type":"MAT4"},{"bufferView":19,"componentType":5126,"count":2,"max":[5],"min":[0.041666666666666664],"type":"SCALAR"},{"bufferView":20,"componentType":5126,"count":2,"type":"VEC3"},{"bufferView":21,"componentType":5126,"count":2,"type":"VEC4"},{"bufferView":22,"componentType":5126,"count":2,"type":"VEC3"},{"bufferView":23,"componentType":5126,"count":2,"type":"VEC3"},{"bufferView":24,"componentType":5126,"count":120,"max":[5],"min":[0.041666666666666664],"type":"SCALAR"},{"bufferView":25,"componentType":5126,"count":120,"type":"VEC4"},{"bufferView":26,"componentType":5126,"count":2,"type":"VEC3"},{"bufferView":27,"componentType":5126,"count":2,"type":"VEC3"},{"bufferView":28,"componentType":5126,"count":120,"type":"VEC4"},{"bufferView":29,"componentType":5126,"count":2,"type":"VEC3"}],"bufferViews":[{"buffer":0,"byteLength":2880,"byteOffset":0,"target":34962},{"buffer":0,"byteLength":2880,"byteOffset":2880,"target":34962},{"buffer":0,"byteLength":1920,"byteOffset":5760,"target":34962},{"buffer":0,"byteLength":960,"byteOffset":7680,"target":34962},{"buffer":0,"byteLength":3840,"byteOffset":8640,"target":34962},{"buffer":0,"byteLength":672,"byteOffset":12480,"target":34963},{"buffer":0,"byteLength":2832,"byteOffset":13152,"target":34962},{"buffer":0,"byteLength":2832,"byteOffset":15984,"target":34962},{"buffer":0,"byteLength":1888,"byteOffset":18816,"target":34962},{"buffer":0,"byteLength":944,"byteOffset":20704,"target":34962},{"buffer":0,"byteLength":3776,"byteOffset":21648,"target":34962},{"buffer":0,"byteLength":672,"byteOffset":25424,"target":34963},{"buffer":0,"byteLength":1152,"byteOffset":26096,"target":34962},{"buffer":0,"byteLength":1152,"byteOffset":27248,"target":34962},{"buffer":0,"byteLength":768,"byteOffset":28400,"target":34962},{"buffer":0,"byteLength":384,"byteOffset":29168,"target":34962},{"buffer":0,"byteLength":1536,"byteOffset":29552,"target":34962},{"buffer":0,"byteLength":264,"byteOffset":31088,"target":34963},{"buffer":0,"byteLength":256,"byteOffset":31352},{"buffer":0,"byteLength":8,"byteOffset":31608},{"buffer":0,"byteLength":24,"byteOffset":31616},{"buffer":0,"byteLength":32,"byteOffset":31640},{"buffer":0,"byteLength":24,"byteOffset":31672},{"buffer":0,"byteLength":24,"byteOffset":31696},{"buffer":0,"byteLength":480,"byteOffset":31720},{"buffer":0,"byteLength":1920,"byteOffset":32200},{"buffer":0,"byteLength":24,"byteOffset":34120},{"buffer":0,"byteLength":24,"byteOffset":34144},{"buffer":0,"byteLength":1920,"byteOffset":34168},{"buffer":0,"byteLength":24,"byteOffset":36088}],"buffers":[{"byteLength":36112,"uri":"data:application/octet-stream;base64,"}]}
