{"asset":{"generator":"Khronos glTF Blender I/O v4.0.44","version":"2.0"},"scene":0,"scenes":[{"name":"Scene","nodes":[3]}],"nodes":[{"name":"edge","rotation":[-0.10356208682060242,0,0,0.9946230053901672],"scale":[1,0.9999999403953552,0.9999999403953552],"translation":[0,0.7649999856948853,-0.24000000953674316]},{"children":[0],"name":"root","rotation":[-0.7071067690849304,0,0,0.7071067690849304],"translation":[0,2.700000047683716,0]},{"extras":{"titancraft_visual_only":true,"titancraft_collision":"none"},"mesh":0,"name":"TC_ENV_AwningCloth_V1","skin":0},{"children":[2,1],"name":"TC_RIG_AwningCloth"}],"animations":[{"channels":[{"sampler":0,"target":{"node":1,"path":"translation"}},{"sampler":1,"target":{"node":1,"path":"rotation"}},{"sampler":2,"target":{"node":1,"path":"scale"}},{"sampler":3,"target":{"node":0,"path":"translation"}},{"sampler":4,"target":{"node":0,"path":"rotation"}},{"sampler":5,"target":{"node":0,"path":"scale"}}],"name":"TC_RIG_AwningClothAction","samplers":[{"input":19,"interpolation":"STEP","output":20},{"input":19,"interpolation":"STEP","output":21},{"input":19,"interpolation":"STEP","output":22},{"input":19,"interpolation":"STEP","output":23},{"input":24,"interpolation":"LINEAR","output":25},{"input":19,"interpolation":"STEP","output":26}]}],"materials":[{"doubleSided":true,"name":"TC_MAT_MotionAwningBracket","pbrMetallicRoughness":{"baseColorFactor":[0.5607839822769165,0.5098040103912354,0.4235289990901947,1],"metallicFactor":0,"roughnessFactor":0.9399999976158142}},{"doubleSided":true,"name":"TC_MAT_MotionAwningFrame","pbrMetallicRoughness":{"baseColorFactor":[0.22352899610996246,0.1450980007648468,0.08627499639987946,1],"metallicFactor":0,"roughnessFactor":0.699999988079071}},{"doubleSided":true,"name":"TC_MAT_MotionAwningCloth","pbrMetallicRoughness":{"baseColorFactor":[0.6156859993934631,0.32548999786376953,0.21176500618457794,1],"metallicFactor":0,"roughnessFactor":0.949999988079071}}],"meshes":[{"name":"Cube","primitives":[{"attributes":{"POSITION":0,"NORMAL":1,"TEXCOORD_0":2,"JOINTS_0":3,"WEIGHTS_0":4},"indices":5,"material":0},{"attributes":{"POSITION":6,"NORMAL":7,"TEXCOORD_0":8,"JOINTS_0":9,"WEIGHTS_0":10},"indices":11,"material":1},{"attributes":{"POSITION":12,"NORMAL":13,"TEXCOORD_0":14,"JOINTS_0":15,"WEIGHTS_0":16},"indices":17,"material":2}]}],"skins":[{"inverseBindMatrices":18,"joints":[1,0],"name":"TC_RIG_AwningCloth"}],"accessors":[{"bufferView":0,"componentType":5126,"count":192,"max":[1.4799998998641968,2.7799999713897705,0.030000001192092896],"min":[-1.4800000190734863,2.620000123977661,-0.4699999988079071],"type":"VEC3"},{"bufferView":1,"componentType":5126,"count":192,"type":"VEC3"},{"bufferView":2,"componentType":5126,"count":192,"type":"VEC2"},{"bufferView":3,"componentType":5121,"count":192,"type":"VEC4"},{"bufferView":4,"componentType":5126,"count":192,"type":"VEC4"},{"bufferView":5,"componentType":5123,"count":264,"type":"SCALAR"},{"bufferView":6,"componentType":5126,"count":360,"max":[1.4999998807907104,2.5467710494995117,2.9802322387695312e-08],"min":[-1.5,2.306283950805664,-1.7000000476837158],"type":"VEC3"},{"bufferView":7,"componentType":5126,"count":360,"type":"VEC3"},{"bufferView":8,"componentType":5126,"count":360,"type":"VEC2"},{"bufferView":9,"componentType":5121,"count":360,"type":"VEC4"},{"bufferView":10,"componentType":5126,"count":360,"type":"VEC4"},{"bufferView":11,"componentType":5123,"count":504,"type":"SCALAR"},{"bufferView":12,"componentType":5126,"count":192,"max":[1.4999998807907104,2.690315008163452,0.03228425979614258],"min":[-1.5,2.0300002098083496,-1.6699999570846558],"type":"VEC3"},{"bufferView":13,"componentType":5126,"count":192,"type":"VEC3"},{"bufferView":14,"componentType":5126,"count":192,"type":"VEC2"},{"bufferView":15,"componentType":5121,"count":192,"type":"VEC4"},{"bufferView":16,"componentType":5126,"count":192,"type":"VEC4"},{"bufferView":17,"componentType":5123,"count":264,"type":"SCALAR"},{"bufferView":18,"componentType":5126,"count":2,"type":"MAT4"},{"bufferView":19,"componentType":5126,"count":2,"max":[5],"min":[0.041666666666666664],"type":"SCALAR"},{"bufferView":20,"componentType":5126,"count":2,"type":"VEC3"},{"bufferView":21,"componentType":5126,"count":2,"type":"VEC4"},{"bufferView":22,"componentType":5126,"count":2,"type":"VEC3"},{"bufferView":23,"componentType":5126,"count":2,"type":"VEC3"},{"bufferView":24,"componentType":5126,"count":120,"max":[5],"min":[0.041666666666666664],"type":"SCALAR"},{"bufferView":25,"componentType":5126,"count":120,"type":"VEC4"},{"bufferView":26,"componentType":5126,"count":2,"type":"VEC3"}],"bufferViews":[{"buffer":0,"byteLength":2304,"byteOffset":0,"target":34962},{"buffer":0,"byteLength":2304,"byteOffset":2304,"target":34962},{"buffer":0,"byteLength":1536,"byteOffset":4608,"target":34962},{"buffer":0,"byteLength":768,"byteOffset":6144,"target":34962},{"buffer":0,"byteLength":3072,"byteOffset":6912,"target":34962},{"buffer":0,"byteLength":528,"byteOffset":9984,"target":34963},{"buffer":0,"byteLength":4320,"byteOffset":10512,"target":34962},{"buffer":0,"byteLength":4320,"byteOffset":14832,"target":34962},{"buffer":0,"byteLength":2880,"byteOffset":19152,"target":34962},{"buffer":0,"byteLength":1440,"byteOffset":22032,"target":34962},{"buffer":0,"byteLength":5760,"byteOffset":23472,"target":34962},{"buffer":0,"byteLength":1008,"byteOffset":29232,"target":34963},{"buffer":0,"byteLength":2304,"byteOffset":30240,"target":34962},{"buffer":0,"byteLength":2304,"byteOffset":32544,"target":34962},{"buffer":0,"byteLength":1536,"byteOffset":34848,"target":34962},{"buffer":0,"byteLength":768,"byteOffset":36384,"target":34962},{"buffer":0,"byteLength":3072,"byteOffset":37152,"target":34962},{"buffer":0,"byteLength":528,"byteOffset":40224,"target":34963},{"buffer":0,"byteLength":128,"byteOffset":40752},{"buffer":0,"byteLength":8,"byteOffset":40880},{"buffer":0,"byteLength":24,"byteOffset":40888},{"buffer":0,"byteLength":32,"byteOffset":40912},{"buffer":0,"byteLength":24,"byteOffset":40944},{"buffer":0,"byteLength":24,"byteOffset":40968},{"buffer":0,"byteLength":480,"byteOffset":40992},{"buffer":0,"byteLength":1920,"byteOffset":41472},{"buffer":0,"byteLength":24,"byteOffset":43392}],"buffers":[{"byteLength":43416,"uri":"data:application/octet-stream;base64,"}]}
