{"asset":{"generator":"Khronos glTF Blender I/O v4.0.44","version":"2.0"},"scene":0,"scenes":[{"name":"Scene","nodes":[0]}],"nodes":[{"extras":{"titancraft_visual_only":true,"titancraft_collision":"none"},"mesh":0,"name":"TC_ENV_LavaShoreline_V1"}],"materials":[{"doubleSided":true,"name":"TC_MAT_LavaRock","pbrMetallicRoughness":{"baseColorFactor":[0.0860000029206276,0.0820000022649765,0.07800000160932541,1],"metallicFactor":0,"roughnessFactor":0.9399999976158142}},{"doubleSided":true,"name":"TC_MAT_LavaTideStain","pbrMetallicRoughness":{"baseColorFactor":[0.1599999964237213,0.14900000393390656,0.1289999932050705,1],"metallicFactor":0,"roughnessFactor":0.800000011920929}}],"meshes":[{"name":"Cube","primitives":[{"attributes":{"POSITION":0,"NORMAL":1,"TEXCOORD_0":2},"indices":3,"material":0},{"attributes":{"POSITION":4,"NORMAL":5,"TEXCOORD_0":6},"indices":7,"material":1}]}],"accessors":[{"bufferView":0,"componentType":5126,"count":1440,"max":[10.971041679382324,1.6710971593856812,0.6015996336936951],"min":[-11.70995044708252,-0.30024653673171997,-3.6199185848236084],"type":"VEC3"},{"bufferView":1,"componentType":5126,"count":1440,"type":"VEC3"},{"bufferView":2,"componentType":5126,"count":1440,"type":"VEC2"},{"bufferView":3,"componentType":5123,"count":1980,"type":"SCALAR"},{"bufferView":4,"componentType":5126,"count":1056,"max":[11.007335662841797,1.745792269706726,4.243649005889893],"min":[-11.183175086975098,-0.30753767490386963,-0.6201136708259583],"type":"VEC3"},{"bufferView":5,"componentType":5126,"count":1056,"type":"VEC3"},{"bufferView":6,"componentType":5126,"count":1056,"type":"VEC2"},{"bufferView":7,"componentType":5123,"count":1452,"type":"SCALAR"}],"bufferViews":[{"buffer":0,"byteLength":17280,"byteOffset":0,"target":34962},{"buffer":0,"byteLength":17280,"byteOffset":17280,"target":34962},{"buffer":0,"byteLength":11520,"byteOffset":34560,"target":34962},{"buffer":0,"byteLength":3960,"byteOffset":46080,"target":34963},{"buffer":0,"byteLength":12672,"byteOffset":50040,"target":34962},{"buffer":0,"byteLength":12672,"byteOffset":62712,"target":34962},{"buffer":0,"byteLength":8448,"byteOffset":75384,"target":34962},{"buffer":0,"byteLength":2904,"byteOffset":83832,"target":34963}],"buffers":[{"byteLength":86736,"uri":"data:application/octet-stream;base64,"}]}
