{"asset":{"generator":"Khronos glTF Blender I/O v4.0.44","version":"2.0"},"scene":0,"scenes":[{"name":"Scene","nodes":[6]}],"nodes":[{"name":"sheet_0","rotation":[1,0,-4.371138828673793e-08,0],"translation":[-1.5499999523162842,0,0]},{"name":"sheet_1","rotation":[1,0,-4.371138473402425e-08,0],"scale":[1,0.9999997615814209,1],"translation":[-0.15000000596046448,0,0]},{"name":"sheet_2","rotation":[1,0,-4.371138828673793e-08,0],"translation":[1.350000023841858,0,0]},{"children":[0,1,2],"name":"line","translation":[0,2.5,0]},{"name":"neutral_bone","rotation":[-0.7071067690849304,0,0,0.7071067690849304]},{"extras":{"titancraft_visual_only":true,"titancraft_collision":"none"},"mesh":0,"name":"TC_ENV_LaundryLine_V1","skin":0},{"children":[5,3,4],"name":"TC_RIG_LaundryLine"}],"animations":[{"channels":[{"sampler":0,"target":{"node":3,"path":"translation"}},{"sampler":1,"target":{"node":3,"path":"rotation"}},{"sampler":2,"target":{"node":3,"path":"scale"}},{"sampler":3,"target":{"node":0,"path":"translation"}},{"sampler":4,"target":{"node":0,"path":"rotation"}},{"sampler":5,"target":{"node":0,"path":"scale"}},{"sampler":6,"target":{"node":1,"path":"translation"}},{"sampler":7,"target":{"node":1,"path":"rotation"}},{"sampler":8,"target":{"node":1,"path":"scale"}},{"sampler":9,"target":{"node":2,"path":"translation"}},{"sampler":10,"target":{"node":2,"path":"rotation"}},{"sampler":11,"target":{"node":2,"path":"scale"}}],"name":"TC_RIG_LaundryLineAction","samplers":[{"input":29,"interpolation":"STEP","output":30},{"input":29,"interpolation":"STEP","output":31},{"input":29,"interpolation":"STEP","output":32},{"input":29,"interpolation":"STEP","output":33},{"input":34,"interpolation":"LINEAR","output":35},{"input":29,"interpolation":"STEP","output":36},{"input":29,"interpolation":"STEP","output":37},{"input":34,"interpolation":"LINEAR","output":38},{"input":29,"interpolation":"STEP","output":39},{"input":29,"interpolation":"STEP","output":40},{"input":34,"interpolation":"LINEAR","output":41},{"input":29,"interpolation":"STEP","output":42}]}],"materials":[{"doubleSided":true,"name":"TC_MAT_MotionLaundryPole","pbrMetallicRoughness":{"baseColorFactor":[0.22352899610996246,0.1450980007648468,0.08627499639987946,1],"metallicFactor":0,"roughnessFactor":0.7200000286102295}},{"doubleSided":true,"name":"TC_MAT_MotionLaundryRope","pbrMetallicRoughness":{"baseColorFactor":[0.48235300183296204,0.4313730001449585,0.33725500106811523,1],"metallicFactor":0,"roughnessFactor":0.949999988079071}},{"doubleSided":true,"name":"TC_MAT_MotionClothWhite","pbrMetallicRoughness":{"baseColorFactor":[0.8274509906768799,0.8117650151252747,0.7686269879341125,1],"metallicFactor":0,"roughnessFactor":0.949999988079071}},{"doubleSided":true,"name":"TC_MAT_MotionClothBlue","pbrMetallicRoughness":{"baseColorFactor":[0.3960779905319214,0.47843098640441895,0.5411760210990906,1],"metallicFactor":0,"roughnessFactor":0.949999988079071}},{"doubleSided":true,"name":"TC_MAT_MotionClothOchre","pbrMetallicRoughness":{"baseColorFactor":[0.7294120192527771,0.564706027507782,0.313726007938385,1],"metallicFactor":0,"roughnessFactor":0.949999988079071}}],"meshes":[{"name":"Cylinder","primitives":[{"attributes":{"POSITION":0,"NORMAL":1,"TEXCOORD_0":2,"JOINTS_0":3,"WEIGHTS_0":4},"indices":5,"material":0},{"attributes":{"POSITION":6,"NORMAL":7,"TEXCOORD_0":8,"JOINTS_0":9,"WEIGHTS_0":10},"indices":11,"material":1},{"attributes":{"POSITION":12,"NORMAL":13,"TEXCOORD_0":14,"JOINTS_0":15,"WEIGHTS_0":16},"indices":17,"material":2},{"attributes":{"POSITION":18,"NORMAL":19,"TEXCOORD_0":20,"JOINTS_0":21,"WEIGHTS_0":22},"indices":17,"material":3},{"attributes":{"POSITION":23,"NORMAL":24,"TEXCOORD_0":25,"JOINTS_0":26,"WEIGHTS_0":27},"indices":17,"material":4}]}],"skins":[{"inverseBindMatrices":28,"joints":[3,0,1,2,4],"name":"TC_RIG_LaundryLine"}],"accessors":[{"bufferView":0,"componentType":5126,"count":576,"max":[2.351961374282837,2.700000047683716,0.05412215739488602],"min":[-2.351961374282837,0,-0.05412215739488602],"type":"VEC3"},{"bufferView":1,"componentType":5126,"count":576,"type":"VEC3"},{"bufferView":2,"componentType":5126,"count":576,"type":"VEC2"},{"bufferView":3,"componentType":5121,"count":576,"type":"VEC4"},{"bufferView":4,"componentType":5126,"count":576,"type":"VEC4"},{"bufferView":5,"componentType":5123,"count":804,"type":"SCALAR"},{"bufferView":6,"componentType":5126,"count":120,"max":[2.299999952316284,2.5153887271881104,0.016180340200662613],"min":[-2.299999952316284,2.4846112728118896,-0.013090245425701141],"type":"VEC3"},{"bufferView":7,"componentType":5126,"count":120,"type":"VEC3"},{"bufferView":8,"componentType":5126,"count":120,"type":"VEC2"},{"bufferView":9,"componentType":5121,"count":120,"type":"VEC4"},{"bufferView":10,"componentType":5126,"count":120,"type":"VEC4"},{"bufferView":11,"componentType":5123,"count":168,"type":"SCALAR"},{"bufferView":12,"componentType":5126,"count":96,"max":[-1.0749999284744263,2.5,0.014999999664723873],"min":[-2.0249998569488525,1.4000000953674316,-0.014999999664723873],"type":"VEC3"},{"bufferView":13,"componentType":5126,"count":96,"type":"VEC3"},{"bufferView":14,"componentType":5126,"count":96,"type":"VEC2"},{"bufferView":15,"componentType":5121,"count":96,"type":"VEC4"},{"bufferView":16,"componentType":5126,"count":96,"type":"VEC4"},{"bufferView":17,"componentType":5123,"count":132,"type":"SCALAR"},{"bufferView":18,"componentType":5126,"count":96,"max":[0.25,2.5,0.014999999664723873],"min":[-0.5500000715255737,1.6500000953674316,-0.014999999664723873],"type":"VEC3"},{"bufferView":19,"componentType":5126,"count":96,"type":"VEC3"},{"bufferView":20,"componentType":5126,"count":96,"type":"VEC2"},{"bufferView":21,"componentType":5121,"count":96,"type":"VEC4"},{"bufferView":22,"componentType":5126,"count":96,"type":"VEC4"},{"bufferView":23,"componentType":5126,"count":96,"max":[1.8500001430511475,2.5,0.014999999664723873],"min":[0.8500001430511475,1.25,-0.014999999664723873],"type":"VEC3"},{"bufferView":24,"componentType":5126,"count":96,"type":"VEC3"},{"bufferView":25,"componentType":5126,"count":96,"type":"VEC2"},{"bufferView":26,"componentType":5121,"count":96,"type":"VEC4"},{"bufferView":27,"componentType":5126,"count":96,"type":"VEC4"},{"bufferView":28,"componentType":5126,"count":5,"type":"MAT4"},{"bufferView":29,"componentType":5126,"count":2,"max":[5],"min":[0.041666666666666664],"type":"SCALAR"},{"bufferView":30,"componentType":5126,"count":2,"type":"VEC3"},{"bufferView":31,"componentType":5126,"count":2,"type":"VEC4"},{"bufferView":32,"componentType":5126,"count":2,"type":"VEC3"},{"bufferView":33,"componentType":5126,"count":2,"type":"VEC3"},{"bufferView":34,"componentType":5126,"count":120,"max":[5],"min":[0.041666666666666664],"type":"SCALAR"},{"bufferView":35,"componentType":5126,"count":120,"type":"VEC4"},{"bufferView":36,"componentType":5126,"count":2,"type":"VEC3"},{"bufferView":37,"componentType":5126,"count":2,"type":"VEC3"},{"bufferView":38,"componentType":5126,"count":120,"type":"VEC4"},{"bufferView":39,"componentType":5126,"count":2,"type":"VEC3"},{"bufferView":40,"componentType":5126,"count":2,"type":"VEC3"},{"bufferView":41,"componentType":5126,"count":120,"type":"VEC4"},{"bufferView":42,"componentType":5126,"count":2,"type":"VEC3"}],"bufferViews":[{"buffer":0,"byteLength":6912,"byteOffset":0,"target":34962},{"buffer":0,"byteLength":6912,"byteOffset":6912,"target":34962},{"buffer":0,"byteLength":4608,"byteOffset":13824,"target":34962},{"buffer":0,"byteLength":2304,"byteOffset":18432,"target":34962},{"buffer":0,"byteLength":9216,"byteOffset":20736,"target":34962},{"buffer":0,"byteLength":1608,"byteOffset":29952,"target":34963},{"buffer":0,"byteLength":1440,"byteOffset":31560,"target":34962},{"buffer":0,"byteLength":1440,"byteOffset":33000,"target":34962},{"buffer":0,"byteLength":960,"byteOffset":34440,"target":34962},{"buffer":0,"byteLength":480,"byteOffset":35400,"target":34962},{"buffer":0,"byteLength":1920,"byteOffset":35880,"target":34962},{"buffer":0,"byteLength":336,"byteOffset":37800,"target":34963},{"buffer":0,"byteLength":1152,"byteOffset":38136,"target":34962},{"buffer":0,"byteLength":1152,"byteOffset":39288,"target":34962},{"buffer":0,"byteLength":768,"byteOffset":40440,"target":34962},{"buffer":0,"byteLength":384,"byteOffset":41208,"target":34962},{"buffer":0,"byteLength":1536,"byteOffset":41592,"target":34962},{"buffer":0,"byteLength":264,"byteOffset":43128,"target":34963},{"buffer":0,"byteLength":1152,"byteOffset":43392,"target":34962},{"buffer":0,"byteLength":1152,"byteOffset":44544,"target":34962},{"buffer":0,"byteLength":768,"byteOffset":45696,"target":34962},{"buffer":0,"byteLength":384,"byteOffset":46464,"target":34962},{"buffer":0,"byteLength":1536,"byteOffset":46848,"target":34962},{"buffer":0,"byteLength":1152,"byteOffset":48384,"target":34962},{"buffer":0,"byteLength":1152,"byteOffset":49536,"target":34962},{"buffer":0,"byteLength":768,"byteOffset":50688,"target":34962},{"buffer":0,"byteLength":384,"byteOffset":51456,"target":34962},{"buffer":0,"byteLength":1536,"byteOffset":51840,"target":34962},{"buffer":0,"byteLength":320,"byteOffset":53376},{"buffer":0,"byteLength":8,"byteOffset":53696},{"buffer":0,"byteLength":24,"byteOffset":53704},{"buffer":0,"byteLength":32,"byteOffset":53728},{"buffer":0,"byteLength":24,"byteOffset":53760},{"buffer":0,"byteLength":24,"byteOffset":53784},{"buffer":0,"byteLength":480,"byteOffset":53808},{"buffer":0,"byteLength":1920,"byteOffset":54288},{"buffer":0,"byteLength":24,"byteOffset":56208},{"buffer":0,"byteLength":24,"byteOffset":56232},{"buffer":0,"byteLength":1920,"byteOffset":56256},{"buffer":0,"byteLength":24,"byteOffset":58176},{"buffer":0,"byteLength":24,"byteOffset":58200},{"buffer":0,"byteLength":1920,"byteOffset":58224},{"buffer":0,"byteLength":24,"byteOffset":60144}],"buffers":[{"byteLength":60168,"uri":"data:application/octet-stream;base64,"}]}
