{"asset":{"generator":"Khronos glTF Blender I/O v4.0.44","version":"2.0"},"scene":0,"scenes":[{"name":"Scene","nodes":[0]}],"nodes":[{"extras":{"titancraft_visual_only":true,"titancraft_collision":"none"},"mesh":0,"name":"TC_ENV_CivicHallSeafront_V1"}],"materials":[{"doubleSided":true,"name":"TC_MAT_HallStone","pbrMetallicRoughness":{"baseColorFactor":[0.5607839822769165,0.5098040103912354,0.4235289990901947,1],"metallicFactor":0,"roughnessFactor":0.9399999976158142}},{"doubleSided":true,"name":"TC_MAT_HallWeathered","pbrMetallicRoughness":{"baseColorFactor":[0.35294100642204285,0.3176470100879669,0.2627449929714203,1],"metallicFactor":0,"roughnessFactor":0.949999988079071}},{"doubleSided":true,"name":"TC_MAT_HallRender","pbrMetallicRoughness":{"baseColorFactor":[0.8588240146636963,0.8313729763031006,0.7607839703559875,1],"metallicFactor":0,"roughnessFactor":0.9200000166893005}},{"doubleSided":true,"name":"TC_MAT_HallOpening","pbrMetallicRoughness":{"baseColorFactor":[0.07000000029802322,0.06499999761581421,0.05999999865889549,1],"metallicFactor":0,"roughnessFactor":0.9800000190734863}},{"doubleSided":true,"name":"TC_MAT_HallDoor","pbrMetallicRoughness":{"baseColorFactor":[0.22352899610996246,0.1450980007648468,0.08627499639987946,1],"metallicFactor":0,"roughnessFactor":0.6200000047683716}}],"meshes":[{"name":"Cube","primitives":[{"attributes":{"POSITION":0,"NORMAL":1,"TEXCOORD_0":2},"indices":3,"material":0},{"attributes":{"POSITION":4,"NORMAL":5,"TEXCOORD_0":6},"indices":7,"material":1},{"attributes":{"POSITION":8,"NORMAL":9,"TEXCOORD_0":10},"indices":11,"material":2},{"attributes":{"POSITION":12,"NORMAL":13,"TEXCOORD_0":14},"indices":15,"material":3},{"attributes":{"POSITION":16,"NORMAL":17,"TEXCOORD_0":18},"indices":19,"material":4}]}],"accessors":[{"bufferView":0,"componentType":5126,"count":6432,"max":[8.800000190734863,16.660001754760742,6.300000190734863],"min":[-8.800000190734863,0,-6.300000190734863],"type":"VEC3"},{"bufferView":1,"componentType":5126,"count":6432,"type":"VEC3"},{"bufferView":2,"componentType":5126,"count":6432,"type":"VEC2"},{"bufferView":3,"componentType":5123,"count":8844,"type":"SCALAR"},{"bufferView":4,"componentType":5126,"count":864,"max":[9,16.770000457763672,6.499999523162842],"min":[-9,1.1100000143051147,-6.499999523162842],"type":"VEC3"},{"bufferView":5,"componentType":5126,"count":864,"type":"VEC3"},{"bufferView":6,"componentType":5126,"count":864,"type":"VEC2"},{"bufferView":7,"componentType":5123,"count":1188,"type":"SCALAR"},{"bufferView":8,"componentType":5126,"count":1824,"max":[8.15999984741211,16.39999771118164,5.650000095367432],"min":[-8.15999984741211,1.1999998092651367,-5.650000095367432],"type":"VEC3"},{"bufferView":9,"componentType":5126,"count":1824,"type":"VEC3"},{"bufferView":10,"componentType":5126,"count":1824,"type":"VEC2"},{"bufferView":11,"componentType":5123,"count":2508,"type":"SCALAR"},{"bufferView":12,"componentType":5126,"count":1248,"max":[0.7999999523162842,13.34999942779541,-2.109999895095825],"min":[-7.989999771118164,1.1999999284744263,-5.490000247955322],"type":"VEC3"},{"bufferView":13,"componentType":5126,"count":1248,"type":"VEC3"},{"bufferView":14,"componentType":5126,"count":1248,"type":"VEC2"},{"bufferView":15,"componentType":5123,"count":1716,"type":"SCALAR"},{"bufferView":16,"componentType":5126,"count":96,"max":[0.7499999403953552,3.6999998092651367,-4.420000076293945],"min":[-0.7499999403953552,1.2000000476837158,-4.539999961853027],"type":"VEC3"},{"bufferView":17,"componentType":5126,"count":96,"type":"VEC3"},{"bufferView":18,"componentType":5126,"count":96,"type":"VEC2"},{"bufferView":19,"componentType":5123,"count":132,"type":"SCALAR"}],"bufferViews":[{"buffer":0,"byteLength":77184,"byteOffset":0,"target":34962},{"buffer":0,"byteLength":77184,"byteOffset":77184,"target":34962},{"buffer":0,"byteLength":51456,"byteOffset":154368,"target":34962},{"buffer":0,"byteLength":17688,"byteOffset":205824,"target":34963},{"buffer":0,"byteLength":10368,"byteOffset":223512,"target":34962},{"buffer":0,"byteLength":10368,"byteOffset":233880,"target":34962},{"buffer":0,"byteLength":6912,"byteOffset":244248,"target":34962},{"buffer":0,"byteLength":2376,"byteOffset":251160,"target":34963},{"buffer":0,"byteLength":21888,"byteOffset":253536,"target":34962},{"buffer":0,"byteLength":21888,"byteOffset":275424,"target":34962},{"buffer":0,"byteLength":14592,"byteOffset":297312,"target":34962},{"buffer":0,"byteLength":5016,"byteOffset":311904,"target":34963},{"buffer":0,"byteLength":14976,"byteOffset":316920,"target":34962},{"buffer":0,"byteLength":14976,"byteOffset":331896,"target":34962},{"buffer":0,"byteLength":9984,"byteOffset":346872,"target":34962},{"buffer":0,"byteLength":3432,"byteOffset":356856,"target":34963},{"buffer":0,"byteLength":1152,"byteOffset":360288,"target":34962},{"buffer":0,"byteLength":1152,"byteOffset":361440,"target":34962},{"buffer":0,"byteLength":768,"byteOffset":362592,"target":34962},{"buffer":0,"byteLength":264,"byteOffset":363360,"target":34963}],"buffers":[{"byteLength":363624,"uri":"data:application/octet-stream;base64,"}]}
