{"asset":{"generator":"Khronos glTF Blender I/O v4.0.44","version":"2.0"},"scene":0,"scenes":[{"name":"Scene","nodes":[5]}],"nodes":[{"name":"crown","translation":[0,2.319999933242798,0]},{"children":[0],"name":"trunk_upper","translation":[0,2.609999895095825,0]},{"children":[1],"name":"trunk_lower"},{"name":"neutral_bone","rotation":[-0.7071067690849304,0,0,0.7071067690849304]},{"extras":{"titancraft_visual_only":true,"titancraft_collision":"none"},"mesh":0,"name":"TC_ENV_PalmSway_V1","skin":0},{"children":[4,2,3],"name":"TC_RIG_PalmSway"}],"animations":[{"channels":[{"sampler":0,"target":{"node":2,"path":"translation"}},{"sampler":1,"target":{"node":2,"path":"rotation"}},{"sampler":2,"target":{"node":2,"path":"scale"}},{"sampler":3,"target":{"node":1,"path":"translation"}},{"sampler":4,"target":{"node":1,"path":"rotation"}},{"sampler":5,"target":{"node":1,"path":"scale"}},{"sampler":6,"target":{"node":0,"path":"translation"}},{"sampler":7,"target":{"node":0,"path":"rotation"}},{"sampler":8,"target":{"node":0,"path":"scale"}}],"name":"TC_RIG_PalmSwayAction","samplers":[{"input":13,"interpolation":"STEP","output":14},{"input":15,"interpolation":"LINEAR","output":16},{"input":13,"interpolation":"STEP","output":17},{"input":13,"interpolation":"STEP","output":18},{"input":15,"interpolation":"LINEAR","output":19},{"input":13,"interpolation":"STEP","output":20},{"input":13,"interpolation":"STEP","output":21},{"input":15,"interpolation":"LINEAR","output":22},{"input":13,"interpolation":"STEP","output":23}]}],"materials":[{"doubleSided":true,"name":"TC_MAT_MotionPalmTrunk","pbrMetallicRoughness":{"baseColorFactor":[0.37647101283073425,0.32548999786376953,0.24313700199127197,1],"metallicFactor":0,"roughnessFactor":0.9200000166893005}},{"doubleSided":true,"name":"TC_MAT_MotionPalmFrond","pbrMetallicRoughness":{"baseColorFactor":[0.2784309983253479,0.34117600321769714,0.20392200350761414,1],"metallicFactor":0,"roughnessFactor":0.8799999952316284}}],"meshes":[{"name":"Cylinder","primitives":[{"attributes":{"POSITION":0,"NORMAL":1,"TEXCOORD_0":2,"JOINTS_0":3,"WEIGHTS_0":4},"indices":5,"material":0},{"attributes":{"POSITION":6,"NORMAL":7,"TEXCOORD_0":8,"JOINTS_0":9,"WEIGHTS_0":10},"indices":11,"material":1}]}],"skins":[{"inverseBindMatrices":12,"joints":[2,1,0,3],"name":"TC_RIG_PalmSway"}],"accessors":[{"bufferView":0,"componentType":5126,"count":1008,"max":[0.21650634706020355,5.909999847412109,0.24300000071525574],"min":[-0.21650634706020355,-0.029000014066696167,-0.24300000071525574],"type":"VEC3"},{"bufferView":1,"componentType":5126,"count":1008,"type":"VEC3"},{"bufferView":2,"componentType":5126,"count":1008,"type":"VEC2"},{"bufferView":3,"componentType":5121,"count":1008,"type":"VEC4"},{"bufferView":4,"componentType":5126,"count":1008,"type":"VEC4"},{"bufferView":5,"componentType":5123,"count":1428,"type":"SCALAR"},{"bufferView":6,"componentType":5126,"count":2016,"max":[1.5082036256790161,5.734915256500244,1.4939769506454468],"min":[-1.4048361778259277,3.629343032836914,-1.4939768314361572],"type":"VEC3"},{"bufferView":7,"componentType":5126,"count":2016,"type":"VEC3"},{"bufferView":8,"componentType":5126,"count":2016,"type":"VEC2"},{"bufferView":9,"componentType":5121,"count":2016,"type":"VEC4"},{"bufferView":10,"componentType":5126,"count":2016,"type":"VEC4"},{"bufferView":11,"componentType":5123,"count":2772,"type":"SCALAR"},{"bufferView":12,"componentType":5126,"count":4,"type":"MAT4"},{"bufferView":13,"componentType":5126,"count":2,"max":[5],"min":[0.041666666666666664],"type":"SCALAR"},{"bufferView":14,"componentType":5126,"count":2,"type":"VEC3"},{"bufferView":15,"componentType":5126,"count":120,"max":[5],"min":[0.041666666666666664],"type":"SCALAR"},{"bufferView":16,"componentType":5126,"count":120,"type":"VEC4"},{"bufferView":17,"componentType":5126,"count":2,"type":"VEC3"},{"bufferView":18,"componentType":5126,"count":2,"type":"VEC3"},{"bufferView":19,"componentType":5126,"count":120,"type":"VEC4"},{"bufferView":20,"componentType":5126,"count":2,"type":"VEC3"},{"bufferView":21,"componentType":5126,"count":2,"type":"VEC3"},{"bufferView":22,"componentType":5126,"count":120,"type":"VEC4"},{"bufferView":23,"componentType":5126,"count":2,"type":"VEC3"}],"bufferViews":[{"buffer":0,"byteLength":12096,"byteOffset":0,"target":34962},{"buffer":0,"byteLength":12096,"byteOffset":12096,"target":34962},{"buffer":0,"byteLength":8064,"byteOffset":24192,"target":34962},{"buffer":0,"byteLength":4032,"byteOffset":32256,"target":34962},{"buffer":0,"byteLength":16128,"byteOffset":36288,"target":34962},{"buffer":0,"byteLength":2856,"byteOffset":52416,"target":34963},{"buffer":0,"byteLength":24192,"byteOffset":55272,"target":34962},{"buffer":0,"byteLength":24192,"byteOffset":79464,"target":34962},{"buffer":0,"byteLength":16128,"byteOffset":103656,"target":34962},{"buffer":0,"byteLength":8064,"byteOffset":119784,"target":34962},{"buffer":0,"byteLength":32256,"byteOffset":127848,"target":34962},{"buffer":0,"byteLength":5544,"byteOffset":160104,"target":34963},{"buffer":0,"byteLength":256,"byteOffset":165648},{"buffer":0,"byteLength":8,"byteOffset":165904},{"buffer":0,"byteLength":24,"byteOffset":165912},{"buffer":0,"byteLength":480,"byteOffset":165936},{"buffer":0,"byteLength":1920,"byteOffset":166416},{"buffer":0,"byteLength":24,"byteOffset":168336},{"buffer":0,"byteLength":24,"byteOffset":168360},{"buffer":0,"byteLength":1920,"byteOffset":168384},{"buffer":0,"byteLength":24,"byteOffset":170304},{"buffer":0,"byteLength":24,"byteOffset":170328},{"buffer":0,"byteLength":1920,"byteOffset":170352},{"buffer":0,"byteLength":24,"byteOffset":172272}],"buffers":[{"byteLength":172296,"uri":"data:application/octet-stream;base64,"}]}
