{"asset":{"generator":"Khronos glTF Blender I/O v4.0.44","version":"2.0"},"scene":0,"scenes":[{"name":"Scene","nodes":[0]}],"nodes":[{"extras":{"titancraft_visual_only":true,"titancraft_collision":"none"},"mesh":0,"name":"TC_ENV_BeachPocket_V1"}],"materials":[{"doubleSided":true,"name":"TC_MAT_BeachSand","pbrMetallicRoughness":{"baseColorFactor":[0.7799999713897705,0.7329999804496765,0.6389999985694885,1],"metallicFactor":0,"roughnessFactor":0.9599999785423279}},{"doubleSided":true,"name":"TC_MAT_BeachWetSand","pbrMetallicRoughness":{"baseColorFactor":[0.5450000166893005,0.5090000033378601,0.44699999690055847,1],"metallicFactor":0,"roughnessFactor":0.6200000047683716}},{"doubleSided":true,"name":"TC_MAT_BeachEdgeRock","pbrMetallicRoughness":{"baseColorFactor":[0.0860000029206276,0.0820000022649765,0.07800000160932541,1],"metallicFactor":0,"roughnessFactor":0.9399999976158142}}],"meshes":[{"name":"Grid","primitives":[{"attributes":{"POSITION":0,"NORMAL":1,"TEXCOORD_0":2},"indices":3,"material":0},{"attributes":{"POSITION":4,"NORMAL":5,"TEXCOORD_0":6},"indices":7,"material":1},{"attributes":{"POSITION":8,"NORMAL":9,"TEXCOORD_0":10},"indices":11,"material":2}]}],"accessors":[{"bufferView":0,"componentType":5126,"count":704,"max":[9,0.24492695927619934,0.9999999403953552],"min":[-9,-0.387457937002182,-3],"type":"VEC3"},{"bufferView":1,"componentType":5126,"count":704,"type":"VEC3"},{"bufferView":2,"componentType":5126,"count":704,"type":"VEC2"},{"bufferView":3,"componentType":5123,"count":1056,"type":"SCALAR"},{"bufferView":4,"componentType":5126,"count":352,"max":[9,-0.36423417925834656,3],"min":[-9,-0.550000011920929,0.9999999403953552],"type":"VEC3"},{"bufferView":5,"componentType":5126,"count":352,"type":"VEC3"},{"bufferView":6,"componentType":5126,"count":352,"type":"VEC2"},{"bufferView":7,"componentType":5123,"count":528,"type":"SCALAR"},{"bufferView":8,"componentType":5126,"count":1440,"max":[8.852811813354492,1.132879376411438,2.441465377807617],"min":[-9.11977767944336,-0.8034957647323608,-3.0241281986236572],"type":"VEC3"},{"bufferView":9,"componentType":5126,"count":1440,"type":"VEC3"},{"bufferView":10,"componentType":5126,"count":1440,"type":"VEC2"},{"bufferView":11,"componentType":5123,"count":1980,"type":"SCALAR"}],"bufferViews":[{"buffer":0,"byteLength":8448,"byteOffset":0,"target":34962},{"buffer":0,"byteLength":8448,"byteOffset":8448,"target":34962},{"buffer":0,"byteLength":5632,"byteOffset":16896,"target":34962},{"buffer":0,"byteLength":2112,"byteOffset":22528,"target":34963},{"buffer":0,"byteLength":4224,"byteOffset":24640,"target":34962},{"buffer":0,"byteLength":4224,"byteOffset":28864,"target":34962},{"buffer":0,"byteLength":2816,"byteOffset":33088,"target":34962},{"buffer":0,"byteLength":1056,"byteOffset":35904,"target":34963},{"buffer":0,"byteLength":17280,"byteOffset":36960,"target":34962},{"buffer":0,"byteLength":17280,"byteOffset":54240,"target":34962},{"buffer":0,"byteLength":11520,"byteOffset":71520,"target":34962},{"buffer":0,"byteLength":3960,"byteOffset":83040,"target":34963}],"buffers":[{"byteLength":87000,"uri":"data:application/octet-stream;base64,"}]}
