{"asset":{"generator":"Khronos glTF Blender I/O v4.0.44","version":"2.0"},"scene":0,"scenes":[{"name":"Scene","nodes":[0]}],"nodes":[{"extras":{"titancraft_visual_only":true,"titancraft_collision":"none"},"mesh":0,"name":"TC_ENV_StairTerrace_V1"}],"materials":[{"doubleSided":true,"name":"TC_MAT_TerraceRender","pbrMetallicRoughness":{"baseColorFactor":[0.8588240146636963,0.8313729763031006,0.7607839703559875,1],"metallicFactor":0,"roughnessFactor":0.9200000166893005}},{"doubleSided":true,"name":"TC_MAT_TerraceStone","pbrMetallicRoughness":{"baseColorFactor":[0.5607839822769165,0.5098040103912354,0.4235289990901947,1],"metallicFactor":0,"roughnessFactor":0.9399999976158142}},{"doubleSided":true,"name":"TC_MAT_TerraceShadow","pbrMetallicRoughness":{"baseColorFactor":[0.35294100642204285,0.3176470100879669,0.2627449929714203,1],"metallicFactor":0,"roughnessFactor":0.949999988079071}}],"meshes":[{"name":"Cube","primitives":[{"attributes":{"POSITION":0,"NORMAL":1,"TEXCOORD_0":2},"indices":3,"material":0},{"attributes":{"POSITION":4,"NORMAL":5,"TEXCOORD_0":6},"indices":7,"material":1},{"attributes":{"POSITION":8,"NORMAL":9,"TEXCOORD_0":10},"indices":11,"material":2}]}],"accessors":[{"bufferView":0,"componentType":5126,"count":384,"max":[3,2.799999952316284,4.548144340515137],"min":[-3,-0.5422695875167847,-4.099999904632568],"type":"VEC3"},{"bufferView":1,"componentType":5126,"count":384,"type":"VEC3"},{"bufferView":2,"componentType":5126,"count":384,"type":"VEC2"},{"bufferView":3,"componentType":5123,"count":528,"type":"SCALAR"},{"bufferView":4,"componentType":5126,"count":768,"max":[3.1500000953674316,2.93999981880188,4.6100006103515625],"min":[-3.1500000953674316,-0.019999980926513672,-4.25],"type":"VEC3"},{"bufferView":5,"componentType":5126,"count":768,"type":"VEC3"},{"bufferView":6,"componentType":5126,"count":768,"type":"VEC2"},{"bufferView":7,"componentType":5123,"count":1056,"type":"SCALAR"},{"bufferView":8,"componentType":5126,"count":192,"max":[2.6600000858306885,2.3722569942474365,4.335350513458252],"min":[-2.6600000858306885,1.0677430629730225,0.26464951038360596],"type":"VEC3"},{"bufferView":9,"componentType":5126,"count":192,"type":"VEC3"},{"bufferView":10,"componentType":5126,"count":192,"type":"VEC2"},{"bufferView":11,"componentType":5123,"count":264,"type":"SCALAR"}],"bufferViews":[{"buffer":0,"byteLength":4608,"byteOffset":0,"target":34962},{"buffer":0,"byteLength":4608,"byteOffset":4608,"target":34962},{"buffer":0,"byteLength":3072,"byteOffset":9216,"target":34962},{"buffer":0,"byteLength":1056,"byteOffset":12288,"target":34963},{"buffer":0,"byteLength":9216,"byteOffset":13344,"target":34962},{"buffer":0,"byteLength":9216,"byteOffset":22560,"target":34962},{"buffer":0,"byteLength":6144,"byteOffset":31776,"target":34962},{"buffer":0,"byteLength":2112,"byteOffset":37920,"target":34963},{"buffer":0,"byteLength":2304,"byteOffset":40032,"target":34962},{"buffer":0,"byteLength":2304,"byteOffset":42336,"target":34962},{"buffer":0,"byteLength":1536,"byteOffset":44640,"target":34962},{"buffer":0,"byteLength":528,"byteOffset":46176,"target":34963}],"buffers":[{"byteLength":46704,"uri":"data:application/octet-stream;base64,"}]}
