{"asset":{"generator":"Khronos glTF Blender I/O v4.0.44","version":"2.0"},"scene":0,"scenes":[{"name":"Scene","nodes":[0]}],"nodes":[{"extras":{"titancraft_visual_only":true,"titancraft_collision":"none"},"mesh":0,"name":"TC_ENV_SeawallRun_V1"}],"materials":[{"doubleSided":true,"name":"TC_MAT_SeawallStone","pbrMetallicRoughness":{"baseColorFactor":[0.5607839822769165,0.5098040103912354,0.4235289990901947,1],"metallicFactor":0,"roughnessFactor":0.949999988079071}},{"doubleSided":true,"name":"TC_MAT_SeawallWet","pbrMetallicRoughness":{"baseColorFactor":[0.35294100642204285,0.3176470100879669,0.2627449929714203,1],"metallicFactor":0,"roughnessFactor":0.7200000286102295}},{"doubleSided":true,"name":"TC_MAT_SeawallBollard","pbrMetallicRoughness":{"baseColorFactor":[0.4313730001449585,0.4549019932746887,0.47058799862861633,1],"metallicFactor":0.4000000059604645,"roughnessFactor":0.699999988079071}}],"meshes":[{"name":"Cube","primitives":[{"attributes":{"POSITION":0,"NORMAL":1,"TEXCOORD_0":2},"indices":3,"material":0},{"attributes":{"POSITION":4,"NORMAL":5,"TEXCOORD_0":6},"indices":7,"material":1},{"attributes":{"POSITION":8,"NORMAL":9,"TEXCOORD_0":10},"indices":11,"material":2}]}],"accessors":[{"bufferView":0,"componentType":5126,"count":96,"max":[5,1.5,0.550000011920929],"min":[-5,0,-0.550000011920929],"type":"VEC3"},{"bufferView":1,"componentType":5126,"count":96,"type":"VEC3"},{"bufferView":2,"componentType":5126,"count":96,"type":"VEC2"},{"bufferView":3,"componentType":5123,"count":132,"type":"SCALAR"},{"bufferView":4,"componentType":5126,"count":384,"max":[5.15000057220459,1.7400000095367432,0.699999988079071],"min":[-5.15000057220459,0.10000002384185791,-0.699999988079071],"type":"VEC3"},{"bufferView":5,"componentType":5126,"count":384,"type":"VEC3"},{"bufferView":6,"componentType":5126,"count":384,"type":"VEC2"},{"bufferView":7,"componentType":5123,"count":528,"type":"SCALAR"},{"bufferView":8,"componentType":5126,"count":1536,"max":[3.4331116676330566,2.5900001525878906,0.23311172425746918],"min":[-3.6331119537353516,1.7249999046325684,-0.23311172425746918],"type":"VEC3"},{"bufferView":9,"componentType":5126,"count":1536,"type":"VEC3"},{"bufferView":10,"componentType":5126,"count":1536,"type":"VEC2"},{"bufferView":11,"componentType":5123,"count":2208,"type":"SCALAR"}],"bufferViews":[{"buffer":0,"byteLength":1152,"byteOffset":0,"target":34962},{"buffer":0,"byteLength":1152,"byteOffset":1152,"target":34962},{"buffer":0,"byteLength":768,"byteOffset":2304,"target":34962},{"buffer":0,"byteLength":264,"byteOffset":3072,"target":34963},{"buffer":0,"byteLength":4608,"byteOffset":3336,"target":34962},{"buffer":0,"byteLength":4608,"byteOffset":7944,"target":34962},{"buffer":0,"byteLength":3072,"byteOffset":12552,"target":34962},{"buffer":0,"byteLength":1056,"byteOffset":15624,"target":34963},{"buffer":0,"byteLength":18432,"byteOffset":16680,"target":34962},{"buffer":0,"byteLength":18432,"byteOffset":35112,"target":34962},{"buffer":0,"byteLength":12288,"byteOffset":53544,"target":34962},{"buffer":0,"byteLength":4416,"byteOffset":65832,"target":34963}],"buffers":[{"byteLength":70248,"uri":"data:application/octet-stream;base64,"}]}
