{"asset":{"generator":"Khronos glTF Blender I/O v4.0.44","version":"2.0"},"scene":0,"scenes":[{"name":"Scene","nodes":[0]}],"nodes":[{"extras":{"titancraft_visual_only":true,"titancraft_collision":"none"},"mesh":0,"name":"TC_ENV_CoralRubble_V1"}],"materials":[{"doubleSided":true,"name":"TC_MAT_RubbleShadow","pbrMetallicRoughness":{"baseColorFactor":[0.35294100642204285,0.3176470100879669,0.2627449929714203,1],"metallicFactor":0,"roughnessFactor":0.9700000286102295}},{"doubleSided":true,"name":"TC_MAT_RubbleStone","pbrMetallicRoughness":{"baseColorFactor":[0.5607839822769165,0.5098040103912354,0.4235289990901947,1],"metallicFactor":0,"roughnessFactor":0.9599999785423279}},{"doubleSided":true,"name":"TC_MAT_RubbleRender","pbrMetallicRoughness":{"baseColorFactor":[0.8588240146636963,0.8313729763031006,0.7607839703559875,1],"metallicFactor":0,"roughnessFactor":0.9300000071525574}},{"doubleSided":true,"name":"TC_MAT_RubbleTimber","pbrMetallicRoughness":{"baseColorFactor":[0.22352899610996246,0.1450980007648468,0.08627499639987946,1],"metallicFactor":0,"roughnessFactor":0.7799999713897705}}],"meshes":[{"name":"Cube","primitives":[{"attributes":{"POSITION":0,"NORMAL":1,"TEXCOORD_0":2},"indices":3,"material":0},{"attributes":{"POSITION":4,"NORMAL":5,"TEXCOORD_0":6},"indices":7,"material":1},{"attributes":{"POSITION":8,"NORMAL":9,"TEXCOORD_0":10},"indices":11,"material":2},{"attributes":{"POSITION":12,"NORMAL":13,"TEXCOORD_0":14},"indices":15,"material":3}]}],"accessors":[{"bufferView":0,"componentType":5126,"count":672,"max":[1.9843990802764893,0.8326588869094849,2.0075302124023438],"min":[-2.0025603771209717,-0.21146637201309204,-1.7403812408447266],"type":"VEC3"},{"bufferView":1,"componentType":5126,"count":672,"type":"VEC3"},{"bufferView":2,"componentType":5126,"count":672,"type":"VEC2"},{"bufferView":3,"componentType":5123,"count":924,"type":"SCALAR"},{"bufferView":4,"componentType":5126,"count":576,"max":[2.267957925796509,0.8804755806922913,1.5233625173568726],"min":[-2.1658248901367188,-0.16047565639019012,-1.6829569339752197],"type":"VEC3"},{"bufferView":5,"componentType":5126,"count":576,"type":"VEC3"},{"bufferView":6,"componentType":5126,"count":576,"type":"VEC2"},{"bufferView":7,"componentType":5123,"count":792,"type":"SCALAR"},{"bufferView":8,"componentType":5126,"count":192,"max":[1.8570172786712646,0.653704047203064,-0.4941793978214264],"min":[-1.058350682258606,-0.15370425581932068,-1.5458205938339233],"type":"VEC3"},{"bufferView":9,"componentType":5126,"count":192,"type":"VEC3"},{"bufferView":10,"componentType":5126,"count":192,"type":"VEC2"},{"bufferView":11,"componentType":5123,"count":264,"type":"SCALAR"},{"bufferView":12,"componentType":5126,"count":192,"max":[1.4205471277236938,1.146825909614563,1.0675634145736694],"min":[-1.2550222873687744,0.29317405819892883,-1.236329197883606],"type":"VEC3"},{"bufferView":13,"componentType":5126,"count":192,"type":"VEC3"},{"bufferView":14,"componentType":5126,"count":192,"type":"VEC2"},{"bufferView":15,"componentType":5123,"count":264,"type":"SCALAR"}],"bufferViews":[{"buffer":0,"byteLength":8064,"byteOffset":0,"target":34962},{"buffer":0,"byteLength":8064,"byteOffset":8064,"target":34962},{"buffer":0,"byteLength":5376,"byteOffset":16128,"target":34962},{"buffer":0,"byteLength":1848,"byteOffset":21504,"target":34963},{"buffer":0,"byteLength":6912,"byteOffset":23352,"target":34962},{"buffer":0,"byteLength":6912,"byteOffset":30264,"target":34962},{"buffer":0,"byteLength":4608,"byteOffset":37176,"target":34962},{"buffer":0,"byteLength":1584,"byteOffset":41784,"target":34963},{"buffer":0,"byteLength":2304,"byteOffset":43368,"target":34962},{"buffer":0,"byteLength":2304,"byteOffset":45672,"target":34962},{"buffer":0,"byteLength":1536,"byteOffset":47976,"target":34962},{"buffer":0,"byteLength":528,"byteOffset":49512,"target":34963},{"buffer":0,"byteLength":2304,"byteOffset":50040,"target":34962},{"buffer":0,"byteLength":2304,"byteOffset":52344,"target":34962},{"buffer":0,"byteLength":1536,"byteOffset":54648,"target":34962},{"buffer":0,"byteLength":528,"byteOffset":56184,"target":34963}],"buffers":[{"byteLength":56712,"uri":"data:application/octet-stream;base64,"}]}
