{"asset":{"generator":"Khronos glTF Blender I/O v4.0.44","version":"2.0"},"scene":0,"scenes":[{"name":"Scene","nodes":[0]}],"nodes":[{"extras":{"titancraft_visual_only":true,"titancraft_collision":"none"},"mesh":0,"name":"TC_ENV_HarbourSea_V1"}],"materials":[{"doubleSided":true,"name":"TC_MAT_HarbourWater","pbrMetallicRoughness":{"baseColorFactor":[0.0430000014603138,0.1289999932050705,0.18400000035762787,1],"metallicFactor":0,"roughnessFactor":0.07999999821186066}}],"meshes":[{"name":"Grid","primitives":[{"attributes":{"POSITION":0,"NORMAL":1,"TEXCOORD_0":2},"indices":3,"material":0}]}],"accessors":[{"bufferView":0,"componentType":5126,"count":3984,"max":[70,0.1437387615442276,60],"min":[-70,-0.1437557488679886,-60],"type":"VEC3"},{"bufferView":1,"componentType":5126,"count":3984,"type":"VEC3"},{"bufferView":2,"componentType":5126,"count":3984,"type":"VEC2"},{"bufferView":3,"componentType":5123,"count":6480,"type":"SCALAR"}],"bufferViews":[{"buffer":0,"byteLength":47808,"byteOffset":0,"target":34962},{"buffer":0,"byteLength":47808,"byteOffset":47808,"target":34962},{"buffer":0,"byteLength":31872,"byteOffset":95616,"target":34962},{"buffer":0,"byteLength":12960,"byteOffset":127488,"target":34963}],"buffers":[{"byteLength":140448,"uri":"data:application/octet-stream;base64,"}]}
