{
  "asset": {
    "version": "2.0",
    "generator": "TitanCraft V1 beta procedural asset manifest"
  },
  "scene": 0,
  "scenes": [
    {
      "nodes": [
        0
      ]
    }
  ],
  "nodes": [
    {
      "name": "TC_ENV_CrashDebris_A_01",
      "mesh": 0
    }
  ],
  "meshes": [
    {
      "name": "TC_ENV_CrashDebris_A_01",
      "primitives": [
        {
          "attributes": {
            "POSITION": 0
          },
          "indices": 1,
          "material": 0
        }
      ]
    }
  ],
  "materials": [
    {
      "name": "TC_ENV_CrashDebris_A_01_MAT",
      "pbrMetallicRoughness": {
        "baseColorFactor": [
          0.86,
          0.82,
          0.72,
          1
        ],
        "metallicFactor": 0.1,
        "roughnessFactor": 0.75
      }
    }
  ],
  "buffers": [
    {
      "uri": "data:application/octet-stream;base64,",
      "byteLength": 168
    }
  ],
  "bufferViews": [
    {
      "buffer": 0,
      "byteOffset": 0,
      "byteLength": 96,
      "target": 34962
    },
    {
      "buffer": 0,
      "byteOffset": 96,
      "byteLength": 72,
      "target": 34963
    }
  ],
  "accessors": [
    {
      "bufferView": 0,
      "componentType": 5126,
      "count": 8,
      "type": "VEC3",
      "min": [
        -0.5,
        -0.5,
        -0.5
      ],
      "max": [
        0.5,
        0.5,
        0.5
      ]
    },
    {
      "bufferView": 1,
      "componentType": 5123,
      "count": 36,
      "type": "SCALAR"
    }
  ]
}