{"asset":{"generator":"Khronos glTF Blender I/O v4.0.44","version":"2.0"},"extensionsUsed":["KHR_materials_emissive_strength"],"scene":0,"scenes":[{"name":"Scene","nodes":[0,1,2,3,4,5,6,7,8,9,10,11,12,13,14,15,16,17,18,19,20,21,22,23]}],"nodes":[{"extras":{"titancraft_visual_only":true,"titancraft_collision":"none"},"mesh":0,"name":"TC_Scout_Torso"},{"extras":{"titancraft_visual_only":true,"titancraft_collision":"none"},"mesh":1,"name":"TC_Scout_PlateTop"},{"extras":{"titancraft_visual_only":true,"titancraft_collision":"none"},"mesh":2,"name":"TC_Scout_PlateBack"},{"extras":{"titancraft_visual_only":true,"titancraft_collision":"none"},"mesh":3,"name":"TC_Scout_Neck"},{"extras":{"titancraft_visual_only":true,"titancraft_collision":"none"},"mesh":4,"name":"TC_Scout_Head"},{"extras":{"titancraft_visual_only":true,"titancraft_collision":"none"},"mesh":5,"name":"TC_Scout_Braincase"},{"extras":{"titancraft_visual_only":true,"titancraft_collision":"none"},"mesh":6,"name":"TC_Scout_EyeSlit"},{"extras":{"titancraft_visual_only":true,"titancraft_collision":"none"},"mesh":7,"name":"TC_Scout_Core"},{"extras":{"titancraft_visual_only":true,"titancraft_collision":"none"},"mesh":8,"name":"TC_Scout_LegUpper_0"},{"extras":{"titancraft_visual_only":true,"titancraft_collision":"none"},"mesh":9,"name":"TC_Scout_Knee_0"},{"extras":{"titancraft_visual_only":true,"titancraft_collision":"none"},"mesh":10,"name":"TC_Scout_LegLower_0"},{"extras":{"titancraft_visual_only":true,"titancraft_collision":"none"},"mesh":11,"name":"TC_Scout_LegGlow_0"},{"extras":{"titancraft_visual_only":true,"titancraft_collision":"none"},"mesh":12,"name":"TC_Scout_LegUpper_1"},{"extras":{"titancraft_visual_only":true,"titancraft_collision":"none"},"mesh":13,"name":"TC_Scout_Knee_1"},{"extras":{"titancraft_visual_only":true,"titancraft_collision":"none"},"mesh":14,"name":"TC_Scout_LegLower_1"},{"extras":{"titancraft_visual_only":true,"titancraft_collision":"none"},"mesh":15,"name":"TC_Scout_LegGlow_1"},{"extras":{"titancraft_visual_only":true,"titancraft_collision":"none"},"mesh":16,"name":"TC_Scout_LegUpper_2"},{"extras":{"titancraft_visual_only":true,"titancraft_collision":"none"},"mesh":17,"name":"TC_Scout_Knee_2"},{"extras":{"titancraft_visual_only":true,"titancraft_collision":"none"},"mesh":18,"name":"TC_Scout_LegLower_2"},{"extras":{"titancraft_visual_only":true,"titancraft_collision":"none"},"mesh":19,"name":"TC_Scout_LegGlow_2"},{"extras":{"titancraft_visual_only":true,"titancraft_collision":"none"},"mesh":20,"name":"TC_Scout_LegUpper_3"},{"extras":{"titancraft_visual_only":true,"titancraft_collision":"none"},"mesh":21,"name":"TC_Scout_Knee_3"},{"extras":{"titancraft_visual_only":true,"titancraft_collision":"none"},"mesh":22,"name":"TC_Scout_LegLower_3"},{"extras":{"titancraft_visual_only":true,"titancraft_collision":"none"},"mesh":23,"name":"TC_Scout_LegGlow_3"}],"materials":[{"doubleSided":true,"name":"TC_MVP_AlienCarbon","pbrMetallicRoughness":{"baseColorFactor":[0.029999999329447746,0.03200000151991844,0.03999999910593033,1],"metallicFactor":0.550000011920929,"roughnessFactor":0.3799999952316284}},{"doubleSided":true,"name":"TC_MVP_AlienPlate","pbrMetallicRoughness":{"baseColorFactor":[0.08500000089406967,0.09000000357627869,0.10499999672174454,1],"metallicFactor":0.6499999761581421,"roughnessFactor":0.44999998807907104}},{"doubleSided":true,"emissiveFactor":[0.47999998927116394,0.18000000715255737,1],"extensions":{"KHR_materials_emissive_strength":{"emissiveStrength":1.399999976158142}},"name":"TC_MVP_PurpleCrystal","pbrMetallicRoughness":{"baseColorFactor":[0.2199999988079071,0.07999999821186066,0.41999998688697815,1],"metallicFactor":0,"roughnessFactor":0.2199999988079071}},{"doubleSided":true,"emissiveFactor":[0.47999998927116394,0.18000000715255737,1],"extensions":{"KHR_materials_emissive_strength":{"emissiveStrength":7}},"name":"TC_MVP_PurpleGlow","pbrMetallicRoughness":{"baseColorFactor":[0.009999999776482582,0,0.029999999329447746,1],"metallicFactor":0,"roughnessFactor":0.30000001192092896}},{"doubleSided":true,"name":"TC_MVP_AlienCarbon","pbrMetallicRoughness":{"baseColorFactor":[0.029999999329447746,0.03200000151991844,0.03999999910593033,1],"metallicFactor":0.550000011920929,"roughnessFactor":0.3799999952316284}}],"meshes":[{"name":"Icosphere","primitives":[{"attributes":{"POSITION":0,"NORMAL":1,"TEXCOORD_0":2},"indices":3,"material":0}]},{"name":"Cube","primitives":[{"attributes":{"POSITION":4,"NORMAL":5,"TEXCOORD_0":6},"indices":7,"material":1}]},{"name":"Cube.001","primitives":[{"attributes":{"POSITION":8,"NORMAL":9,"TEXCOORD_0":10},"indices":11,"material":1}]},{"name":"Cone","primitives":[{"attributes":{"POSITION":12,"NORMAL":13,"TEXCOORD_0":14},"indices":15,"material":1}]},{"name":"Icosphere.001","primitives":[{"attributes":{"POSITION":16,"NORMAL":17,"TEXCOORD_0":18},"indices":19,"material":0}]},{"name":"Icosphere.002","primitives":[{"attributes":{"POSITION":20,"NORMAL":21,"TEXCOORD_0":22},"indices":23,"material":2}]},{"name":"Cube.002","primitives":[{"attributes":{"POSITION":24,"NORMAL":25,"TEXCOORD_0":26},"indices":27,"material":3}]},{"name":"Icosphere.003","primitives":[{"attributes":{"POSITION":28,"NORMAL":29,"TEXCOORD_0":30},"indices":31,"material":3}]},{"name":"Cone.001","primitives":[{"attributes":{"POSITION":32,"NORMAL":33,"TEXCOORD_0":34},"indices":35,"material":1}]},{"name":"Icosphere.004","primitives":[{"attributes":{"POSITION":36,"NORMAL":37,"TEXCOORD_0":38},"indices":31,"material":0}]},{"name":"Cone.002","primitives":[{"attributes":{"POSITION":39,"NORMAL":40,"TEXCOORD_0":41},"indices":42,"material":4}]},{"name":"Cone.003","primitives":[{"attributes":{"POSITION":43,"NORMAL":44,"TEXCOORD_0":45},"indices":46,"material":3}]},{"name":"Cone.004","primitives":[{"attributes":{"POSITION":47,"NORMAL":48,"TEXCOORD_0":49},"indices":50,"material":1}]},{"name":"Icosphere.005","primitives":[{"attributes":{"POSITION":51,"NORMAL":52,"TEXCOORD_0":53},"indices":31,"material":0}]},{"name":"Cone.005","primitives":[{"attributes":{"POSITION":54,"NORMAL":55,"TEXCOORD_0":56},"indices":57,"material":4}]},{"name":"Cone.006","primitives":[{"attributes":{"POSITION":58,"NORMAL":59,"TEXCOORD_0":60},"indices":61,"material":3}]},{"name":"Cone.007","primitives":[{"attributes":{"POSITION":62,"NORMAL":63,"TEXCOORD_0":64},"indices":65,"material":1}]},{"name":"Icosphere.006","primitives":[{"attributes":{"POSITION":66,"NORMAL":67,"TEXCOORD_0":68},"indices":31,"material":0}]},{"name":"Cone.008","primitives":[{"attributes":{"POSITION":69,"NORMAL":70,"TEXCOORD_0":71},"indices":72,"material":4}]},{"name":"Cone.009","primitives":[{"attributes":{"POSITION":73,"NORMAL":74,"TEXCOORD_0":75},"indices":76,"material":3}]},{"name":"Cone.010","primitives":[{"attributes":{"POSITION":77,"NORMAL":78,"TEXCOORD_0":79},"indices":80,"material":1}]},{"name":"Icosphere.007","primitives":[{"attributes":{"POSITION":81,"NORMAL":82,"TEXCOORD_0":83},"indices":31,"material":0}]},{"name":"Cone.011","primitives":[{"attributes":{"POSITION":84,"NORMAL":85,"TEXCOORD_0":86},"indices":87,"material":4}]},{"name":"Cone.012","primitives":[{"attributes":{"POSITION":88,"NORMAL":89,"TEXCOORD_0":90},"indices":91,"material":3}]}],"accessors":[{"bufferView":0,"componentType":5126,"count":60,"max":[0.3828624486923218,1.3659980297088623,0.25610053539276123],"min":[-0.3858323395252228,0.8488843441009521,-0.2575370967388153],"type":"VEC3"},{"bufferView":1,"componentType":5126,"count":60,"type":"VEC3"},{"bufferView":2,"componentType":5126,"count":60,"type":"VEC2"},{"bufferView":3,"componentType":5123,"count":60,"type":"SCALAR"},{"bufferView":4,"componentType":5126,"count":96,"max":[0.29408901929855347,1.4702048301696777,0.20999999344348907],"min":[-0.25408899784088135,1.2497951984405518,-0.20999999344348907],"type":"VEC3"},{"bufferView":5,"componentType":5126,"count":96,"type":"VEC3"},{"bufferView":6,"componentType":5126,"count":96,"type":"VEC2"},{"bufferView":7,"componentType":5123,"count":132,"type":"SCALAR"},{"bufferView":8,"componentType":5126,"count":96,"max":[-0.1266798973083496,1.339740514755249,0.23999999463558197],"min":[-0.4733201265335083,0.9802594780921936,-0.23999999463558197],"type":"VEC3"},{"bufferView":9,"componentType":5126,"count":96,"type":"VEC3"},{"bufferView":10,"componentType":5126,"count":96,"type":"VEC2"},{"bufferView":11,"componentType":5123,"count":132,"type":"SCALAR"},{"bufferView":12,"componentType":5126,"count":96,"max":[0.6417732238769531,1.3858212232589722,0.09343398362398148],"min":[0.26033827662467957,1.0999966859817505,-0.09343396872282028],"type":"VEC3"},{"bufferView":13,"componentType":5126,"count":96,"type":"VEC3"},{"bufferView":14,"componentType":5126,"count":96,"type":"VEC2"},{"bufferView":15,"componentType":5123,"count":132,"type":"SCALAR"},{"bufferView":16,"componentType":5126,"count":60,"max":[0.8999373912811279,1.4990804195404053,0.12292453646659851],"min":[0.5256233215332031,1.225058674812317,-0.11686914414167404],"type":"VEC3"},{"bufferView":17,"componentType":5126,"count":60,"type":"VEC3"},{"bufferView":18,"componentType":5126,"count":60,"type":"VEC2"},{"bufferView":19,"componentType":5123,"count":60,"type":"SCALAR"},{"bufferView":20,"componentType":5126,"count":60,"max":[0.841132640838623,1.5255521535873413,0.06267092376947403],"min":[0.6837316155433655,1.3481824398040771,-0.06358057260513306],"type":"VEC3"},{"bufferView":21,"componentType":5126,"count":60,"type":"VEC3"},{"bufferView":22,"componentType":5126,"count":60,"type":"VEC2"},{"bufferView":23,"componentType":5123,"count":60,"type":"SCALAR"},{"bufferView":24,"componentType":5126,"count":24,"max":[0.8877675533294678,1.3702967166900635,0.07000000029802322],"min":[0.8322324752807617,1.3297033309936523,-0.07000000029802322],"type":"VEC3"},{"bufferView":25,"componentType":5126,"count":24,"type":"VEC3"},{"bufferView":26,"componentType":5126,"count":24,"type":"VEC2"},{"bufferView":27,"componentType":5123,"count":36,"type":"SCALAR"},{"bufferView":28,"componentType":5126,"count":60,"max":[0.33870938420295715,1.1410000324249268,0.07485632598400116],"min":[0.18129059672355652,0.8989999890327454,-0.07485632598400116],"type":"VEC3"},{"bufferView":29,"componentType":5126,"count":60,"type":"VEC3"},{"bufferView":30,"componentType":5126,"count":60,"type":"VEC2"},{"bufferView":31,"componentType":5123,"count":60,"type":"SCALAR"},{"bufferView":32,"componentType":5126,"count":96,"max":[0.5742629170417786,1.6415042877197266,-0.21801254153251648],"min":[0.14272090792655945,1.0175888538360596,-0.6975700259208679],"type":"VEC3"},{"bufferView":33,"componentType":5126,"count":96,"type":"VEC3"},{"bufferView":34,"componentType":5126,"count":96,"type":"VEC2"},{"bufferView":35,"componentType":5123,"count":132,"type":"SCALAR"},{"bufferView":36,"componentType":5126,"count":60,"max":[0.6089792251586914,1.690000057220459,-0.6145743131637573],"min":[0.4837597608566284,1.5499999523162842,-0.7336639165878296],"type":"VEC3"},{"bufferView":37,"componentType":5126,"count":60,"type":"VEC3"},{"bufferView":38,"componentType":5126,"count":60,"type":"VEC2"},{"bufferView":39,"componentType":5126,"count":96,"max":[0.7456896305084229,1.6233049631118774,-0.6472326517105103],"min":[0.5147836804389954,5.8498699218034744e-08,-0.9097558259963989],"type":"VEC3"},{"bufferView":40,"componentType":5126,"count":96,"type":"VEC3"},{"bufferView":41,"componentType":5126,"count":96,"type":"VEC2"},{"bufferView":42,"componentType":5123,"count":132,"type":"SCALAR"},{"bufferView":43,"componentType":5126,"count":24,"max":[0.5524510741233826,1.6456785202026367,-0.45429328083992004],"min":[0.3543989360332489,1.3558038473129272,-0.6793166995048523],"type":"VEC3"},{"bufferView":44,"componentType":5126,"count":24,"type":"VEC3"},{"bufferView":45,"componentType":5126,"count":24,"type":"VEC2"},{"bufferView":46,"componentType":5123,"count":36,"type":"SCALAR"},{"bufferView":47,"componentType":5126,"count":96,"max":[-0.14272095263004303,1.6415042877197266,-0.2180125117301941],"min":[-0.5742628574371338,1.0175888538360596,-0.6975700259208679],"type":"VEC3"},{"bufferView":48,"componentType":5126,"count":96,"type":"VEC3"},{"bufferView":49,"componentType":5126,"count":96,"type":"VEC2"},{"bufferView":50,"componentType":5123,"count":132,"type":"SCALAR"},{"bufferView":51,"componentType":5126,"count":60,"max":[-0.4837597608566284,1.690000057220459,-0.6145743131637573],"min":[-0.6089792251586914,1.5499999523162842,-0.7336639165878296],"type":"VEC3"},{"bufferView":52,"componentType":5126,"count":60,"type":"VEC3"},{"bufferView":53,"componentType":5126,"count":60,"type":"VEC2"},{"bufferView":54,"componentType":5126,"count":96,"max":[-0.5147836804389954,1.6233049631118774,-0.6472326517105103],"min":[-0.7456895709037781,5.797483026981354e-08,-0.9097557663917542],"type":"VEC3"},{"bufferView":55,"componentType":5126,"count":96,"type":"VEC3"},{"bufferView":56,"componentType":5126,"count":96,"type":"VEC2"},{"bufferView":57,"componentType":5123,"count":132,"type":"SCALAR"},{"bufferView":58,"componentType":5126,"count":24,"max":[-0.3543989360332489,1.6456785202026367,-0.45429328083992004],"min":[-0.5524510741233826,1.3558038473129272,-0.6793166995048523],"type":"VEC3"},{"bufferView":59,"componentType":5126,"count":24,"type":"VEC3"},{"bufferView":60,"componentType":5126,"count":24,"type":"VEC2"},{"bufferView":61,"componentType":5123,"count":36,"type":"SCALAR"},{"bufferView":62,"componentType":5126,"count":96,"max":[-0.14272086322307587,1.6415042877197266,0.6975699663162231],"min":[-0.5742629170417786,1.0175888538360596,0.21801257133483887],"type":"VEC3"},{"bufferView":63,"componentType":5126,"count":96,"type":"VEC3"},{"bufferView":64,"componentType":5126,"count":96,"type":"VEC2"},{"bufferView":65,"componentType":5123,"count":132,"type":"SCALAR"},{"bufferView":66,"componentType":5126,"count":60,"max":[-0.4837597608566284,1.690000057220459,0.7336639165878296],"min":[-0.6089792251586914,1.5499999523162842,0.6145743131637573],"type":"VEC3"},{"bufferView":67,"componentType":5126,"count":60,"type":"VEC3"},{"bufferView":68,"componentType":5126,"count":60,"type":"VEC2"},{"bufferView":69,"componentType":5126,"count":96,"max":[-0.5147836208343506,1.6233049631118774,0.909755527973175],"min":[-0.7456896305084229,-2.6193447411060333e-09,0.6472330093383789],"type":"VEC3"},{"bufferView":70,"componentType":5126,"count":96,"type":"VEC3"},{"bufferView":71,"componentType":5126,"count":96,"type":"VEC2"},{"bufferView":72,"componentType":5123,"count":132,"type":"SCALAR"},{"bufferView":73,"componentType":5126,"count":24,"max":[-0.3543989658355713,1.6456785202026367,0.6793166995048523],"min":[-0.5524510145187378,1.3558037281036377,0.45429328083992004],"type":"VEC3"},{"bufferView":74,"componentType":5126,"count":24,"type":"VEC3"},{"bufferView":75,"componentType":5126,"count":24,"type":"VEC2"},{"bufferView":76,"componentType":5123,"count":36,"type":"SCALAR"},{"bufferView":77,"componentType":5126,"count":96,"max":[0.5742629170417786,1.6415042877197266,0.6975699663162231],"min":[0.14272092282772064,1.0175888538360596,0.21801254153251648],"type":"VEC3"},{"bufferView":78,"componentType":5126,"count":96,"type":"VEC3"},{"bufferView":79,"componentType":5126,"count":96,"type":"VEC2"},{"bufferView":80,"componentType":5123,"count":132,"type":"SCALAR"},{"bufferView":81,"componentType":5126,"count":60,"max":[0.6089792251586914,1.690000057220459,0.7336639165878296],"min":[0.4837597608566284,1.5499999523162842,0.6145743131637573],"type":"VEC3"},{"bufferView":82,"componentType":5126,"count":60,"type":"VEC3"},{"bufferView":83,"componentType":5126,"count":60,"type":"VEC2"},{"bufferView":84,"componentType":5126,"count":96,"max":[0.7456896305084229,1.6233049631118774,0.9097554683685303],"min":[0.5147836208343506,-3.841705620288849e-09,0.6472330093383789],"type":"VEC3"},{"bufferView":85,"componentType":5126,"count":96,"type":"VEC3"},{"bufferView":86,"componentType":5126,"count":96,"type":"VEC2"},{"bufferView":87,"componentType":5123,"count":132,"type":"SCALAR"},{"bufferView":88,"componentType":5126,"count":24,"max":[0.5524510145187378,1.6456785202026367,0.6793166995048523],"min":[0.3543989658355713,1.3558037281036377,0.45429328083992004],"type":"VEC3"},{"bufferView":89,"componentType":5126,"count":24,"type":"VEC3"},{"bufferView":90,"componentType":5126,"count":24,"type":"VEC2"},{"bufferView":91,"componentType":5123,"count":36,"type":"SCALAR"}],"bufferViews":[{"buffer":0,"byteLength":720,"byteOffset":0,"target":34962},{"buffer":0,"byteLength":720,"byteOffset":720,"target":34962},{"buffer":0,"byteLength":480,"byteOffset":1440,"target":34962},{"buffer":0,"byteLength":120,"byteOffset":1920,"target":34963},{"buffer":0,"byteLength":1152,"byteOffset":2040,"target":34962},{"buffer":0,"byteLength":1152,"byteOffset":3192,"target":34962},{"buffer":0,"byteLength":768,"byteOffset":4344,"target":34962},{"buffer":0,"byteLength":264,"byteOffset":5112,"target":34963},{"buffer":0,"byteLength":1152,"byteOffset":5376,"target":34962},{"buffer":0,"byteLength":1152,"byteOffset":6528,"target":34962},{"buffer":0,"byteLength":768,"byteOffset":7680,"target":34962},{"buffer":0,"byteLength":264,"byteOffset":8448,"target":34963},{"buffer":0,"byteLength":1152,"byteOffset":8712,"target":34962},{"buffer":0,"byteLength":1152,"byteOffset":9864,"target":34962},{"buffer":0,"byteLength":768,"byteOffset":11016,"target":34962},{"buffer":0,"byteLength":264,"byteOffset":11784,"target":34963},{"buffer":0,"byteLength":720,"byteOffset":12048,"target":34962},{"buffer":0,"byteLength":720,"byteOffset":12768,"target":34962},{"buffer":0,"byteLength":480,"byteOffset":13488,"target":34962},{"buffer":0,"byteLength":120,"byteOffset":13968,"target":34963},{"buffer":0,"byteLength":720,"byteOffset":14088,"target":34962},{"buffer":0,"byteLength":720,"byteOffset":14808,"target":34962},{"buffer":0,"byteLength":480,"byteOffset":15528,"target":34962},{"buffer":0,"byteLength":120,"byteOffset":16008,"target":34963},{"buffer":0,"byteLength":288,"byteOffset":16128,"target":34962},{"buffer":0,"byteLength":288,"byteOffset":16416,"target":34962},{"buffer":0,"byteLength":192,"byteOffset":16704,"target":34962},{"buffer":0,"byteLength":72,"byteOffset":16896,"target":34963},{"buffer":0,"byteLength":720,"byteOffset":16968,"target":34962},{"buffer":0,"byteLength":720,"byteOffset":17688,"target":34962},{"buffer":0,"byteLength":480,"byteOffset":18408,"target":34962},{"buffer":0,"byteLength":120,"byteOffset":18888,"target":34963},{"buffer":0,"byteLength":1152,"byteOffset":19008,"target":34962},{"buffer":0,"byteLength":1152,"byteOffset":20160,"target":34962},{"buffer":0,"byteLength":768,"byteOffset":21312,"target":34962},{"buffer":0,"byteLength":264,"byteOffset":22080,"target":34963},{"buffer":0,"byteLength":720,"byteOffset":22344,"target":34962},{"buffer":0,"byteLength":720,"byteOffset":23064,"target":34962},{"buffer":0,"byteLength":480,"byteOffset":23784,"target":34962},{"buffer":0,"byteLength":1152,"byteOffset":24264,"target":34962},{"buffer":0,"byteLength":1152,"byteOffset":25416,"target":34962},{"buffer":0,"byteLength":768,"byteOffset":26568,"target":34962},{"buffer":0,"byteLength":264,"byteOffset":27336,"target":34963},{"buffer":0,"byteLength":288,"byteOffset":27600,"target":34962},{"buffer":0,"byteLength":288,"byteOffset":27888,"target":34962},{"buffer":0,"byteLength":192,"byteOffset":28176,"target":34962},{"buffer":0,"byteLength":72,"byteOffset":28368,"target":34963},{"buffer":0,"byteLength":1152,"byteOffset":28440,"target":34962},{"buffer":0,"byteLength":1152,"byteOffset":29592,"target":34962},{"buffer":0,"byteLength":768,"byteOffset":30744,"target":34962},{"buffer":0,"byteLength":264,"byteOffset":31512,"target":34963},{"buffer":0,"byteLength":720,"byteOffset":31776,"target":34962},{"buffer":0,"byteLength":720,"byteOffset":32496,"target":34962},{"buffer":0,"byteLength":480,"byteOffset":33216,"target":34962},{"buffer":0,"byteLength":1152,"byteOffset":33696,"target":34962},{"buffer":0,"byteLength":1152,"byteOffset":34848,"target":34962},{"buffer":0,"byteLength":768,"byteOffset":36000,"target":34962},{"buffer":0,"byteLength":264,"byteOffset":36768,"target":34963},{"buffer":0,"byteLength":288,"byteOffset":37032,"target":34962},{"buffer":0,"byteLength":288,"byteOffset":37320,"target":34962},{"buffer":0,"byteLength":192,"byteOffset":37608,"target":34962},{"buffer":0,"byteLength":72,"byteOffset":37800,"target":34963},{"buffer":0,"byteLength":1152,"byteOffset":37872,"target":34962},{"buffer":0,"byteLength":1152,"byteOffset":39024,"target":34962},{"buffer":0,"byteLength":768,"byteOffset":40176,"target":34962},{"buffer":0,"byteLength":264,"byteOffset":40944,"target":34963},{"buffer":0,"byteLength":720,"byteOffset":41208,"target":34962},{"buffer":0,"byteLength":720,"byteOffset":41928,"target":34962},{"buffer":0,"byteLength":480,"byteOffset":42648,"target":34962},{"buffer":0,"byteLength":1152,"byteOffset":43128,"target":34962},{"buffer":0,"byteLength":1152,"byteOffset":44280,"target":34962},{"buffer":0,"byteLength":768,"byteOffset":45432,"target":34962},{"buffer":0,"byteLength":264,"byteOffset":46200,"target":34963},{"buffer":0,"byteLength":288,"byteOffset":46464,"target":34962},{"buffer":0,"byteLength":288,"byteOffset":46752,"target":34962},{"buffer":0,"byteLength":192,"byteOffset":47040,"target":34962},{"buffer":0,"byteLength":72,"byteOffset":47232,"target":34963},{"buffer":0,"byteLength":1152,"byteOffset":47304,"target":34962},{"buffer":0,"byteLength":1152,"byteOffset":48456,"target":34962},{"buffer":0,"byteLength":768,"byteOffset":49608,"target":34962},{"buffer":0,"byteLength":264,"byteOffset":50376,"target":34963},{"buffer":0,"byteLength":720,"byteOffset":50640,"target":34962},{"buffer":0,"byteLength":720,"byteOffset":51360,"target":34962},{"buffer":0,"byteLength":480,"byteOffset":52080,"target":34962},{"buffer":0,"byteLength":1152,"byteOffset":52560,"target":34962},{"buffer":0,"byteLength":1152,"byteOffset":53712,"target":34962},{"buffer":0,"byteLength":768,"byteOffset":54864,"target":34962},{"buffer":0,"byteLength":264,"byteOffset":55632,"target":34963},{"buffer":0,"byteLength":288,"byteOffset":55896,"target":34962},{"buffer":0,"byteLength":288,"byteOffset":56184,"target":34962},{"buffer":0,"byteLength":192,"byteOffset":56472,"target":34962},{"buffer":0,"byteLength":72,"byteOffset":56664,"target":34963}],"buffers":[{"byteLength":56736,"uri":"data:application/octet-stream;base64,"}]}
