{"asset":{"generator":"Khronos glTF Blender I/O v4.0.44","version":"2.0"},"scene":0,"scenes":[{"name":"Scene","nodes":[0]}],"nodes":[{"extras":{"titancraft_visual_only":true,"titancraft_collision":"none"},"mesh":0,"name":"TC_ENV_CableOccluder_V1"}],"materials":[{"doubleSided":true,"name":"TC_MAT_CableAnchor","pbrMetallicRoughness":{"baseColorFactor":[0.1450980007648468,0.1647060066461563,0.18823499977588654,1],"metallicFactor":0.20000000298023224,"roughnessFactor":0.8500000238418579}},{"doubleSided":true,"name":"TC_MAT_Cable","pbrMetallicRoughness":{"baseColorFactor":[0.05999999865889549,0.06499999761581421,0.07500000298023224,1],"metallicFactor":0.10000000149011612,"roughnessFactor":0.8999999761581421}}],"meshes":[{"name":"Cube","primitives":[{"attributes":{"POSITION":0,"NORMAL":1,"TEXCOORD_0":2},"indices":3,"material":0},{"attributes":{"POSITION":4,"NORMAL":5,"TEXCOORD_0":6},"indices":7,"material":1}]}],"accessors":[{"bufferView":0,"componentType":5126,"count":48,"max":[1.950000286102295,0.550000011920929,0.15000000596046448],"min":[-1.9499999284744263,0,-0.15000000596046448],"type":"VEC3"},{"bufferView":1,"componentType":5126,"count":48,"type":"VEC3"},{"bufferView":2,"componentType":5126,"count":48,"type":"VEC2"},{"bufferView":3,"componentType":5123,"count":72,"type":"SCALAR"},{"bufferView":4,"componentType":5126,"count":420,"max":[1.8278870582580566,0.5314825177192688,0.07265248149633408],"min":[-1.8278870582580566,0.17648816108703613,-0.07800000160932541],"type":"VEC3"},{"bufferView":5,"componentType":5126,"count":420,"type":"VEC3"},{"bufferView":6,"componentType":5126,"count":420,"type":"VEC2"},{"bufferView":7,"componentType":5123,"count":672,"type":"SCALAR"}],"bufferViews":[{"buffer":0,"byteLength":576,"byteOffset":0,"target":34962},{"buffer":0,"byteLength":576,"byteOffset":576,"target":34962},{"buffer":0,"byteLength":384,"byteOffset":1152,"target":34962},{"buffer":0,"byteLength":144,"byteOffset":1536,"target":34963},{"buffer":0,"byteLength":5040,"byteOffset":1680,"target":34962},{"buffer":0,"byteLength":5040,"byteOffset":6720,"target":34962},{"buffer":0,"byteLength":3360,"byteOffset":11760,"target":34962},{"buffer":0,"byteLength":1344,"byteOffset":15120,"target":34963}],"buffers":[{"byteLength":16464,"uri":"data:application/octet-stream;base64,"}]}
