{"asset":{"generator":"Khronos glTF Blender I/O v4.0.44","version":"2.0"},"extensionsUsed":["KHR_materials_emissive_strength"],"scene":0,"scenes":[{"name":"Scene","nodes":[0]}],"nodes":[{"extras":{"titancraft_visual_only":true,"titancraft_collision":"none"},"mesh":0,"name":"TC_ENV_AlienShard_Small_V1"}],"materials":[{"doubleSided":true,"emissiveFactor":[0.5041316012635164,0.2603306518299245,1],"extensions":{"KHR_materials_emissive_strength":{"emissiveStrength":1.138824078989984}},"name":"TC_MAT_AlienShard_Violet","pbrMetallicRoughness":{"baseColorFactor":[0.47843098640441895,0.24705900251865387,0.9490200281143188,1],"metallicFactor":0.10000000149011612,"roughnessFactor":0.3499999940395355}}],"meshes":[{"name":"Cone","primitives":[{"attributes":{"POSITION":0,"NORMAL":1,"TEXCOORD_0":2},"indices":3,"material":0}]}],"accessors":[{"bufferView":0,"componentType":5126,"count":30,"max":[0.19135060906410217,1.0342302322387695,0.23860207200050354],"min":[-0.1873641312122345,-0.06276941299438477,-0.1897963434457779],"type":"VEC3"},{"bufferView":1,"componentType":5126,"count":30,"type":"VEC3"},{"bufferView":2,"componentType":5126,"count":30,"type":"VEC2"},{"bufferView":3,"componentType":5123,"count":48,"type":"SCALAR"}],"bufferViews":[{"buffer":0,"byteLength":360,"byteOffset":0,"target":34962},{"buffer":0,"byteLength":360,"byteOffset":360,"target":34962},{"buffer":0,"byteLength":240,"byteOffset":720,"target":34962},{"buffer":0,"byteLength":96,"byteOffset":960,"target":34963}],"buffers":[{"byteLength":1056,"uri":"data:application/octet-stream;base64,"}]}
