{"asset":{"generator":"Khronos glTF Blender I/O v4.0.44","version":"2.0"},"extensionsUsed":["KHR_materials_emissive_strength"],"scene":0,"scenes":[{"name":"Scene","nodes":[0]}],"nodes":[{"extras":{"titancraft_visual_only":true,"titancraft_collision":"none"},"mesh":0,"name":"TC_ENV_AlienShard_EmbeddedCluster_V1"}],"materials":[{"doubleSided":true,"emissiveFactor":[0.5041316012635164,0.2603306518299245,1],"extensions":{"KHR_materials_emissive_strength":{"emissiveStrength":1.138824078989984}},"name":"TC_MAT_AlienShard_Violet","pbrMetallicRoughness":{"baseColorFactor":[0.47843098640441895,0.24705900251865387,0.9490200281143188,1],"metallicFactor":0.10000000149011612,"roughnessFactor":0.3499999940395355}}],"meshes":[{"name":"Cone","primitives":[{"attributes":{"POSITION":0,"NORMAL":1,"TEXCOORD_0":2},"indices":3,"material":0}]}],"accessors":[{"bufferView":0,"componentType":5126,"count":90,"max":[0.44431614875793457,1.7425780296325684,0.3908878564834595],"min":[-0.2864745259284973,-0.06591010093688965,-0.4221111834049225],"type":"VEC3"},{"bufferView":1,"componentType":5126,"count":90,"type":"VEC3"},{"bufferView":2,"componentType":5126,"count":90,"type":"VEC2"},{"bufferView":3,"componentType":5123,"count":144,"type":"SCALAR"}],"bufferViews":[{"buffer":0,"byteLength":1080,"byteOffset":0,"target":34962},{"buffer":0,"byteLength":1080,"byteOffset":1080,"target":34962},{"buffer":0,"byteLength":720,"byteOffset":2160,"target":34962},{"buffer":0,"byteLength":288,"byteOffset":2880,"target":34963}],"buffers":[{"byteLength":3168,"uri":"data:application/octet-stream;base64,"}]}
