{"asset":{"generator":"Khronos glTF Blender I/O v4.0.44","version":"2.0"},"extensionsUsed":["KHR_materials_emissive_strength"],"scene":0,"scenes":[{"name":"Scene","nodes":[0]}],"nodes":[{"extras":{"titancraft_visual_only":true,"titancraft_collision":"none"},"mesh":0,"name":"TC_ENV_LightPole_V1"}],"materials":[{"doubleSided":true,"name":"TC_MAT_LightPoleSteel","pbrMetallicRoughness":{"baseColorFactor":[0.4313730001449585,0.4549019932746887,0.47058799862861633,1],"metallicFactor":0.30000001192092896,"roughnessFactor":0.75}},{"doubleSided":true,"name":"TC_MAT_LightPole","pbrMetallicRoughness":{"baseColorFactor":[0.1450980007648468,0.1647060066461563,0.18823499977588654,1],"metallicFactor":0.4000000059604645,"roughnessFactor":0.699999988079071}},{"doubleSided":true,"emissiveFactor":[1,0.6200000047683716,0.2199999988079071],"extensions":{"KHR_materials_emissive_strength":{"emissiveStrength":3}},"name":"TC_MAT_LampFace","pbrMetallicRoughness":{"baseColorFactor":[1,0.6200000047683716,0.2199999988079071,1],"metallicFactor":0,"roughnessFactor":0.30000001192092896}}],"meshes":[{"name":"Cylinder","primitives":[{"attributes":{"POSITION":0,"NORMAL":1,"TEXCOORD_0":2},"indices":3,"material":0},{"attributes":{"POSITION":4,"NORMAL":5,"TEXCOORD_0":6},"indices":7,"material":1},{"attributes":{"POSITION":8,"NORMAL":9,"TEXCOORD_0":10},"indices":11,"material":2}]}],"accessors":[{"bufferView":0,"componentType":5126,"count":72,"max":[0.2800000011920929,3.3970282077789307,0.2800000011920929],"min":[-0.2800000011920929,0,-0.7750710248947144],"type":"VEC3"},{"bufferView":1,"componentType":5126,"count":72,"type":"VEC3"},{"bufferView":2,"componentType":5126,"count":72,"type":"VEC2"},{"bufferView":3,"componentType":5123,"count":120,"type":"SCALAR"},{"bufferView":4,"componentType":5126,"count":72,"max":[0.05196152254939079,3.3087000846862793,0.05999999865889549],"min":[-0.05196152254939079,0.07000000029802322,-0.61622554063797],"type":"VEC3"},{"bufferView":5,"componentType":5126,"count":72,"type":"VEC3"},{"bufferView":6,"componentType":5126,"count":72,"type":"VEC2"},{"bufferView":7,"componentType":5123,"count":120,"type":"SCALAR"},{"bufferView":8,"componentType":5126,"count":24,"max":[0.14000000059604645,3.249971389770508,-0.4374753534793854],"min":[-0.14000000059604645,3.070028781890869,-0.7625247240066528],"type":"VEC3"},{"bufferView":9,"componentType":5126,"count":24,"type":"VEC3"},{"bufferView":10,"componentType":5126,"count":24,"type":"VEC2"},{"bufferView":11,"componentType":5123,"count":36,"type":"SCALAR"}],"bufferViews":[{"buffer":0,"byteLength":864,"byteOffset":0,"target":34962},{"buffer":0,"byteLength":864,"byteOffset":864,"target":34962},{"buffer":0,"byteLength":576,"byteOffset":1728,"target":34962},{"buffer":0,"byteLength":240,"byteOffset":2304,"target":34963},{"buffer":0,"byteLength":864,"byteOffset":2544,"target":34962},{"buffer":0,"byteLength":864,"byteOffset":3408,"target":34962},{"buffer":0,"byteLength":576,"byteOffset":4272,"target":34962},{"buffer":0,"byteLength":240,"byteOffset":4848,"target":34963},{"buffer":0,"byteLength":288,"byteOffset":5088,"target":34962},{"buffer":0,"byteLength":288,"byteOffset":5376,"target":34962},{"buffer":0,"byteLength":192,"byteOffset":5664,"target":34962},{"buffer":0,"byteLength":72,"byteOffset":5856,"target":34963}],"buffers":[{"byteLength":5928,"uri":"data:application/octet-stream;base64,"}]}
