{"asset":{"generator":"Khronos glTF Blender I/O v4.0.44","version":"2.0"},"scene":0,"scenes":[{"name":"Scene","nodes":[0,1,2,3]}],"nodes":[{"extras":{"titancraft_visual_only":true,"titancraft_collision":"none"},"mesh":0,"name":"TC_DistantSilhouette_SmokePlume_Layer_0"},{"extras":{"titancraft_visual_only":true,"titancraft_collision":"none"},"mesh":1,"name":"TC_DistantSilhouette_SmokePlume_Layer_1"},{"extras":{"titancraft_visual_only":true,"titancraft_collision":"none"},"mesh":2,"name":"TC_DistantSilhouette_SmokePlume_Layer_2"},{"extras":{"titancraft_visual_only":true,"titancraft_collision":"none"},"mesh":3,"name":"TC_DistantSilhouette_SmokePlume_Layer_3"}],"materials":[{"doubleSided":true,"name":"TC_DistantSilhouette_Haze","pbrMetallicRoughness":{"baseColorFactor":[0.20000000298023224,0.1899999976158142,0.23999999463558197,1],"metallicFactor":0}}],"meshes":[{"name":"Cone","primitives":[{"attributes":{"POSITION":0,"NORMAL":1,"TEXCOORD_0":2},"indices":3,"material":0}]},{"name":"Cone.001","primitives":[{"attributes":{"POSITION":4,"NORMAL":5,"TEXCOORD_0":6},"indices":7,"material":0}]},{"name":"Cone.002","primitives":[{"attributes":{"POSITION":8,"NORMAL":9,"TEXCOORD_0":10},"indices":11,"material":0}]},{"name":"Cone.003","primitives":[{"attributes":{"POSITION":12,"NORMAL":13,"TEXCOORD_0":14},"indices":15,"material":0}]}],"accessors":[{"bufferView":0,"componentType":5126,"count":42,"max":[0.40946969389915466,1.100000023841858,0.37840691208839417],"min":[-0.40946969389915466,0,-0.41999998688697815],"type":"VEC3"},{"bufferView":1,"componentType":5126,"count":42,"type":"VEC3"},{"bufferView":2,"componentType":5126,"count":42,"type":"VEC2"},{"bufferView":3,"componentType":5123,"count":72,"type":"SCALAR"},{"bufferView":4,"componentType":5126,"count":42,"max":[0.5443115234375,2,0.3666089177131653],"min":[-0.26801589131355286,0.7000000476837158,-0.44846177101135254],"type":"VEC3"},{"bufferView":5,"componentType":5126,"count":42,"type":"VEC3"},{"bufferView":6,"componentType":5126,"count":42,"type":"VEC2"},{"bufferView":7,"componentType":5123,"count":72,"type":"SCALAR"},{"bufferView":8,"componentType":5126,"count":42,"max":[0.3797851502895355,2.9000000953674316,0.3909512162208557],"min":[-0.5385018587112427,1.4000000953674316,-0.5445606708526611],"type":"VEC3"},{"bufferView":9,"componentType":5126,"count":42,"type":"VEC3"},{"bufferView":10,"componentType":5126,"count":42,"type":"VEC2"},{"bufferView":11,"componentType":5123,"count":72,"type":"SCALAR"},{"bufferView":12,"componentType":5126,"count":42,"max":[0.5373252630233765,3.3999998569488525,0.3284345269203186],"min":[-0.04630652070045471,2.299999952316284,-0.24932046234607697],"type":"VEC3"},{"bufferView":13,"componentType":5126,"count":42,"type":"VEC3"},{"bufferView":14,"componentType":5126,"count":42,"type":"VEC2"},{"bufferView":15,"componentType":5123,"count":72,"type":"SCALAR"}],"bufferViews":[{"buffer":0,"byteLength":504,"byteOffset":0,"target":34962},{"buffer":0,"byteLength":504,"byteOffset":504,"target":34962},{"buffer":0,"byteLength":336,"byteOffset":1008,"target":34962},{"buffer":0,"byteLength":144,"byteOffset":1344,"target":34963},{"buffer":0,"byteLength":504,"byteOffset":1488,"target":34962},{"buffer":0,"byteLength":504,"byteOffset":1992,"target":34962},{"buffer":0,"byteLength":336,"byteOffset":2496,"target":34962},{"buffer":0,"byteLength":144,"byteOffset":2832,"target":34963},{"buffer":0,"byteLength":504,"byteOffset":2976,"target":34962},{"buffer":0,"byteLength":504,"byteOffset":3480,"target":34962},{"buffer":0,"byteLength":336,"byteOffset":3984,"target":34962},{"buffer":0,"byteLength":144,"byteOffset":4320,"target":34963},{"buffer":0,"byteLength":504,"byteOffset":4464,"target":34962},{"buffer":0,"byteLength":504,"byteOffset":4968,"target":34962},{"buffer":0,"byteLength":336,"byteOffset":5472,"target":34962},{"buffer":0,"byteLength":144,"byteOffset":5808,"target":34963}],"buffers":[{"byteLength":5952,"uri":"data:application/octet-stream;base64,"}]}
