{"asset":{"generator":"Khronos glTF Blender I/O v4.0.44","version":"2.0"},"scene":0,"scenes":[{"name":"Scene","nodes":[0,1,2,3,4,5]}],"nodes":[{"extras":{"titancraft_visual_only":true,"titancraft_collision":"none"},"mesh":0,"name":"TC_DistantSilhouette_SmokePlume_Puff_0"},{"extras":{"titancraft_visual_only":true,"titancraft_collision":"none"},"mesh":1,"name":"TC_DistantSilhouette_SmokePlume_Puff_1"},{"extras":{"titancraft_visual_only":true,"titancraft_collision":"none"},"mesh":2,"name":"TC_DistantSilhouette_SmokePlume_Puff_2"},{"extras":{"titancraft_visual_only":true,"titancraft_collision":"none"},"mesh":3,"name":"TC_DistantSilhouette_SmokePlume_Puff_3"},{"extras":{"titancraft_visual_only":true,"titancraft_collision":"none"},"mesh":4,"name":"TC_DistantSilhouette_SmokePlume_Puff_4"},{"extras":{"titancraft_visual_only":true,"titancraft_collision":"none"},"mesh":5,"name":"TC_DistantSilhouette_SmokePlume_Puff_5"}],"materials":[{"alphaMode":"BLEND","doubleSided":true,"name":"TC_DistantSilhouette_Vapor_0","pbrMetallicRoughness":{"baseColorFactor":[0.6200000047683716,0.6000000238418579,0.5799999833106995,0.8500000238418579],"metallicFactor":0,"roughnessFactor":0.949999988079071}},{"alphaMode":"BLEND","doubleSided":true,"name":"TC_DistantSilhouette_Vapor_1","pbrMetallicRoughness":{"baseColorFactor":[0.6200000047683716,0.6000000238418579,0.5799999833106995,0.7200000286102295],"metallicFactor":0,"roughnessFactor":0.949999988079071}},{"alphaMode":"BLEND","doubleSided":true,"name":"TC_DistantSilhouette_Vapor_2","pbrMetallicRoughness":{"baseColorFactor":[0.6200000047683716,0.6000000238418579,0.5799999833106995,0.5799999833106995],"metallicFactor":0,"roughnessFactor":0.949999988079071}},{"alphaMode":"BLEND","doubleSided":true,"name":"TC_DistantSilhouette_Vapor_3","pbrMetallicRoughness":{"baseColorFactor":[0.6200000047683716,0.6000000238418579,0.5799999833106995,0.41999998688697815],"metallicFactor":0,"roughnessFactor":0.949999988079071}},{"alphaMode":"BLEND","doubleSided":true,"name":"TC_DistantSilhouette_Vapor_4","pbrMetallicRoughness":{"baseColorFactor":[0.6200000047683716,0.6000000238418579,0.5799999833106995,0.2800000011920929],"metallicFactor":0,"roughnessFactor":0.949999988079071}},{"alphaMode":"BLEND","doubleSided":true,"name":"TC_DistantSilhouette_Vapor_5","pbrMetallicRoughness":{"baseColorFactor":[0.6200000047683716,0.6000000238418579,0.5799999833106995,0.1599999964237213],"metallicFactor":0,"roughnessFactor":0.949999988079071}}],"meshes":[{"name":"Icosphere","primitives":[{"attributes":{"POSITION":0,"NORMAL":1,"TEXCOORD_0":2},"indices":3,"material":0}]},{"name":"Icosphere.001","primitives":[{"attributes":{"POSITION":4,"NORMAL":5,"TEXCOORD_0":6},"indices":3,"material":1}]},{"name":"Icosphere.002","primitives":[{"attributes":{"POSITION":7,"NORMAL":8,"TEXCOORD_0":9},"indices":3,"material":2}]},{"name":"Icosphere.003","primitives":[{"attributes":{"POSITION":10,"NORMAL":11,"TEXCOORD_0":12},"indices":3,"material":3}]},{"name":"Icosphere.004","primitives":[{"attributes":{"POSITION":13,"NORMAL":14,"TEXCOORD_0":15},"indices":3,"material":4}]},{"name":"Icosphere.005","primitives":[{"attributes":{"POSITION":16,"NORMAL":17,"TEXCOORD_0":18},"indices":3,"material":5}]}],"accessors":[{"bufferView":0,"componentType":5126,"count":60,"max":[0.3041045069694519,0.6389999985694885,0.28921762108802795],"min":[-0.3041045069694519,0.06099998950958252,-0.28921762108802795],"type":"VEC3"},{"bufferView":1,"componentType":5126,"count":60,"type":"VEC3"},{"bufferView":2,"componentType":5126,"count":60,"type":"VEC2"},{"bufferView":3,"componentType":5123,"count":60,"type":"SCALAR"},{"bufferView":4,"componentType":5126,"count":60,"max":[0.4935469925403595,1.159999966621399,0.30726879835128784],"min":[-0.29354700446128845,0.4400000274181366,-0.40726882219314575],"type":"VEC3"},{"bufferView":5,"componentType":5126,"count":60,"type":"VEC3"},{"bufferView":6,"componentType":5126,"count":60,"type":"VEC2"},{"bufferView":7,"componentType":5126,"count":60,"max":[0.3642943799495697,1.7369999885559082,0.3695533275604248],"min":[-0.6642943620681763,0.8629999160766602,-0.5695533156394958],"type":"VEC3"},{"bufferView":8,"componentType":5126,"count":60,"type":"VEC3"},{"bufferView":9,"componentType":5126,"count":60,"type":"VEC2"},{"bufferView":10,"componentType":5126,"count":60,"max":[0.951141357421875,2.369999885559082,0.6750326752662659],"min":[-0.3511413335800171,1.3300000429153442,-0.47503265738487244],"type":"VEC3"},{"bufferView":11,"componentType":5126,"count":60,"type":"VEC3"},{"bufferView":12,"componentType":5126,"count":60,"type":"VEC2"},{"bufferView":13,"componentType":5126,"count":60,"max":[0.4540880024433136,3.009000062942505,0.5153883099555969],"min":[-1.154088020324707,1.7910001277923584,-0.915388286113739],"type":"VEC3"},{"bufferView":14,"componentType":5126,"count":60,"type":"VEC3"},{"bufferView":15,"componentType":5126,"count":60,"type":"VEC2"},{"bufferView":16,"componentType":5126,"count":60,"max":[1.4623135328292847,3.5799999237060547,0.7666144371032715],"min":[-0.36231350898742676,2.320000171661377,-0.8666144609451294],"type":"VEC3"},{"bufferView":17,"componentType":5126,"count":60,"type":"VEC3"},{"bufferView":18,"componentType":5126,"count":60,"type":"VEC2"}],"bufferViews":[{"buffer":0,"byteLength":720,"byteOffset":0,"target":34962},{"buffer":0,"byteLength":720,"byteOffset":720,"target":34962},{"buffer":0,"byteLength":480,"byteOffset":1440,"target":34962},{"buffer":0,"byteLength":120,"byteOffset":1920,"target":34963},{"buffer":0,"byteLength":720,"byteOffset":2040,"target":34962},{"buffer":0,"byteLength":720,"byteOffset":2760,"target":34962},{"buffer":0,"byteLength":480,"byteOffset":3480,"target":34962},{"buffer":0,"byteLength":720,"byteOffset":3960,"target":34962},{"buffer":0,"byteLength":720,"byteOffset":4680,"target":34962},{"buffer":0,"byteLength":480,"byteOffset":5400,"target":34962},{"buffer":0,"byteLength":720,"byteOffset":5880,"target":34962},{"buffer":0,"byteLength":720,"byteOffset":6600,"target":34962},{"buffer":0,"byteLength":480,"byteOffset":7320,"target":34962},{"buffer":0,"byteLength":720,"byteOffset":7800,"target":34962},{"buffer":0,"byteLength":720,"byteOffset":8520,"target":34962},{"buffer":0,"byteLength":480,"byteOffset":9240,"target":34962},{"buffer":0,"byteLength":720,"byteOffset":9720,"target":34962},{"buffer":0,"byteLength":720,"byteOffset":10440,"target":34962},{"buffer":0,"byteLength":480,"byteOffset":11160,"target":34962}],"buffers":[{"byteLength":11640,"uri":"data:application/octet-stream;base64,"}]}
