{"asset":{"generator":"Khronos glTF Blender I/O v4.0.44","version":"2.0"},"scene":0,"scenes":[{"name":"Scene","nodes":[0]}],"nodes":[{"extras":{"titancraft_visual_only":true,"titancraft_collision":"none"},"mesh":0,"name":"TC_ENV_CampAwning_V1"}],"materials":[{"doubleSided":true,"name":"TC_MAT_AwningPole","pbrMetallicRoughness":{"baseColorFactor":[0.1450980007648468,0.1647060066461563,0.18823499977588654,1],"metallicFactor":0.4000000059604645,"roughnessFactor":0.699999988079071}},{"doubleSided":true,"name":"TC_MAT_AwningTarp","pbrMetallicRoughness":{"baseColorFactor":[0.7200000286102295,0.33000001311302185,0.10000000149011612,1],"metallicFactor":0,"roughnessFactor":0.949999988079071}}],"meshes":[{"name":"Cylinder","primitives":[{"attributes":{"POSITION":0,"NORMAL":1,"TEXCOORD_0":2},"indices":3,"material":0},{"attributes":{"POSITION":4,"NORMAL":5,"TEXCOORD_0":6},"indices":7,"material":1}]}],"accessors":[{"bufferView":0,"componentType":5126,"count":180,"max":[1.5476315021514893,2.5,1.0549999475479126],"min":[-1.5476313829421997,0,-1.0550000667572021],"type":"VEC3"},{"bufferView":1,"componentType":5126,"count":180,"type":"VEC3"},{"bufferView":2,"componentType":5126,"count":180,"type":"VEC2"},{"bufferView":3,"componentType":5123,"count":300,"type":"SCALAR"},{"bufferView":4,"componentType":5126,"count":48,"max":[1.7999999523162842,2.594562530517578,1.2450000047683716],"min":[-1.7999999523162842,2.0454373359680176,-1.2316093444824219],"type":"VEC3"},{"bufferView":5,"componentType":5126,"count":48,"type":"VEC3"},{"bufferView":6,"componentType":5126,"count":48,"type":"VEC2"},{"bufferView":7,"componentType":5123,"count":72,"type":"SCALAR"}],"bufferViews":[{"buffer":0,"byteLength":2160,"byteOffset":0,"target":34962},{"buffer":0,"byteLength":2160,"byteOffset":2160,"target":34962},{"buffer":0,"byteLength":1440,"byteOffset":4320,"target":34962},{"buffer":0,"byteLength":600,"byteOffset":5760,"target":34963},{"buffer":0,"byteLength":576,"byteOffset":6360,"target":34962},{"buffer":0,"byteLength":576,"byteOffset":6936,"target":34962},{"buffer":0,"byteLength":384,"byteOffset":7512,"target":34962},{"buffer":0,"byteLength":144,"byteOffset":7896,"target":34963}],"buffers":[{"byteLength":8040,"uri":"data:application/octet-stream;base64,"}]}
