{"asset":{"generator":"Khronos glTF Blender I/O v4.0.44","version":"2.0"},"scene":0,"scenes":[{"name":"Scene","nodes":[0,1,2,3,4]}],"nodes":[{"extras":{"titancraft_visual_only":true,"titancraft_collision":"none"},"mesh":0,"name":"TC_DistantSilhouette_BasaltRidge_Spire_0"},{"extras":{"titancraft_visual_only":true,"titancraft_collision":"none"},"mesh":1,"name":"TC_DistantSilhouette_BasaltRidge_Spire_1"},{"extras":{"titancraft_visual_only":true,"titancraft_collision":"none"},"mesh":2,"name":"TC_DistantSilhouette_BasaltRidge_Spire_2"},{"extras":{"titancraft_visual_only":true,"titancraft_collision":"none"},"mesh":3,"name":"TC_DistantSilhouette_BasaltRidge_Spire_3"},{"extras":{"titancraft_visual_only":true,"titancraft_collision":"none"},"mesh":4,"name":"TC_DistantSilhouette_BasaltRidge_Spire_4"}],"materials":[{"doubleSided":true,"name":"TC_DistantSilhouette_Basalt","pbrMetallicRoughness":{"baseColorFactor":[0.1599999964237213,0.11999999731779099,0.20999999344348907,1],"metallicFactor":0.05000000074505806,"roughnessFactor":0.8999999761581421}}],"meshes":[{"name":"Cone","primitives":[{"attributes":{"POSITION":0,"NORMAL":1,"TEXCOORD_0":2},"indices":3,"material":0}]},{"name":"Cone.001","primitives":[{"attributes":{"POSITION":4,"NORMAL":5,"TEXCOORD_0":6},"indices":7,"material":0}]},{"name":"Cone.002","primitives":[{"attributes":{"POSITION":8,"NORMAL":9,"TEXCOORD_0":10},"indices":11,"material":0}]},{"name":"Cone.003","primitives":[{"attributes":{"POSITION":12,"NORMAL":13,"TEXCOORD_0":14},"indices":15,"material":0}]},{"name":"Cone.004","primitives":[{"attributes":{"POSITION":16,"NORMAL":17,"TEXCOORD_0":18},"indices":19,"material":0}]}],"accessors":[{"bufferView":0,"componentType":5126,"count":30,"max":[1.0461622476577759,3.200000047683716,0.8899187445640564],"min":[-1.0461622476577759,0,-1.100000023841858],"type":"VEC3"},{"bufferView":1,"componentType":5126,"count":30,"type":"VEC3"},{"bufferView":2,"componentType":5126,"count":30,"type":"VEC2"},{"bufferView":3,"componentType":5123,"count":48,"type":"SCALAR"},{"bufferView":4,"componentType":5126,"count":30,"max":[2.627901792526245,2.2596583366394043,0.28126704692840576],"min":[1.0437053442001343,-0.1589595079421997,-1.0700116157531738],"type":"VEC3"},{"bufferView":5,"componentType":5126,"count":30,"type":"VEC3"},{"bufferView":6,"componentType":5126,"count":30,"type":"VEC2"},{"bufferView":7,"componentType":5123,"count":48,"type":"SCALAR"},{"bufferView":8,"componentType":5126,"count":36,"max":[-0.5093990564346313,2.6550827026367188,1.0511733293533325],"min":[-2.2661073207855225,-0.13303399085998535,-0.698419451713562],"type":"VEC3"},{"bufferView":9,"componentType":5126,"count":36,"type":"VEC3"},{"bufferView":10,"componentType":5126,"count":36,"type":"VEC2"},{"bufferView":11,"componentType":5123,"count":60,"type":"SCALAR"},{"bufferView":12,"componentType":5126,"count":30,"max":[1.4262256622314453,1.6305665969848633,0.2631791830062866],"min":[0.14965510368347168,-0.15535956621170044,-0.961359977722168],"type":"VEC3"},{"bufferView":13,"componentType":5126,"count":30,"type":"VEC3"},{"bufferView":14,"componentType":5126,"count":30,"type":"VEC2"},{"bufferView":15,"componentType":5123,"count":48,"type":"SCALAR"},{"bufferView":16,"componentType":5126,"count":30,"max":[-0.029242873191833496,1.9478799104690552,0.18832245469093323],"min":[-1.260460615158081,-0.1541699767112732,-1.3476723432540894],"type":"VEC3"},{"bufferView":17,"componentType":5126,"count":30,"type":"VEC3"},{"bufferView":18,"componentType":5126,"count":30,"type":"VEC2"},{"bufferView":19,"componentType":5123,"count":48,"type":"SCALAR"}],"bufferViews":[{"buffer":0,"byteLength":360,"byteOffset":0,"target":34962},{"buffer":0,"byteLength":360,"byteOffset":360,"target":34962},{"buffer":0,"byteLength":240,"byteOffset":720,"target":34962},{"buffer":0,"byteLength":96,"byteOffset":960,"target":34963},{"buffer":0,"byteLength":360,"byteOffset":1056,"target":34962},{"buffer":0,"byteLength":360,"byteOffset":1416,"target":34962},{"buffer":0,"byteLength":240,"byteOffset":1776,"target":34962},{"buffer":0,"byteLength":96,"byteOffset":2016,"target":34963},{"buffer":0,"byteLength":432,"byteOffset":2112,"target":34962},{"buffer":0,"byteLength":432,"byteOffset":2544,"target":34962},{"buffer":0,"byteLength":288,"byteOffset":2976,"target":34962},{"buffer":0,"byteLength":120,"byteOffset":3264,"target":34963},{"buffer":0,"byteLength":360,"byteOffset":3384,"target":34962},{"buffer":0,"byteLength":360,"byteOffset":3744,"target":34962},{"buffer":0,"byteLength":240,"byteOffset":4104,"target":34962},{"buffer":0,"byteLength":96,"byteOffset":4344,"target":34963},{"buffer":0,"byteLength":360,"byteOffset":4440,"target":34962},{"buffer":0,"byteLength":360,"byteOffset":4800,"target":34962},{"buffer":0,"byteLength":240,"byteOffset":5160,"target":34962},{"buffer":0,"byteLength":96,"byteOffset":5400,"target":34963}],"buffers":[{"byteLength":5496,"uri":"data:application/octet-stream;base64,"}]}
