{"asset":{"generator":"Khronos glTF Blender I/O v4.0.44","version":"2.0"},"scene":0,"scenes":[{"name":"Scene","nodes":[0]}],"nodes":[{"extras":{"titancraft_visual_only":true,"titancraft_collision":"none"},"mesh":0,"name":"TC_ENV_SupplyCrateStack_V1"}],"materials":[{"doubleSided":true,"name":"TC_MAT_CrateSteel","pbrMetallicRoughness":{"baseColorFactor":[0.4313730001449585,0.4549019932746887,0.47058799862861633,1],"metallicFactor":0.30000001192092896,"roughnessFactor":0.800000011920929}},{"doubleSided":true,"name":"TC_MAT_CrateGraphite","pbrMetallicRoughness":{"baseColorFactor":[0.1450980007648468,0.1647060066461563,0.18823499977588654,1],"metallicFactor":0.20000000298023224,"roughnessFactor":0.8500000238418579}},{"doubleSided":true,"name":"TC_MAT_CrateAccent","pbrMetallicRoughness":{"baseColorFactor":[0.9098039865493774,0.47058799862861633,0.1333329975605011,1],"metallicFactor":0.10000000149011612,"roughnessFactor":0.6000000238418579}}],"meshes":[{"name":"Cube","primitives":[{"attributes":{"POSITION":0,"NORMAL":1,"TEXCOORD_0":2},"indices":3,"material":0},{"attributes":{"POSITION":4,"NORMAL":5,"TEXCOORD_0":6},"indices":3,"material":1},{"attributes":{"POSITION":7,"NORMAL":8,"TEXCOORD_0":9},"indices":10,"material":2}]}],"accessors":[{"bufferView":0,"componentType":5126,"count":72,"max":[0.9999999403953552,1.6050000190734863,0.4749999940395355],"min":[-1.024999976158142,0,-0.5699998736381531],"type":"VEC3"},{"bufferView":1,"componentType":5126,"count":72,"type":"VEC3"},{"bufferView":2,"componentType":5126,"count":72,"type":"VEC2"},{"bufferView":3,"componentType":5123,"count":108,"type":"SCALAR"},{"bufferView":4,"componentType":5126,"count":72,"max":[0.9749999642372131,1.679999828338623,0.4999999403953552],"min":[-1.0499999523162842,0,-0.5871158242225647],"type":"VEC3"},{"bufferView":5,"componentType":5126,"count":72,"type":"VEC3"},{"bufferView":6,"componentType":5126,"count":72,"type":"VEC2"},{"bufferView":7,"componentType":5126,"count":48,"max":[-0.0650000274181366,1.3899999856948853,0.47999992966651917],"min":[-1.034999966621399,0.3999999761581421,-0.4549148380756378],"type":"VEC3"},{"bufferView":8,"componentType":5126,"count":48,"type":"VEC3"},{"bufferView":9,"componentType":5126,"count":48,"type":"VEC2"},{"bufferView":10,"componentType":5123,"count":72,"type":"SCALAR"}],"bufferViews":[{"buffer":0,"byteLength":864,"byteOffset":0,"target":34962},{"buffer":0,"byteLength":864,"byteOffset":864,"target":34962},{"buffer":0,"byteLength":576,"byteOffset":1728,"target":34962},{"buffer":0,"byteLength":216,"byteOffset":2304,"target":34963},{"buffer":0,"byteLength":864,"byteOffset":2520,"target":34962},{"buffer":0,"byteLength":864,"byteOffset":3384,"target":34962},{"buffer":0,"byteLength":576,"byteOffset":4248,"target":34962},{"buffer":0,"byteLength":576,"byteOffset":4824,"target":34962},{"buffer":0,"byteLength":576,"byteOffset":5400,"target":34962},{"buffer":0,"byteLength":384,"byteOffset":5976,"target":34962},{"buffer":0,"byteLength":144,"byteOffset":6360,"target":34963}],"buffers":[{"byteLength":6504,"uri":"data:application/octet-stream;base64,"}]}
