{"asset":{"generator":"Khronos glTF Blender I/O v4.0.44","version":"2.0"},"scene":0,"scenes":[{"name":"Scene","nodes":[0]}],"nodes":[{"extras":{"titancraft_visual_only":true,"titancraft_collision":"none"},"mesh":0,"name":"TC_ENV_RockOccluder_V1"}],"materials":[{"doubleSided":true,"name":"TC_MAT_VolcanicRock_Boulder","pbrMetallicRoughness":{"baseColorFactor":[0.08235300332307816,0.09019599854946136,0.10196100175380707,1],"metallicFactor":0.05000000074505806,"roughnessFactor":0.8999999761581421}}],"meshes":[{"name":"Icosphere","primitives":[{"attributes":{"POSITION":0,"NORMAL":1,"TEXCOORD_0":2},"indices":3,"material":0}]}],"accessors":[{"bufferView":0,"componentType":5126,"count":56,"max":[1.241869568824768,1.9921538829803467,1.1012388467788696],"min":[-1.4854259490966797,1.0499999523162842,-1.0993376970291138],"type":"VEC3"},{"bufferView":1,"componentType":5126,"count":56,"type":"VEC3"},{"bufferView":2,"componentType":5126,"count":56,"type":"VEC2"},{"bufferView":3,"componentType":5123,"count":60,"type":"SCALAR"}],"bufferViews":[{"buffer":0,"byteLength":672,"byteOffset":0,"target":34962},{"buffer":0,"byteLength":672,"byteOffset":672,"target":34962},{"buffer":0,"byteLength":448,"byteOffset":1344,"target":34962},{"buffer":0,"byteLength":120,"byteOffset":1792,"target":34963}],"buffers":[{"byteLength":1912,"uri":"data:application/octet-stream;base64,"}]}
