{"asset":{"generator":"Khronos glTF Blender I/O v4.0.44","version":"2.0"},"scene":0,"scenes":[{"name":"Scene","nodes":[0,1,2,3,4,5,6,7]}],"nodes":[{"extras":{"titancraft_visual_only":true,"titancraft_collision":"none"},"mesh":0,"name":"TC_Debris_PlateMain"},{"extras":{"titancraft_visual_only":true,"titancraft_collision":"none"},"mesh":1,"name":"TC_Debris_PlateBent"},{"extras":{"titancraft_visual_only":true,"titancraft_collision":"none"},"mesh":2,"name":"TC_Debris_EdgeScorch"},{"extras":{"titancraft_visual_only":true,"titancraft_collision":"none"},"mesh":3,"name":"TC_Debris_Rib_0"},{"extras":{"titancraft_visual_only":true,"titancraft_collision":"none"},"mesh":4,"name":"TC_Debris_Rib_1"},{"extras":{"titancraft_visual_only":true,"titancraft_collision":"none"},"mesh":5,"name":"TC_Debris_Rib_2"},{"extras":{"titancraft_visual_only":true,"titancraft_collision":"none"},"mesh":6,"name":"TC_Debris_Chunk"},{"extras":{"titancraft_visual_only":true,"titancraft_collision":"none"},"mesh":7,"name":"TC_Debris_Marking"}],"materials":[{"doubleSided":true,"name":"TC_MVP_HullBeige","pbrMetallicRoughness":{"baseColorFactor":[0.4779999852180481,0.4350000023841858,0.35600000619888306,1],"metallicFactor":0.11999999731779099,"roughnessFactor":0.6200000047683716}},{"doubleSided":true,"name":"TC_MVP_SootMetal","pbrMetallicRoughness":{"baseColorFactor":[0.054999999701976776,0.05000000074505806,0.04800000041723251,1],"metallicFactor":0.3499999940395355,"roughnessFactor":0.75}},{"doubleSided":true,"name":"TC_MVP_MidMetal","pbrMetallicRoughness":{"baseColorFactor":[0.18000000715255737,0.1899999976158142,0.20499999821186066,1],"metallicFactor":0.75,"roughnessFactor":0.44999998807907104}},{"doubleSided":true,"name":"TC_MVP_OrangePaint","pbrMetallicRoughness":{"baseColorFactor":[0.7200000286102295,0.23000000417232513,0.03500000014901161,1],"metallicFactor":0,"roughnessFactor":0.41999998688697815}}],"meshes":[{"name":"Cube","primitives":[{"attributes":{"POSITION":0,"NORMAL":1,"TEXCOORD_0":2},"indices":3,"material":0}]},{"name":"Cube.001","primitives":[{"attributes":{"POSITION":4,"NORMAL":5,"TEXCOORD_0":6},"indices":7,"material":0}]},{"name":"Cube.002","primitives":[{"attributes":{"POSITION":8,"NORMAL":9,"TEXCOORD_0":10},"indices":3,"material":1}]},{"name":"Cube.003","primitives":[{"attributes":{"POSITION":11,"NORMAL":12,"TEXCOORD_0":13},"indices":14,"material":2}]},{"name":"Cube.004","primitives":[{"attributes":{"POSITION":15,"NORMAL":16,"TEXCOORD_0":17},"indices":14,"material":2}]},{"name":"Cube.005","primitives":[{"attributes":{"POSITION":18,"NORMAL":19,"TEXCOORD_0":20},"indices":14,"material":2}]},{"name":"Cube.006","primitives":[{"attributes":{"POSITION":21,"NORMAL":22,"TEXCOORD_0":23},"indices":24,"material":1}]},{"name":"Cube.007","primitives":[{"attributes":{"POSITION":25,"NORMAL":26,"TEXCOORD_0":27},"indices":28,"material":3}]}],"accessors":[{"bufferView":0,"componentType":5126,"count":96,"max":[1.2639142274856567,2.120713949203491,0.24248148500919342],"min":[-1.2639142274856567,-0.4207138419151306,-0.24248148500919342],"type":"VEC3"},{"bufferView":1,"componentType":5126,"count":96,"type":"VEC3"},{"bufferView":2,"componentType":5126,"count":96,"type":"VEC2"},{"bufferView":3,"componentType":5123,"count":132,"type":"SCALAR"},{"bufferView":4,"componentType":5126,"count":96,"max":[1.6360199451446533,0.9552772641181946,-0.0024207490496337414],"min":[0.26398012042045593,-0.3952772915363312,-0.3575792610645294],"type":"VEC3"},{"bufferView":5,"componentType":5126,"count":96,"type":"VEC3"},{"bufferView":6,"componentType":5126,"count":96,"type":"VEC2"},{"bufferView":7,"componentType":5123,"count":132,"type":"SCALAR"},{"bufferView":8,"componentType":5126,"count":96,"max":[-0.22862379252910614,2.027848958969116,0.28115469217300415],"min":[-1.2113763093948364,0.8121510148048401,-0.0811547040939331],"type":"VEC3"},{"bufferView":9,"componentType":5126,"count":96,"type":"VEC3"},{"bufferView":10,"componentType":5126,"count":96,"type":"VEC2"},{"bufferView":11,"componentType":5126,"count":96,"max":[0.22884461283683777,0.8376830816268921,0.4950000047683716],"min":[-0.02884460799396038,0.002316900296136737,0.4049999713897705],"type":"VEC3"},{"bufferView":12,"componentType":5126,"count":96,"type":"VEC3"},{"bufferView":13,"componentType":5126,"count":96,"type":"VEC2"},{"bufferView":14,"componentType":5123,"count":132,"type":"SCALAR"},{"bufferView":15,"componentType":5126,"count":96,"max":[0.28884461522102356,0.8376830816268921,0.04500000178813934],"min":[0.031155386939644814,0.002316900063306093,-0.04500000178813934],"type":"VEC3"},{"bufferView":16,"componentType":5126,"count":96,"type":"VEC3"},{"bufferView":17,"componentType":5126,"count":96,"type":"VEC2"},{"bufferView":18,"componentType":5126,"count":96,"max":[0.34884461760520935,0.8376830816268921,-0.4049999713897705],"min":[0.09115538746118546,0.002316898899152875,-0.4950000047683716],"type":"VEC3"},{"bufferView":19,"componentType":5126,"count":96,"type":"VEC3"},{"bufferView":20,"componentType":5126,"count":96,"type":"VEC2"},{"bufferView":21,"componentType":5126,"count":96,"max":[-0.17325152456760406,0.3199999928474426,-0.27366000413894653],"min":[-0.926748514175415,0,-0.9663400053977966],"type":"VEC3"},{"bufferView":22,"componentType":5126,"count":96,"type":"VEC3"},{"bufferView":23,"componentType":5126,"count":96,"type":"VEC2"},{"bufferView":24,"componentType":5123,"count":132,"type":"SCALAR"},{"bufferView":25,"componentType":5126,"count":24,"max":[0.4633325934410095,1.2585699558258057,0.1221001148223877],"min":[-0.10333257913589478,0.8414300084114075,0.027899891138076782],"type":"VEC3"},{"bufferView":26,"componentType":5126,"count":24,"type":"VEC3"},{"bufferView":27,"componentType":5126,"count":24,"type":"VEC2"},{"bufferView":28,"componentType":5123,"count":36,"type":"SCALAR"}],"bufferViews":[{"buffer":0,"byteLength":1152,"byteOffset":0,"target":34962},{"buffer":0,"byteLength":1152,"byteOffset":1152,"target":34962},{"buffer":0,"byteLength":768,"byteOffset":2304,"target":34962},{"buffer":0,"byteLength":264,"byteOffset":3072,"target":34963},{"buffer":0,"byteLength":1152,"byteOffset":3336,"target":34962},{"buffer":0,"byteLength":1152,"byteOffset":4488,"target":34962},{"buffer":0,"byteLength":768,"byteOffset":5640,"target":34962},{"buffer":0,"byteLength":264,"byteOffset":6408,"target":34963},{"buffer":0,"byteLength":1152,"byteOffset":6672,"target":34962},{"buffer":0,"byteLength":1152,"byteOffset":7824,"target":34962},{"buffer":0,"byteLength":768,"byteOffset":8976,"target":34962},{"buffer":0,"byteLength":1152,"byteOffset":9744,"target":34962},{"buffer":0,"byteLength":1152,"byteOffset":10896,"target":34962},{"buffer":0,"byteLength":768,"byteOffset":12048,"target":34962},{"buffer":0,"byteLength":264,"byteOffset":12816,"target":34963},{"buffer":0,"byteLength":1152,"byteOffset":13080,"target":34962},{"buffer":0,"byteLength":1152,"byteOffset":14232,"target":34962},{"buffer":0,"byteLength":768,"byteOffset":15384,"target":34962},{"buffer":0,"byteLength":1152,"byteOffset":16152,"target":34962},{"buffer":0,"byteLength":1152,"byteOffset":17304,"target":34962},{"buffer":0,"byteLength":768,"byteOffset":18456,"target":34962},{"buffer":0,"byteLength":1152,"byteOffset":19224,"target":34962},{"buffer":0,"byteLength":1152,"byteOffset":20376,"target":34962},{"buffer":0,"byteLength":768,"byteOffset":21528,"target":34962},{"buffer":0,"byteLength":264,"byteOffset":22296,"target":34963},{"buffer":0,"byteLength":288,"byteOffset":22560,"target":34962},{"buffer":0,"byteLength":288,"byteOffset":22848,"target":34962},{"buffer":0,"byteLength":192,"byteOffset":23136,"target":34962},{"buffer":0,"byteLength":72,"byteOffset":23328,"target":34963}],"buffers":[{"byteLength":23400,"uri":"data:application/octet-stream;base64,"}]}
