{"asset":{"generator":"Khronos glTF Blender I/O v4.0.44","version":"2.0"},"scene":0,"scenes":[{"name":"Scene","nodes":[0,1,2]}],"nodes":[{"extras":{"titancraft_visual_only":true,"titancraft_collision":"none"},"mesh":0,"name":"TC_DistantSilhouette_AlienArc_Ring"},{"extras":{"titancraft_visual_only":true,"titancraft_collision":"none"},"mesh":1,"name":"TC_DistantSilhouette_AlienArc_SpineA"},{"extras":{"titancraft_visual_only":true,"titancraft_collision":"none"},"mesh":2,"name":"TC_DistantSilhouette_AlienArc_SpineB"}],"materials":[{"doubleSided":true,"name":"TC_DistantSilhouette_AlienPlate","pbrMetallicRoughness":{"baseColorFactor":[0.05999999865889549,0.05000000074505806,0.09000000357627869,1],"metallicFactor":0.4000000059604645,"roughnessFactor":0.6000000238418579}}],"meshes":[{"name":"Torus","primitives":[{"attributes":{"POSITION":0,"NORMAL":1,"TEXCOORD_0":2},"indices":3,"material":0}]},{"name":"Cone","primitives":[{"attributes":{"POSITION":4,"NORMAL":5,"TEXCOORD_0":6},"indices":7,"material":0}]},{"name":"Cone.001","primitives":[{"attributes":{"POSITION":8,"NORMAL":9,"TEXCOORD_0":10},"indices":11,"material":0}]}],"accessors":[{"bufferView":0,"componentType":5126,"count":128,"max":[1.721539855003357,1.926369071006775,1.712109088897705],"min":[-1.721539855003357,1.273630976676941,-1.712109088897705],"type":"VEC3"},{"bufferView":1,"componentType":5126,"count":128,"type":"VEC3"},{"bufferView":2,"componentType":5126,"count":128,"type":"VEC2"},{"bufferView":3,"componentType":5123,"count":192,"type":"SCALAR"},{"bufferView":4,"componentType":5126,"count":24,"max":[-1.0050238370895386,1.1990480422973633,0.20435377955436707],"min":[-1.4174814224243164,-0.12264978885650635,-0.2467251718044281],"type":"VEC3"},{"bufferView":5,"componentType":5126,"count":24,"type":"VEC3"},{"bufferView":6,"componentType":5126,"count":24,"type":"VEC2"},{"bufferView":7,"componentType":5123,"count":36,"type":"SCALAR"},{"bufferView":8,"componentType":5126,"count":24,"max":[1.5549700260162354,1.098266839981079,0.22235098481178284],"min":[1.1754741668701172,-0.12048035860061646,-0.15556937456130981],"type":"VEC3"},{"bufferView":9,"componentType":5126,"count":24,"type":"VEC3"},{"bufferView":10,"componentType":5126,"count":24,"type":"VEC2"},{"bufferView":11,"componentType":5123,"count":36,"type":"SCALAR"}],"bufferViews":[{"buffer":0,"byteLength":1536,"byteOffset":0,"target":34962},{"buffer":0,"byteLength":1536,"byteOffset":1536,"target":34962},{"buffer":0,"byteLength":1024,"byteOffset":3072,"target":34962},{"buffer":0,"byteLength":384,"byteOffset":4096,"target":34963},{"buffer":0,"byteLength":288,"byteOffset":4480,"target":34962},{"buffer":0,"byteLength":288,"byteOffset":4768,"target":34962},{"buffer":0,"byteLength":192,"byteOffset":5056,"target":34962},{"buffer":0,"byteLength":72,"byteOffset":5248,"target":34963},{"buffer":0,"byteLength":288,"byteOffset":5320,"target":34962},{"buffer":0,"byteLength":288,"byteOffset":5608,"target":34962},{"buffer":0,"byteLength":192,"byteOffset":5896,"target":34962},{"buffer":0,"byteLength":72,"byteOffset":6088,"target":34963}],"buffers":[{"byteLength":6160,"uri":"data:application/octet-stream;base64,"}]}
