{"asset":{"generator":"Khronos glTF Blender I/O v4.0.44","version":"2.0"},"scene":0,"scenes":[{"name":"Scene","nodes":[0,1,2,3,4,5,6,7]}],"nodes":[{"extras":{"titancraft_visual_only":true,"titancraft_collision":"none"},"mesh":0,"name":"TC_Metal_Shard_0"},{"extras":{"titancraft_visual_only":true,"titancraft_collision":"none"},"mesh":1,"name":"TC_Metal_Shard_1"},{"extras":{"titancraft_visual_only":true,"titancraft_collision":"none"},"mesh":2,"name":"TC_Metal_Shard_2"},{"extras":{"titancraft_visual_only":true,"titancraft_collision":"none"},"mesh":3,"name":"TC_Metal_Shard_3"},{"extras":{"titancraft_visual_only":true,"titancraft_collision":"none"},"mesh":4,"name":"TC_Metal_Shard_4"},{"extras":{"titancraft_visual_only":true,"titancraft_collision":"none"},"mesh":5,"name":"TC_Metal_Shard_5"},{"extras":{"titancraft_visual_only":true,"titancraft_collision":"none"},"mesh":6,"name":"TC_Metal_Shard_6"},{"extras":{"titancraft_visual_only":true,"titancraft_collision":"none"},"mesh":7,"name":"TC_Metal_PaintMark"}],"materials":[{"doubleSided":true,"name":"TC_MVP_SteelScrap","pbrMetallicRoughness":{"baseColorFactor":[0.4000000059604645,0.4099999964237213,0.4300000071525574,1],"metallicFactor":0.8999999761581421,"roughnessFactor":0.41999998688697815}},{"doubleSided":true,"name":"TC_MVP_HullBeige","pbrMetallicRoughness":{"baseColorFactor":[0.4779999852180481,0.4350000023841858,0.35600000619888306,1],"metallicFactor":0.11999999731779099,"roughnessFactor":0.6200000047683716}},{"doubleSided":true,"name":"TC_MVP_OrangePaint","pbrMetallicRoughness":{"baseColorFactor":[0.7200000286102295,0.23000000417232513,0.03500000014901161,1],"metallicFactor":0,"roughnessFactor":0.41999998688697815}}],"meshes":[{"name":"Cone","primitives":[{"attributes":{"POSITION":0,"NORMAL":1,"TEXCOORD_0":2},"indices":3,"material":0}]},{"name":"Cone.001","primitives":[{"attributes":{"POSITION":4,"NORMAL":5,"TEXCOORD_0":6},"indices":7,"material":0}]},{"name":"Cone.002","primitives":[{"attributes":{"POSITION":8,"NORMAL":9,"TEXCOORD_0":10},"indices":11,"material":1}]},{"name":"Cone.003","primitives":[{"attributes":{"POSITION":12,"NORMAL":13,"TEXCOORD_0":14},"indices":15,"material":0}]},{"name":"Cone.004","primitives":[{"attributes":{"POSITION":16,"NORMAL":17,"TEXCOORD_0":18},"indices":19,"material":0}]},{"name":"Cone.005","primitives":[{"attributes":{"POSITION":20,"NORMAL":21,"TEXCOORD_0":22},"indices":23,"material":1}]},{"name":"Cone.006","primitives":[{"attributes":{"POSITION":24,"NORMAL":25,"TEXCOORD_0":26},"indices":27,"material":0}]},{"name":"Cube","primitives":[{"attributes":{"POSITION":28,"NORMAL":29,"TEXCOORD_0":30},"indices":31,"material":2}]}],"accessors":[{"bufferView":0,"componentType":5126,"count":76,"max":[0.10227656364440918,0.05059709772467613,0.14578430354595184],"min":[-0.12795817852020264,-0.002805868163704872,-0.2145070880651474],"type":"VEC3"},{"bufferView":1,"componentType":5126,"count":76,"type":"VEC3"},{"bufferView":2,"componentType":5126,"count":76,"type":"VEC2"},{"bufferView":3,"componentType":5123,"count":108,"type":"SCALAR"},{"bufferView":4,"componentType":5126,"count":76,"max":[0.2439032346010208,0.08436395227909088,0.04335975646972656],"min":[-0.09948301315307617,0.025665681809186935,-0.12938235700130463],"type":"VEC3"},{"bufferView":5,"componentType":5126,"count":76,"type":"VEC3"},{"bufferView":6,"componentType":5126,"count":76,"type":"VEC2"},{"bufferView":7,"componentType":5123,"count":108,"type":"SCALAR"},{"bufferView":8,"componentType":5126,"count":76,"max":[0.09945962578058243,0.10438449680805206,0.27519065141677856],"min":[-0.33458954095840454,-0.005871972069144249,0.03145601600408554],"type":"VEC3"},{"bufferView":9,"componentType":5126,"count":76,"type":"VEC3"},{"bufferView":10,"componentType":5126,"count":76,"type":"VEC2"},{"bufferView":11,"componentType":5123,"count":108,"type":"SCALAR"},{"bufferView":12,"componentType":5126,"count":76,"max":[0.1428203582763672,0.09565863758325577,0.1365111619234085],"min":[-0.1438804417848587,0.05018150433897972,-0.14637605845928192],"type":"VEC3"},{"bufferView":13,"componentType":5126,"count":76,"type":"VEC3"},{"bufferView":14,"componentType":5126,"count":76,"type":"VEC2"},{"bufferView":15,"componentType":5123,"count":108,"type":"SCALAR"},{"bufferView":16,"componentType":5126,"count":76,"max":[0.14269842207431793,0.09601131081581116,0.21409153938293457],"min":[-0.1368173062801361,0.054408784955739975,-0.1607746183872223],"type":"VEC3"},{"bufferView":17,"componentType":5126,"count":76,"type":"VEC3"},{"bufferView":18,"componentType":5126,"count":76,"type":"VEC2"},{"bufferView":19,"componentType":5123,"count":108,"type":"SCALAR"},{"bufferView":20,"componentType":5126,"count":76,"max":[0.1283203661441803,0.12465712428092957,0.10413625836372375],"min":[-0.18126805126667023,0.06856849044561386,-0.20561891794204712],"type":"VEC3"},{"bufferView":21,"componentType":5126,"count":76,"type":"VEC3"},{"bufferView":22,"componentType":5126,"count":76,"type":"VEC2"},{"bufferView":23,"componentType":5123,"count":108,"type":"SCALAR"},{"bufferView":24,"componentType":5126,"count":76,"max":[0.11470182240009308,0.1498473584651947,0.23491182923316956],"min":[-0.14836902916431427,0.08971413969993591,-0.10702664405107498],"type":"VEC3"},{"bufferView":25,"componentType":5126,"count":76,"type":"VEC3"},{"bufferView":26,"componentType":5126,"count":76,"type":"VEC2"},{"bufferView":27,"componentType":5123,"count":108,"type":"SCALAR"},{"bufferView":28,"componentType":5126,"count":24,"max":[0.10607174038887024,0.1296127289533615,0.06701220571994781],"min":[-0.00607173889875412,0.10038727521896362,-0.027012210339307785],"type":"VEC3"},{"bufferView":29,"componentType":5126,"count":24,"type":"VEC3"},{"bufferView":30,"componentType":5126,"count":24,"type":"VEC2"},{"bufferView":31,"componentType":5123,"count":36,"type":"SCALAR"}],"bufferViews":[{"buffer":0,"byteLength":912,"byteOffset":0,"target":34962},{"buffer":0,"byteLength":912,"byteOffset":912,"target":34962},{"buffer":0,"byteLength":608,"byteOffset":1824,"target":34962},{"buffer":0,"byteLength":216,"byteOffset":2432,"target":34963},{"buffer":0,"byteLength":912,"byteOffset":2648,"target":34962},{"buffer":0,"byteLength":912,"byteOffset":3560,"target":34962},{"buffer":0,"byteLength":608,"byteOffset":4472,"target":34962},{"buffer":0,"byteLength":216,"byteOffset":5080,"target":34963},{"buffer":0,"byteLength":912,"byteOffset":5296,"target":34962},{"buffer":0,"byteLength":912,"byteOffset":6208,"target":34962},{"buffer":0,"byteLength":608,"byteOffset":7120,"target":34962},{"buffer":0,"byteLength":216,"byteOffset":7728,"target":34963},{"buffer":0,"byteLength":912,"byteOffset":7944,"target":34962},{"buffer":0,"byteLength":912,"byteOffset":8856,"target":34962},{"buffer":0,"byteLength":608,"byteOffset":9768,"target":34962},{"buffer":0,"byteLength":216,"byteOffset":10376,"target":34963},{"buffer":0,"byteLength":912,"byteOffset":10592,"target":34962},{"buffer":0,"byteLength":912,"byteOffset":11504,"target":34962},{"buffer":0,"byteLength":608,"byteOffset":12416,"target":34962},{"buffer":0,"byteLength":216,"byteOffset":13024,"target":34963},{"buffer":0,"byteLength":912,"byteOffset":13240,"target":34962},{"buffer":0,"byteLength":912,"byteOffset":14152,"target":34962},{"buffer":0,"byteLength":608,"byteOffset":15064,"target":34962},{"buffer":0,"byteLength":216,"byteOffset":15672,"target":34963},{"buffer":0,"byteLength":912,"byteOffset":15888,"target":34962},{"buffer":0,"byteLength":912,"byteOffset":16800,"target":34962},{"buffer":0,"byteLength":608,"byteOffset":17712,"target":34962},{"buffer":0,"byteLength":216,"byteOffset":18320,"target":34963},{"buffer":0,"byteLength":288,"byteOffset":18536,"target":34962},{"buffer":0,"byteLength":288,"byteOffset":18824,"target":34962},{"buffer":0,"byteLength":192,"byteOffset":19112,"target":34962},{"buffer":0,"byteLength":72,"byteOffset":19304,"target":34963}],"buffers":[{"byteLength":19376,"uri":"data:application/octet-stream;base64,"}]}
