{"asset":{"generator":"Khronos glTF Blender I/O v4.0.44","version":"2.0"},"extensionsUsed":["KHR_materials_emissive_strength"],"scene":0,"scenes":[{"name":"Scene","nodes":[0,1,2,3,4,5,6,7,8,9,10,11,12,13,14,15]}],"nodes":[{"extras":{"titancraft_visual_only":true,"titancraft_collision":"none"},"mesh":0,"name":"TC_Arm_Segment_0"},{"extras":{"titancraft_visual_only":true,"titancraft_collision":"none"},"mesh":1,"name":"TC_Arm_Seam_0"},{"extras":{"titancraft_visual_only":true,"titancraft_collision":"none"},"mesh":2,"name":"TC_Arm_Segment_1"},{"extras":{"titancraft_visual_only":true,"titancraft_collision":"none"},"mesh":3,"name":"TC_Arm_Seam_1"},{"extras":{"titancraft_visual_only":true,"titancraft_collision":"none"},"mesh":4,"name":"TC_Arm_Segment_2"},{"extras":{"titancraft_visual_only":true,"titancraft_collision":"none"},"mesh":5,"name":"TC_Arm_Seam_2"},{"extras":{"titancraft_visual_only":true,"titancraft_collision":"none"},"mesh":6,"name":"TC_Arm_Elbow"},{"extras":{"titancraft_visual_only":true,"titancraft_collision":"none"},"mesh":7,"name":"TC_Arm_TopPlate"},{"extras":{"titancraft_visual_only":true,"titancraft_collision":"none"},"mesh":8,"name":"TC_Arm_StripePlate"},{"extras":{"titancraft_visual_only":true,"titancraft_collision":"none"},"mesh":9,"name":"TC_Arm_Wrist"},{"extras":{"titancraft_visual_only":true,"titancraft_collision":"none"},"mesh":10,"name":"TC_Arm_Palm"},{"extras":{"titancraft_visual_only":true,"titancraft_collision":"none"},"mesh":11,"name":"TC_Arm_Finger_0"},{"extras":{"titancraft_visual_only":true,"titancraft_collision":"none"},"mesh":12,"name":"TC_Arm_Finger_1"},{"extras":{"titancraft_visual_only":true,"titancraft_collision":"none"},"mesh":13,"name":"TC_Arm_Finger_2"},{"extras":{"titancraft_visual_only":true,"titancraft_collision":"none"},"mesh":14,"name":"TC_Arm_Thumb"},{"extras":{"titancraft_visual_only":true,"titancraft_collision":"none"},"mesh":15,"name":"TC_Arm_Knuckle"}],"materials":[{"doubleSided":true,"name":"TC_MVP_HullBeige","pbrMetallicRoughness":{"baseColorFactor":[0.4779999852180481,0.4350000023841858,0.35600000619888306,1],"metallicFactor":0.11999999731779099,"roughnessFactor":0.6200000047683716}},{"doubleSided":true,"emissiveFactor":[0.47999998927116394,0.18000000715255737,1],"extensions":{"KHR_materials_emissive_strength":{"emissiveStrength":5}},"name":"TC_MVP_PurpleGlow","pbrMetallicRoughness":{"baseColorFactor":[0.009999999776482582,0,0.029999999329447746,1],"metallicFactor":0,"roughnessFactor":0.30000001192092896}},{"doubleSided":true,"name":"TC_MVP_MidMetal","pbrMetallicRoughness":{"baseColorFactor":[0.18000000715255737,0.1899999976158142,0.20499999821186066,1],"metallicFactor":0.75,"roughnessFactor":0.44999998807907104}},{"doubleSided":true,"name":"TC_MVP_DarkMetal","pbrMetallicRoughness":{"baseColorFactor":[0.04500000178813934,0.05000000074505806,0.057999998331069946,1],"metallicFactor":0.6499999761581421,"roughnessFactor":0.47999998927116394}},{"doubleSided":true,"name":"TC_MVP_OrangePaint","pbrMetallicRoughness":{"baseColorFactor":[0.7200000286102295,0.23000000417232513,0.03500000014901161,1],"metallicFactor":0,"roughnessFactor":0.41999998688697815}}],"meshes":[{"name":"Cylinder","primitives":[{"attributes":{"POSITION":0,"NORMAL":1,"TEXCOORD_0":2},"indices":3,"material":0}]},{"name":"Cylinder.001","primitives":[{"attributes":{"POSITION":4,"NORMAL":5,"TEXCOORD_0":6},"indices":7,"material":1}]},{"name":"Cylinder.002","primitives":[{"attributes":{"POSITION":8,"NORMAL":9,"TEXCOORD_0":10},"indices":3,"material":2}]},{"name":"Cylinder.003","primitives":[{"attributes":{"POSITION":11,"NORMAL":12,"TEXCOORD_0":13},"indices":7,"material":1}]},{"name":"Cylinder.004","primitives":[{"attributes":{"POSITION":14,"NORMAL":15,"TEXCOORD_0":16},"indices":3,"material":0}]},{"name":"Cylinder.005","primitives":[{"attributes":{"POSITION":17,"NORMAL":18,"TEXCOORD_0":19},"indices":7,"material":1}]},{"name":"Cylinder.006","primitives":[{"attributes":{"POSITION":20,"NORMAL":21,"TEXCOORD_0":22},"indices":3,"material":3}]},{"name":"Cube","primitives":[{"attributes":{"POSITION":23,"NORMAL":24,"TEXCOORD_0":25},"indices":26,"material":3}]},{"name":"Cube.001","primitives":[{"attributes":{"POSITION":27,"NORMAL":28,"TEXCOORD_0":29},"indices":26,"material":4}]},{"name":"Cylinder.007","primitives":[{"attributes":{"POSITION":30,"NORMAL":31,"TEXCOORD_0":32},"indices":3,"material":3}]},{"name":"Cube.002","primitives":[{"attributes":{"POSITION":33,"NORMAL":34,"TEXCOORD_0":35},"indices":26,"material":2}]},{"name":"Cube.003","primitives":[{"attributes":{"POSITION":36,"NORMAL":37,"TEXCOORD_0":38},"indices":26,"material":3}]},{"name":"Cube.004","primitives":[{"attributes":{"POSITION":39,"NORMAL":40,"TEXCOORD_0":41},"indices":26,"material":3}]},{"name":"Cube.005","primitives":[{"attributes":{"POSITION":42,"NORMAL":43,"TEXCOORD_0":44},"indices":26,"material":3}]},{"name":"Cube.006","primitives":[{"attributes":{"POSITION":45,"NORMAL":46,"TEXCOORD_0":47},"indices":48,"material":3}]},{"name":"Cube.007","primitives":[{"attributes":{"POSITION":49,"NORMAL":50,"TEXCOORD_0":51},"indices":52,"material":1}]}],"accessors":[{"bufferView":0,"componentType":5126,"count":140,"max":[0.14741376042366028,0.32499998807907104,7.450580596923828e-09],"min":[-0.14741376042366028,0.015000000596046448,-0.20000001788139343],"type":"VEC3"},{"bufferView":1,"componentType":5126,"count":140,"type":"VEC3"},{"bufferView":2,"componentType":5126,"count":140,"type":"VEC2"},{"bufferView":3,"componentType":5123,"count":228,"type":"SCALAR"},{"bufferView":4,"componentType":5126,"count":60,"max":[0.12087929248809814,0.2971000075340271,-0.2029999941587448],"min":[-0.12087929248809814,0.04289999604225159,-0.22100000083446503],"type":"VEC3"},{"bufferView":5,"componentType":5126,"count":60,"type":"VEC3"},{"bufferView":6,"componentType":5126,"count":60,"type":"VEC2"},{"bufferView":7,"componentType":5123,"count":108,"type":"SCALAR"},{"bufferView":8,"componentType":5126,"count":140,"max":[0.13790319859981537,0.3149999976158142,-0.22999998927116394],"min":[-0.13790319859981537,0.025000005960464478,-0.4099999964237213],"type":"VEC3"},{"bufferView":9,"componentType":5126,"count":140,"type":"VEC3"},{"bufferView":10,"componentType":5126,"count":140,"type":"VEC2"},{"bufferView":11,"componentType":5126,"count":60,"max":[0.11308062076568604,0.2889000177383423,-0.4129999876022339],"min":[-0.11308062076568604,0.051100000739097595,-0.4309999942779541],"type":"VEC3"},{"bufferView":12,"componentType":5126,"count":60,"type":"VEC3"},{"bufferView":13,"componentType":5126,"count":60,"type":"VEC2"},{"bufferView":14,"componentType":5126,"count":140,"max":[0.12839263677597046,0.3050000071525574,-0.44999998807907104],"min":[-0.12839263677597046,0.034999996423721313,-0.5899999737739563],"type":"VEC3"},{"bufferView":15,"componentType":5126,"count":140,"type":"VEC3"},{"bufferView":16,"componentType":5126,"count":140,"type":"VEC2"},{"bufferView":17,"componentType":5126,"count":60,"max":[0.10528195649385452,0.2806999981403351,-0.5929999947547913],"min":[-0.10528195649385452,0.059300005435943604,-0.6110000014305115],"type":"VEC3"},{"bufferView":18,"componentType":5126,"count":60,"type":"VEC3"},{"bufferView":19,"componentType":5126,"count":60,"type":"VEC2"},{"bufferView":20,"componentType":5126,"count":140,"max":[0.15692433714866638,0.33500000834465027,0.09000000357627869],"min":[-0.15692433714866638,0.004999995231628418,-0.010000009089708328],"type":"VEC3"},{"bufferView":21,"componentType":5126,"count":140,"type":"VEC3"},{"bufferView":22,"componentType":5126,"count":140,"type":"VEC2"},{"bufferView":23,"componentType":5126,"count":96,"max":[0.07999999821186066,0.3525000214576721,-0.09000001847743988],"min":[-0.07999999821186066,0.3174999952316284,-0.5099999904632568],"type":"VEC3"},{"bufferView":24,"componentType":5126,"count":96,"type":"VEC3"},{"bufferView":25,"componentType":5126,"count":96,"type":"VEC2"},{"bufferView":26,"componentType":5123,"count":132,"type":"SCALAR"},{"bufferView":27,"componentType":5126,"count":96,"max":[0.14000000059604645,0.26499998569488525,-0.14000000059604645],"min":[0.11999999731779099,0.2149999886751175,-0.30000001192092896],"type":"VEC3"},{"bufferView":28,"componentType":5126,"count":96,"type":"VEC3"},{"bufferView":29,"componentType":5126,"count":96,"type":"VEC2"},{"bufferView":30,"componentType":5126,"count":140,"max":[0.09510565549135208,0.27000001072883606,-0.6200000047683716],"min":[-0.09510565549135208,0.07000000029802322,-0.7000000476837158],"type":"VEC3"},{"bufferView":31,"componentType":5126,"count":140,"type":"VEC3"},{"bufferView":32,"componentType":5126,"count":140,"type":"VEC2"},{"bufferView":33,"componentType":5126,"count":96,"max":[0.10000000149011612,0.27000001072883606,-0.699999988079071],"min":[-0.10000000149011612,0.07000000029802322,-0.85999995470047],"type":"VEC3"},{"bufferView":34,"componentType":5126,"count":96,"type":"VEC3"},{"bufferView":35,"componentType":5126,"count":96,"type":"VEC2"},{"bufferView":36,"componentType":5126,"count":96,"max":[-0.03999999910593033,0.2252749651670456,-0.8477030992507935],"min":[-0.08999999612569809,0.15472503006458282,-0.9522968530654907],"type":"VEC3"},{"bufferView":37,"componentType":5126,"count":96,"type":"VEC3"},{"bufferView":38,"componentType":5126,"count":96,"type":"VEC2"},{"bufferView":39,"componentType":5126,"count":96,"max":[0.02500000037252903,0.2252749651670456,-0.8477030992507935],"min":[-0.02500000037252903,0.15472503006458282,-0.9522968530654907],"type":"VEC3"},{"bufferView":40,"componentType":5126,"count":96,"type":"VEC3"},{"bufferView":41,"componentType":5126,"count":96,"type":"VEC2"},{"bufferView":42,"componentType":5126,"count":96,"max":[0.08999999612569809,0.2252749651670456,-0.8477030992507935],"min":[0.03999999910593033,0.15472503006458282,-0.9522968530654907],"type":"VEC3"},{"bufferView":43,"componentType":5126,"count":96,"type":"VEC3"},{"bufferView":44,"componentType":5126,"count":96,"type":"VEC2"},{"bufferView":45,"componentType":5126,"count":96,"max":[-0.08453697711229324,0.13500000536441803,-0.7525835037231445],"min":[-0.15546302497386932,0.08500000089406967,-0.8474165201187134],"type":"VEC3"},{"bufferView":46,"componentType":5126,"count":96,"type":"VEC3"},{"bufferView":47,"componentType":5126,"count":96,"type":"VEC2"},{"bufferView":48,"componentType":5123,"count":132,"type":"SCALAR"},{"bufferView":49,"componentType":5126,"count":24,"max":[0.07500000298023224,0.2549999952316284,-0.8460000157356262],"min":[-0.07500000298023224,0.23499999940395355,-0.8659999966621399],"type":"VEC3"},{"bufferView":50,"componentType":5126,"count":24,"type":"VEC3"},{"bufferView":51,"componentType":5126,"count":24,"type":"VEC2"},{"bufferView":52,"componentType":5123,"count":36,"type":"SCALAR"}],"bufferViews":[{"buffer":0,"byteLength":1680,"byteOffset":0,"target":34962},{"buffer":0,"byteLength":1680,"byteOffset":1680,"target":34962},{"buffer":0,"byteLength":1120,"byteOffset":3360,"target":34962},{"buffer":0,"byteLength":456,"byteOffset":4480,"target":34963},{"buffer":0,"byteLength":720,"byteOffset":4936,"target":34962},{"buffer":0,"byteLength":720,"byteOffset":5656,"target":34962},{"buffer":0,"byteLength":480,"byteOffset":6376,"target":34962},{"buffer":0,"byteLength":216,"byteOffset":6856,"target":34963},{"buffer":0,"byteLength":1680,"byteOffset":7072,"target":34962},{"buffer":0,"byteLength":1680,"byteOffset":8752,"target":34962},{"buffer":0,"byteLength":1120,"byteOffset":10432,"target":34962},{"buffer":0,"byteLength":720,"byteOffset":11552,"target":34962},{"buffer":0,"byteLength":720,"byteOffset":12272,"target":34962},{"buffer":0,"byteLength":480,"byteOffset":12992,"target":34962},{"buffer":0,"byteLength":1680,"byteOffset":13472,"target":34962},{"buffer":0,"byteLength":1680,"byteOffset":15152,"target":34962},{"buffer":0,"byteLength":1120,"byteOffset":16832,"target":34962},{"buffer":0,"byteLength":720,"byteOffset":17952,"target":34962},{"buffer":0,"byteLength":720,"byteOffset":18672,"target":34962},{"buffer":0,"byteLength":480,"byteOffset":19392,"target":34962},{"buffer":0,"byteLength":1680,"byteOffset":19872,"target":34962},{"buffer":0,"byteLength":1680,"byteOffset":21552,"target":34962},{"buffer":0,"byteLength":1120,"byteOffset":23232,"target":34962},{"buffer":0,"byteLength":1152,"byteOffset":24352,"target":34962},{"buffer":0,"byteLength":1152,"byteOffset":25504,"target":34962},{"buffer":0,"byteLength":768,"byteOffset":26656,"target":34962},{"buffer":0,"byteLength":264,"byteOffset":27424,"target":34963},{"buffer":0,"byteLength":1152,"byteOffset":27688,"target":34962},{"buffer":0,"byteLength":1152,"byteOffset":28840,"target":34962},{"buffer":0,"byteLength":768,"byteOffset":29992,"target":34962},{"buffer":0,"byteLength":1680,"byteOffset":30760,"target":34962},{"buffer":0,"byteLength":1680,"byteOffset":32440,"target":34962},{"buffer":0,"byteLength":1120,"byteOffset":34120,"target":34962},{"buffer":0,"byteLength":1152,"byteOffset":35240,"target":34962},{"buffer":0,"byteLength":1152,"byteOffset":36392,"target":34962},{"buffer":0,"byteLength":768,"byteOffset":37544,"target":34962},{"buffer":0,"byteLength":1152,"byteOffset":38312,"target":34962},{"buffer":0,"byteLength":1152,"byteOffset":39464,"target":34962},{"buffer":0,"byteLength":768,"byteOffset":40616,"target":34962},{"buffer":0,"byteLength":1152,"byteOffset":41384,"target":34962},{"buffer":0,"byteLength":1152,"byteOffset":42536,"target":34962},{"buffer":0,"byteLength":768,"byteOffset":43688,"target":34962},{"buffer":0,"byteLength":1152,"byteOffset":44456,"target":34962},{"buffer":0,"byteLength":1152,"byteOffset":45608,"target":34962},{"buffer":0,"byteLength":768,"byteOffset":46760,"target":34962},{"buffer":0,"byteLength":1152,"byteOffset":47528,"target":34962},{"buffer":0,"byteLength":1152,"byteOffset":48680,"target":34962},{"buffer":0,"byteLength":768,"byteOffset":49832,"target":34962},{"buffer":0,"byteLength":264,"byteOffset":50600,"target":34963},{"buffer":0,"byteLength":288,"byteOffset":50864,"target":34962},{"buffer":0,"byteLength":288,"byteOffset":51152,"target":34962},{"buffer":0,"byteLength":192,"byteOffset":51440,"target":34962},{"buffer":0,"byteLength":72,"byteOffset":51632,"target":34963}],"buffers":[{"byteLength":51704,"uri":"data:application/octet-stream;base64,"}]}
