{"asset":{"generator":"Khronos glTF Blender I/O v4.0.44","version":"2.0"},"extensionsUsed":["KHR_materials_emissive_strength"],"scene":0,"scenes":[{"name":"Scene","nodes":[0,1,2,3,4,5,6,7,8,9,10,11,12]}],"nodes":[{"extras":{"titancraft_visual_only":true,"titancraft_collision":"none"},"mesh":0,"name":"TC_Beacon_Plinth"},{"extras":{"titancraft_visual_only":true,"titancraft_collision":"none"},"mesh":1,"name":"TC_Beacon_Ring"},{"extras":{"titancraft_visual_only":true,"titancraft_collision":"none"},"mesh":2,"name":"TC_Beacon_Mount"},{"extras":{"titancraft_visual_only":true,"titancraft_collision":"none"},"mesh":3,"name":"TC_Beacon_WarnPlate"},{"extras":{"titancraft_visual_only":true,"titancraft_collision":"none"},"mesh":4,"name":"TC_Beacon_LED"},{"extras":{"titancraft_visual_only":true,"titancraft_collision":"none"},"mesh":5,"name":"TC_Beacon_Petal_0"},{"extras":{"titancraft_visual_only":true,"titancraft_collision":"none"},"mesh":6,"name":"TC_Beacon_PetalSpine_0"},{"extras":{"titancraft_visual_only":true,"titancraft_collision":"none"},"mesh":7,"name":"TC_Beacon_Petal_1"},{"extras":{"titancraft_visual_only":true,"titancraft_collision":"none"},"mesh":8,"name":"TC_Beacon_PetalSpine_1"},{"extras":{"titancraft_visual_only":true,"titancraft_collision":"none"},"mesh":9,"name":"TC_Beacon_Petal_2"},{"extras":{"titancraft_visual_only":true,"titancraft_collision":"none"},"mesh":10,"name":"TC_Beacon_PetalSpine_2"},{"extras":{"titancraft_visual_only":true,"titancraft_collision":"none"},"mesh":11,"name":"TC_Beacon_Petal_3"},{"extras":{"titancraft_visual_only":true,"titancraft_collision":"none"},"mesh":12,"name":"TC_Beacon_PetalSpine_3"}],"materials":[{"doubleSided":true,"name":"TC_MVP_DarkMetal","pbrMetallicRoughness":{"baseColorFactor":[0.04500000178813934,0.05000000074505806,0.057999998331069946,1],"metallicFactor":0.6499999761581421,"roughnessFactor":0.47999998927116394}},{"doubleSided":true,"name":"TC_MVP_HullBeige","pbrMetallicRoughness":{"baseColorFactor":[0.4779999852180481,0.4350000023841858,0.35600000619888306,1],"metallicFactor":0.11999999731779099,"roughnessFactor":0.6200000047683716}},{"doubleSided":true,"name":"TC_MVP_OrangePaint","pbrMetallicRoughness":{"baseColorFactor":[0.7200000286102295,0.23000000417232513,0.03500000014901161,1],"metallicFactor":0,"roughnessFactor":0.41999998688697815}},{"doubleSided":true,"emissiveFactor":[1,0.05999999865889549,0.03999999910593033],"extensions":{"KHR_materials_emissive_strength":{"emissiveStrength":4}},"name":"TC_MVP_RedLED","pbrMetallicRoughness":{"baseColorFactor":[0.019999999552965164,0,0,1],"metallicFactor":0,"roughnessFactor":0.30000001192092896}}],"meshes":[{"name":"Cylinder","primitives":[{"attributes":{"POSITION":0,"NORMAL":1,"TEXCOORD_0":2},"indices":3,"material":0}]},{"name":"Cylinder.001","primitives":[{"attributes":{"POSITION":4,"NORMAL":5,"TEXCOORD_0":6},"indices":3,"material":1}]},{"name":"Cylinder.002","primitives":[{"attributes":{"POSITION":7,"NORMAL":8,"TEXCOORD_0":9},"indices":10,"material":0}]},{"name":"Cube","primitives":[{"attributes":{"POSITION":11,"NORMAL":12,"TEXCOORD_0":13},"indices":14,"material":2}]},{"name":"Cube.001","primitives":[{"attributes":{"POSITION":15,"NORMAL":16,"TEXCOORD_0":17},"indices":18,"material":3}]},{"name":"Cone","primitives":[{"attributes":{"POSITION":19,"NORMAL":20,"TEXCOORD_0":21},"indices":22,"material":1}]},{"name":"Cone.001","primitives":[{"attributes":{"POSITION":23,"NORMAL":24,"TEXCOORD_0":25},"indices":26,"material":0}]},{"name":"Cone.002","primitives":[{"attributes":{"POSITION":27,"NORMAL":28,"TEXCOORD_0":29},"indices":30,"material":1}]},{"name":"Cone.003","primitives":[{"attributes":{"POSITION":31,"NORMAL":32,"TEXCOORD_0":33},"indices":34,"material":0}]},{"name":"Cone.004","primitives":[{"attributes":{"POSITION":35,"NORMAL":36,"TEXCOORD_0":37},"indices":38,"material":1}]},{"name":"Cone.005","primitives":[{"attributes":{"POSITION":39,"NORMAL":40,"TEXCOORD_0":41},"indices":42,"material":0}]},{"name":"Cone.006","primitives":[{"attributes":{"POSITION":43,"NORMAL":44,"TEXCOORD_0":45},"indices":46,"material":1}]},{"name":"Cone.007","primitives":[{"attributes":{"POSITION":47,"NORMAL":48,"TEXCOORD_0":49},"indices":50,"material":0}]}],"accessors":[{"bufferView":0,"componentType":5126,"count":192,"max":[0.5728052854537964,0.18000000715255737,0.5728052854537964],"min":[-0.5728052854537964,0,-0.5728052854537964],"type":"VEC3"},{"bufferView":1,"componentType":5126,"count":192,"type":"VEC3"},{"bufferView":2,"componentType":5126,"count":192,"type":"VEC2"},{"bufferView":3,"componentType":5123,"count":276,"type":"SCALAR"},{"bufferView":4,"componentType":5126,"count":192,"max":[0.4619397521018982,0.3399999737739563,0.4619397521018982],"min":[-0.4619397521018982,0.17999999225139618,-0.4619397521018982],"type":"VEC3"},{"bufferView":5,"componentType":5126,"count":192,"type":"VEC3"},{"bufferView":6,"componentType":5126,"count":192,"type":"VEC2"},{"bufferView":7,"componentType":5126,"count":140,"max":[0.28531697392463684,0.46000000834465027,0.30000001192092896],"min":[-0.28531697392463684,0.3400000035762787,-0.30000001192092896],"type":"VEC3"},{"bufferView":8,"componentType":5126,"count":140,"type":"VEC3"},{"bufferView":9,"componentType":5126,"count":140,"type":"VEC2"},{"bufferView":10,"componentType":5123,"count":228,"type":"SCALAR"},{"bufferView":11,"componentType":5126,"count":96,"max":[0.17000000178813934,0.14000000059604645,0.5899999737739563],"min":[-0.17000000178813934,0.04000000283122063,0.5600000023841858],"type":"VEC3"},{"bufferView":12,"componentType":5126,"count":96,"type":"VEC3"},{"bufferView":13,"componentType":5126,"count":96,"type":"VEC2"},{"bufferView":14,"componentType":5123,"count":132,"type":"SCALAR"},{"bufferView":15,"componentType":5126,"count":24,"max":[0.3500000238418579,0.2749999761581421,0.5299999713897705],"min":[0.25,0.2449999898672104,0.5099999904632568],"type":"VEC3"},{"bufferView":16,"componentType":5126,"count":24,"type":"VEC3"},{"bufferView":17,"componentType":5126,"count":24,"type":"VEC2"},{"bufferView":18,"componentType":5123,"count":36,"type":"SCALAR"},{"bufferView":19,"componentType":5126,"count":96,"max":[0.4771214723587036,2.183340549468994,0.10072634369134903],"min":[-0.0004928025882691145,0.4216972291469574,-0.10072635114192963],"type":"VEC3"},{"bufferView":20,"componentType":5126,"count":96,"type":"VEC3"},{"bufferView":21,"componentType":5126,"count":96,"type":"VEC2"},{"bufferView":22,"componentType":5123,"count":132,"type":"SCALAR"},{"bufferView":23,"componentType":5126,"count":96,"max":[0.42293593287467957,2.113607168197632,0.044823575764894485],"min":[0.23403936624526978,0.5062472820281982,-0.044823579490184784],"type":"VEC3"},{"bufferView":24,"componentType":5126,"count":96,"type":"VEC3"},{"bufferView":25,"componentType":5126,"count":96,"type":"VEC2"},{"bufferView":26,"componentType":5123,"count":132,"type":"SCALAR"},{"bufferView":27,"componentType":5126,"count":96,"max":[0.10072635114192963,2.183340549468994,0.0004928044509142637],"min":[-0.10072635114192963,0.4216972291469574,-0.4771214723587036],"type":"VEC3"},{"bufferView":28,"componentType":5126,"count":96,"type":"VEC3"},{"bufferView":29,"componentType":5126,"count":96,"type":"VEC2"},{"bufferView":30,"componentType":5123,"count":132,"type":"SCALAR"},{"bufferView":31,"componentType":5126,"count":96,"max":[0.04482357203960419,2.113607168197632,-0.23403936624526978],"min":[-0.04482358321547508,0.5062472820281982,-0.42293593287467957],"type":"VEC3"},{"bufferView":32,"componentType":5126,"count":96,"type":"VEC3"},{"bufferView":33,"componentType":5126,"count":96,"type":"VEC2"},{"bufferView":34,"componentType":5123,"count":132,"type":"SCALAR"},{"bufferView":35,"componentType":5126,"count":96,"max":[0.0004928044509142637,2.183340549468994,0.10072635859251022],"min":[-0.4771214723587036,0.4216972291469574,-0.10072633624076843],"type":"VEC3"},{"bufferView":36,"componentType":5126,"count":96,"type":"VEC3"},{"bufferView":37,"componentType":5126,"count":96,"type":"VEC2"},{"bufferView":38,"componentType":5123,"count":132,"type":"SCALAR"},{"bufferView":39,"componentType":5126,"count":96,"max":[-0.23403936624526978,2.113607168197632,0.04482358694076538],"min":[-0.42293593287467957,0.5062472820281982,-0.04482356831431389],"type":"VEC3"},{"bufferView":40,"componentType":5126,"count":96,"type":"VEC3"},{"bufferView":41,"componentType":5126,"count":96,"type":"VEC2"},{"bufferView":42,"componentType":5123,"count":132,"type":"SCALAR"},{"bufferView":43,"componentType":5126,"count":96,"max":[0.10072635114192963,2.183340549468994,0.4771214723587036],"min":[-0.10072635114192963,0.4216972291469574,-0.0004928044509142637],"type":"VEC3"},{"bufferView":44,"componentType":5126,"count":96,"type":"VEC3"},{"bufferView":45,"componentType":5126,"count":96,"type":"VEC2"},{"bufferView":46,"componentType":5123,"count":132,"type":"SCALAR"},{"bufferView":47,"componentType":5126,"count":96,"max":[0.044823579490184784,2.113607168197632,0.42293593287467957],"min":[-0.044823575764894485,0.5062472820281982,0.23403936624526978],"type":"VEC3"},{"bufferView":48,"componentType":5126,"count":96,"type":"VEC3"},{"bufferView":49,"componentType":5126,"count":96,"type":"VEC2"},{"bufferView":50,"componentType":5123,"count":132,"type":"SCALAR"}],"bufferViews":[{"buffer":0,"byteLength":2304,"byteOffset":0,"target":34962},{"buffer":0,"byteLength":2304,"byteOffset":2304,"target":34962},{"buffer":0,"byteLength":1536,"byteOffset":4608,"target":34962},{"buffer":0,"byteLength":552,"byteOffset":6144,"target":34963},{"buffer":0,"byteLength":2304,"byteOffset":6696,"target":34962},{"buffer":0,"byteLength":2304,"byteOffset":9000,"target":34962},{"buffer":0,"byteLength":1536,"byteOffset":11304,"target":34962},{"buffer":0,"byteLength":1680,"byteOffset":12840,"target":34962},{"buffer":0,"byteLength":1680,"byteOffset":14520,"target":34962},{"buffer":0,"byteLength":1120,"byteOffset":16200,"target":34962},{"buffer":0,"byteLength":456,"byteOffset":17320,"target":34963},{"buffer":0,"byteLength":1152,"byteOffset":17776,"target":34962},{"buffer":0,"byteLength":1152,"byteOffset":18928,"target":34962},{"buffer":0,"byteLength":768,"byteOffset":20080,"target":34962},{"buffer":0,"byteLength":264,"byteOffset":20848,"target":34963},{"buffer":0,"byteLength":288,"byteOffset":21112,"target":34962},{"buffer":0,"byteLength":288,"byteOffset":21400,"target":34962},{"buffer":0,"byteLength":192,"byteOffset":21688,"target":34962},{"buffer":0,"byteLength":72,"byteOffset":21880,"target":34963},{"buffer":0,"byteLength":1152,"byteOffset":21952,"target":34962},{"buffer":0,"byteLength":1152,"byteOffset":23104,"target":34962},{"buffer":0,"byteLength":768,"byteOffset":24256,"target":34962},{"buffer":0,"byteLength":264,"byteOffset":25024,"target":34963},{"buffer":0,"byteLength":1152,"byteOffset":25288,"target":34962},{"buffer":0,"byteLength":1152,"byteOffset":26440,"target":34962},{"buffer":0,"byteLength":768,"byteOffset":27592,"target":34962},{"buffer":0,"byteLength":264,"byteOffset":28360,"target":34963},{"buffer":0,"byteLength":1152,"byteOffset":28624,"target":34962},{"buffer":0,"byteLength":1152,"byteOffset":29776,"target":34962},{"buffer":0,"byteLength":768,"byteOffset":30928,"target":34962},{"buffer":0,"byteLength":264,"byteOffset":31696,"target":34963},{"buffer":0,"byteLength":1152,"byteOffset":31960,"target":34962},{"buffer":0,"byteLength":1152,"byteOffset":33112,"target":34962},{"buffer":0,"byteLength":768,"byteOffset":34264,"target":34962},{"buffer":0,"byteLength":264,"byteOffset":35032,"target":34963},{"buffer":0,"byteLength":1152,"byteOffset":35296,"target":34962},{"buffer":0,"byteLength":1152,"byteOffset":36448,"target":34962},{"buffer":0,"byteLength":768,"byteOffset":37600,"target":34962},{"buffer":0,"byteLength":264,"byteOffset":38368,"target":34963},{"buffer":0,"byteLength":1152,"byteOffset":38632,"target":34962},{"buffer":0,"byteLength":1152,"byteOffset":39784,"target":34962},{"buffer":0,"byteLength":768,"byteOffset":40936,"target":34962},{"buffer":0,"byteLength":264,"byteOffset":41704,"target":34963},{"buffer":0,"byteLength":1152,"byteOffset":41968,"target":34962},{"buffer":0,"byteLength":1152,"byteOffset":43120,"target":34962},{"buffer":0,"byteLength":768,"byteOffset":44272,"target":34962},{"buffer":0,"byteLength":264,"byteOffset":45040,"target":34963},{"buffer":0,"byteLength":1152,"byteOffset":45304,"target":34962},{"buffer":0,"byteLength":1152,"byteOffset":46456,"target":34962},{"buffer":0,"byteLength":768,"byteOffset":47608,"target":34962},{"buffer":0,"byteLength":264,"byteOffset":48376,"target":34963}],"buffers":[{"byteLength":48640,"uri":"data:application/octet-stream;base64,"}]}
