{"asset":{"generator":"Khronos glTF Blender I/O v4.0.44","version":"2.0"},"extensionsUsed":["KHR_materials_emissive_strength"],"scene":0,"scenes":[{"name":"Scene","nodes":[0,1,2,3,4,5,6,7,8,9,10,11,12,13,14,15,16,17,18,19,20,21,22,23]}],"nodes":[{"extras":{"titancraft_visual_only":true,"titancraft_collision":"none"},"mesh":0,"name":"TC_Beacon_Plinth"},{"extras":{"titancraft_visual_only":true,"titancraft_collision":"none"},"mesh":1,"name":"TC_Beacon_Ring"},{"extras":{"titancraft_visual_only":true,"titancraft_collision":"none"},"mesh":2,"name":"TC_Beacon_Mount"},{"extras":{"titancraft_visual_only":true,"titancraft_collision":"none"},"mesh":3,"name":"TC_Beacon_WarnPlate"},{"extras":{"titancraft_visual_only":true,"titancraft_collision":"none"},"mesh":4,"name":"TC_Beacon_LED"},{"extras":{"titancraft_visual_only":true,"titancraft_collision":"none"},"mesh":5,"name":"TC_Beacon_Petal_0"},{"extras":{"titancraft_visual_only":true,"titancraft_collision":"none"},"mesh":6,"name":"TC_Beacon_PetalSpine_0"},{"extras":{"titancraft_visual_only":true,"titancraft_collision":"none"},"mesh":7,"name":"TC_Beacon_PetalGlow_0"},{"extras":{"titancraft_visual_only":true,"titancraft_collision":"none"},"mesh":8,"name":"TC_Beacon_Petal_1"},{"extras":{"titancraft_visual_only":true,"titancraft_collision":"none"},"mesh":9,"name":"TC_Beacon_PetalSpine_1"},{"extras":{"titancraft_visual_only":true,"titancraft_collision":"none"},"mesh":10,"name":"TC_Beacon_PetalGlow_1"},{"extras":{"titancraft_visual_only":true,"titancraft_collision":"none"},"mesh":11,"name":"TC_Beacon_Petal_2"},{"extras":{"titancraft_visual_only":true,"titancraft_collision":"none"},"mesh":12,"name":"TC_Beacon_PetalSpine_2"},{"extras":{"titancraft_visual_only":true,"titancraft_collision":"none"},"mesh":13,"name":"TC_Beacon_PetalGlow_2"},{"extras":{"titancraft_visual_only":true,"titancraft_collision":"none"},"mesh":14,"name":"TC_Beacon_Petal_3"},{"extras":{"titancraft_visual_only":true,"titancraft_collision":"none"},"mesh":15,"name":"TC_Beacon_PetalSpine_3"},{"extras":{"titancraft_visual_only":true,"titancraft_collision":"none"},"mesh":16,"name":"TC_Beacon_PetalGlow_3"},{"extras":{"titancraft_visual_only":true,"titancraft_collision":"none"},"mesh":17,"name":"TC_Beacon_CoreDisk"},{"extras":{"titancraft_visual_only":true,"titancraft_collision":"none"},"mesh":18,"name":"TC_Beacon_Core"},{"extras":{"titancraft_visual_only":true,"titancraft_collision":"none"},"mesh":19,"name":"TC_Beacon_CoreShard_0"},{"extras":{"titancraft_visual_only":true,"titancraft_collision":"none"},"mesh":20,"name":"TC_Beacon_CoreShard_1"},{"extras":{"titancraft_visual_only":true,"titancraft_collision":"none"},"mesh":21,"name":"TC_Beacon_CoreShard_2"},{"extras":{"titancraft_visual_only":true,"titancraft_collision":"none"},"mesh":22,"name":"TC_Beacon_PowerBox"},{"extras":{"titancraft_visual_only":true,"titancraft_collision":"none"},"mesh":23,"name":"TC_Beacon_Cable"}],"materials":[{"doubleSided":true,"name":"TC_MVP_DarkMetal","pbrMetallicRoughness":{"baseColorFactor":[0.04500000178813934,0.05000000074505806,0.057999998331069946,1],"metallicFactor":0.6499999761581421,"roughnessFactor":0.47999998927116394}},{"doubleSided":true,"name":"TC_MVP_HullBeige","pbrMetallicRoughness":{"baseColorFactor":[0.4779999852180481,0.4350000023841858,0.35600000619888306,1],"metallicFactor":0.11999999731779099,"roughnessFactor":0.6200000047683716}},{"doubleSided":true,"name":"TC_MVP_OrangePaint","pbrMetallicRoughness":{"baseColorFactor":[0.7200000286102295,0.23000000417232513,0.03500000014901161,1],"metallicFactor":0,"roughnessFactor":0.41999998688697815}},{"doubleSided":true,"emissiveFactor":[1,0.05999999865889549,0.03999999910593033],"extensions":{"KHR_materials_emissive_strength":{"emissiveStrength":4}},"name":"TC_MVP_RedLED","pbrMetallicRoughness":{"baseColorFactor":[0.019999999552965164,0,0,1],"metallicFactor":0,"roughnessFactor":0.30000001192092896}},{"doubleSided":true,"emissiveFactor":[0.47999998927116394,0.18000000715255737,1],"extensions":{"KHR_materials_emissive_strength":{"emissiveStrength":7}},"name":"TC_MVP_PurpleGlow","pbrMetallicRoughness":{"baseColorFactor":[0.009999999776482582,0,0.029999999329447746,1],"metallicFactor":0,"roughnessFactor":0.30000001192092896}},{"doubleSided":true,"emissiveFactor":[0.47999998927116394,0.18000000715255737,1],"extensions":{"KHR_materials_emissive_strength":{"emissiveStrength":2.5}},"name":"TC_MVP_PurpleCrystal","pbrMetallicRoughness":{"baseColorFactor":[0.2199999988079071,0.07999999821186066,0.41999998688697815,1],"metallicFactor":0,"roughnessFactor":0.2199999988079071}},{"doubleSided":true,"name":"TC_MVP_Rubber","pbrMetallicRoughness":{"baseColorFactor":[0.02800000086426735,0.02800000086426735,0.03200000151991844,1],"metallicFactor":0,"roughnessFactor":0.8500000238418579}}],"meshes":[{"name":"Cylinder","primitives":[{"attributes":{"POSITION":0,"NORMAL":1,"TEXCOORD_0":2},"indices":3,"material":0}]},{"name":"Cylinder.001","primitives":[{"attributes":{"POSITION":4,"NORMAL":5,"TEXCOORD_0":6},"indices":3,"material":1}]},{"name":"Cylinder.002","primitives":[{"attributes":{"POSITION":7,"NORMAL":8,"TEXCOORD_0":9},"indices":10,"material":0}]},{"name":"Cube","primitives":[{"attributes":{"POSITION":11,"NORMAL":12,"TEXCOORD_0":13},"indices":14,"material":2}]},{"name":"Cube.001","primitives":[{"attributes":{"POSITION":15,"NORMAL":16,"TEXCOORD_0":17},"indices":18,"material":3}]},{"name":"Cone","primitives":[{"attributes":{"POSITION":19,"NORMAL":20,"TEXCOORD_0":21},"indices":22,"material":1}]},{"name":"Cone.001","primitives":[{"attributes":{"POSITION":23,"NORMAL":24,"TEXCOORD_0":25},"indices":26,"material":0}]},{"name":"Cone.002","primitives":[{"attributes":{"POSITION":27,"NORMAL":28,"TEXCOORD_0":29},"indices":30,"material":4}]},{"name":"Cone.003","primitives":[{"attributes":{"POSITION":31,"NORMAL":32,"TEXCOORD_0":33},"indices":34,"material":1}]},{"name":"Cone.004","primitives":[{"attributes":{"POSITION":35,"NORMAL":36,"TEXCOORD_0":37},"indices":38,"material":0}]},{"name":"Cone.005","primitives":[{"attributes":{"POSITION":39,"NORMAL":40,"TEXCOORD_0":41},"indices":42,"material":4}]},{"name":"Cone.006","primitives":[{"attributes":{"POSITION":43,"NORMAL":44,"TEXCOORD_0":45},"indices":46,"material":1}]},{"name":"Cone.007","primitives":[{"attributes":{"POSITION":47,"NORMAL":48,"TEXCOORD_0":49},"indices":50,"material":0}]},{"name":"Cone.008","primitives":[{"attributes":{"POSITION":51,"NORMAL":52,"TEXCOORD_0":53},"indices":54,"material":4}]},{"name":"Cone.009","primitives":[{"attributes":{"POSITION":55,"NORMAL":56,"TEXCOORD_0":57},"indices":58,"material":1}]},{"name":"Cone.010","primitives":[{"attributes":{"POSITION":59,"NORMAL":60,"TEXCOORD_0":61},"indices":62,"material":0}]},{"name":"Cone.011","primitives":[{"attributes":{"POSITION":63,"NORMAL":64,"TEXCOORD_0":65},"indices":66,"material":4}]},{"name":"Cylinder.003","primitives":[{"attributes":{"POSITION":67,"NORMAL":68,"TEXCOORD_0":69},"indices":70,"material":4}]},{"name":"Icosphere","primitives":[{"attributes":{"POSITION":71,"NORMAL":72,"TEXCOORD_0":73},"indices":74,"material":5}]},{"name":"Icosphere.001","primitives":[{"attributes":{"POSITION":75,"NORMAL":76,"TEXCOORD_0":77},"indices":78,"material":5}]},{"name":"Icosphere.002","primitives":[{"attributes":{"POSITION":79,"NORMAL":80,"TEXCOORD_0":81},"indices":82,"material":5}]},{"name":"Icosphere.003","primitives":[{"attributes":{"POSITION":83,"NORMAL":84,"TEXCOORD_0":85},"indices":86,"material":5}]},{"name":"Cube.002","primitives":[{"attributes":{"POSITION":87,"NORMAL":88,"TEXCOORD_0":89},"indices":14,"material":0}]},{"name":"TC_Beacon_Cable","primitives":[{"attributes":{"POSITION":90,"NORMAL":91,"TEXCOORD_0":92},"indices":93,"material":6}]}],"accessors":[{"bufferView":0,"componentType":5126,"count":192,"max":[0.5728052854537964,0.18000000715255737,0.5728052854537964],"min":[-0.5728052854537964,0,-0.5728052854537964],"type":"VEC3"},{"bufferView":1,"componentType":5126,"count":192,"type":"VEC3"},{"bufferView":2,"componentType":5126,"count":192,"type":"VEC2"},{"bufferView":3,"componentType":5123,"count":276,"type":"SCALAR"},{"bufferView":4,"componentType":5126,"count":192,"max":[0.4619397521018982,0.3399999737739563,0.4619397521018982],"min":[-0.4619397521018982,0.17999999225139618,-0.4619397521018982],"type":"VEC3"},{"bufferView":5,"componentType":5126,"count":192,"type":"VEC3"},{"bufferView":6,"componentType":5126,"count":192,"type":"VEC2"},{"bufferView":7,"componentType":5126,"count":140,"max":[0.28531697392463684,0.46000000834465027,0.30000001192092896],"min":[-0.28531697392463684,0.3400000035762787,-0.30000001192092896],"type":"VEC3"},{"bufferView":8,"componentType":5126,"count":140,"type":"VEC3"},{"bufferView":9,"componentType":5126,"count":140,"type":"VEC2"},{"bufferView":10,"componentType":5123,"count":228,"type":"SCALAR"},{"bufferView":11,"componentType":5126,"count":96,"max":[0.17000000178813934,0.14000000059604645,0.5899999737739563],"min":[-0.17000000178813934,0.04000000283122063,0.5600000023841858],"type":"VEC3"},{"bufferView":12,"componentType":5126,"count":96,"type":"VEC3"},{"bufferView":13,"componentType":5126,"count":96,"type":"VEC2"},{"bufferView":14,"componentType":5123,"count":132,"type":"SCALAR"},{"bufferView":15,"componentType":5126,"count":24,"max":[0.3500000238418579,0.2749999761581421,0.5299999713897705],"min":[0.25,0.2449999898672104,0.5099999904632568],"type":"VEC3"},{"bufferView":16,"componentType":5126,"count":24,"type":"VEC3"},{"bufferView":17,"componentType":5126,"count":24,"type":"VEC2"},{"bufferView":18,"componentType":5123,"count":36,"type":"SCALAR"},{"bufferView":19,"componentType":5126,"count":96,"max":[1.3325772285461426,1.8249330520629883,0.10072634369134903],"min":[0.06300593912601471,0.3076547682285309,-0.10072634369134903],"type":"VEC3"},{"bufferView":20,"componentType":5126,"count":96,"type":"VEC3"},{"bufferView":21,"componentType":5126,"count":96,"type":"VEC2"},{"bufferView":22,"componentType":5123,"count":132,"type":"SCALAR"},{"bufferView":23,"componentType":5126,"count":96,"max":[1.4193114042282104,1.7638581991195679,0.04482356831431389],"min":[0.3965758681297302,0.4705343246459961,-0.044823575764894485],"type":"VEC3"},{"bufferView":24,"componentType":5126,"count":96,"type":"VEC3"},{"bufferView":25,"componentType":5126,"count":96,"type":"VEC2"},{"bufferView":26,"componentType":5123,"count":132,"type":"SCALAR"},{"bufferView":27,"componentType":5126,"count":24,"max":[1.1721181869506836,1.7199020385742188,0.1120000034570694],"min":[0.21219304203987122,0.5132590532302856,-0.1120000034570694],"type":"VEC3"},{"bufferView":28,"componentType":5126,"count":24,"type":"VEC3"},{"bufferView":29,"componentType":5126,"count":24,"type":"VEC2"},{"bufferView":30,"componentType":5123,"count":36,"type":"SCALAR"},{"bufferView":31,"componentType":5126,"count":96,"max":[0.10072637349367142,1.8249330520629883,-0.06300593912601471],"min":[-0.10072632133960724,0.3076547682285309,-1.3325772285461426],"type":"VEC3"},{"bufferView":32,"componentType":5126,"count":96,"type":"VEC3"},{"bufferView":33,"componentType":5126,"count":96,"type":"VEC2"},{"bufferView":34,"componentType":5123,"count":132,"type":"SCALAR"},{"bufferView":35,"componentType":5126,"count":96,"max":[0.04482359066605568,1.7638581991195679,-0.3965758681297302],"min":[-0.044823553413152695,0.4705343246459961,-1.4193114042282104],"type":"VEC3"},{"bufferView":36,"componentType":5126,"count":96,"type":"VEC3"},{"bufferView":37,"componentType":5126,"count":96,"type":"VEC2"},{"bufferView":38,"componentType":5123,"count":132,"type":"SCALAR"},{"bufferView":39,"componentType":5126,"count":24,"max":[0.11200002580881119,1.7199020385742188,-0.21219304203987122],"min":[-0.1119999811053276,0.5132590532302856,-1.1721181869506836],"type":"VEC3"},{"bufferView":40,"componentType":5126,"count":24,"type":"VEC3"},{"bufferView":41,"componentType":5126,"count":24,"type":"VEC2"},{"bufferView":42,"componentType":5123,"count":36,"type":"SCALAR"},{"bufferView":43,"componentType":5126,"count":96,"max":[-0.06300593912601471,1.8249330520629883,0.10072629898786545],"min":[-1.3325772285461426,0.3076547682285309,-0.10072638839483261],"type":"VEC3"},{"bufferView":44,"componentType":5126,"count":96,"type":"VEC3"},{"bufferView":45,"componentType":5126,"count":96,"type":"VEC2"},{"bufferView":46,"componentType":5123,"count":132,"type":"SCALAR"},{"bufferView":47,"componentType":5126,"count":96,"max":[-0.39657583832740784,1.7638581991195679,0.044823531061410904],"min":[-1.4193114042282104,0.4705343246459961,-0.04482361301779747],"type":"VEC3"},{"bufferView":48,"componentType":5126,"count":96,"type":"VEC3"},{"bufferView":49,"componentType":5126,"count":96,"type":"VEC2"},{"bufferView":50,"componentType":5123,"count":132,"type":"SCALAR"},{"bufferView":51,"componentType":5126,"count":24,"max":[-0.21219304203987122,1.7199020385742188,0.11199996620416641],"min":[-1.1721181869506836,0.5132590532302856,-0.11200004070997238],"type":"VEC3"},{"bufferView":52,"componentType":5126,"count":24,"type":"VEC3"},{"bufferView":53,"componentType":5126,"count":24,"type":"VEC2"},{"bufferView":54,"componentType":5123,"count":36,"type":"SCALAR"},{"bufferView":55,"componentType":5126,"count":96,"max":[0.10072633624076843,1.8249330520629883,1.3325772285461426],"min":[-0.10072635114192963,0.3076547682285309,0.06300593912601471],"type":"VEC3"},{"bufferView":56,"componentType":5126,"count":96,"type":"VEC3"},{"bufferView":57,"componentType":5126,"count":96,"type":"VEC2"},{"bufferView":58,"componentType":5123,"count":132,"type":"SCALAR"},{"bufferView":59,"componentType":5126,"count":96,"max":[0.04482356831431389,1.7638581991195679,1.4193114042282104],"min":[-0.044823575764894485,0.4705343246459961,0.3965758681297302],"type":"VEC3"},{"bufferView":60,"componentType":5126,"count":96,"type":"VEC3"},{"bufferView":61,"componentType":5126,"count":96,"type":"VEC2"},{"bufferView":62,"componentType":5123,"count":132,"type":"SCALAR"},{"bufferView":63,"componentType":5126,"count":24,"max":[0.1119999960064888,1.7199020385742188,1.1721181869506836],"min":[-0.11200001090765,0.5132590532302856,0.21219304203987122],"type":"VEC3"},{"bufferView":64,"componentType":5126,"count":24,"type":"VEC3"},{"bufferView":65,"componentType":5126,"count":24,"type":"VEC2"},{"bufferView":66,"componentType":5123,"count":36,"type":"SCALAR"},{"bufferView":67,"componentType":5126,"count":72,"max":[0.23999999463558197,0.48499998450279236,0.23999999463558197],"min":[-0.23999999463558197,0.45500001311302185,-0.23999999463558197],"type":"VEC3"},{"bufferView":68,"componentType":5126,"count":72,"type":"VEC3"},{"bufferView":69,"componentType":5126,"count":72,"type":"VEC2"},{"bufferView":70,"componentType":5123,"count":132,"type":"SCALAR"},{"bufferView":71,"componentType":5126,"count":60,"max":[0.06609202921390533,1.628000020980835,0.06832893937826157],"min":[-0.06609202921390533,0.4719999432563782,-0.06832893937826157],"type":"VEC3"},{"bufferView":72,"componentType":5126,"count":60,"type":"VEC3"},{"bufferView":73,"componentType":5126,"count":60,"type":"VEC2"},{"bufferView":74,"componentType":5123,"count":60,"type":"SCALAR"},{"bufferView":75,"componentType":5126,"count":60,"max":[0.18875834345817566,0.8930230140686035,0.00721890851855278],"min":[0.09102677553892136,0.5510646104812622,-0.10588023066520691],"type":"VEC3"},{"bufferView":76,"componentType":5126,"count":60,"type":"VEC3"},{"bufferView":77,"componentType":5126,"count":60,"type":"VEC2"},{"bufferView":78,"componentType":5123,"count":60,"type":"SCALAR"},{"bufferView":79,"componentType":5126,"count":60,"max":[-0.06022746488451958,0.9228008389472961,-0.06127733364701271],"min":[-0.18429121375083923,0.5311458110809326,-0.13815739750862122],"type":"VEC3"},{"bufferView":80,"componentType":5126,"count":60,"type":"VEC3"},{"bufferView":81,"componentType":5126,"count":60,"type":"VEC2"},{"bufferView":82,"componentType":5123,"count":60,"type":"SCALAR"},{"bufferView":83,"componentType":5126,"count":60,"max":[0.06978459656238556,0.920142412185669,0.18928155303001404],"min":[-0.03524100407958031,0.5377488136291504,0.11426473408937454],"type":"VEC3"},{"bufferView":84,"componentType":5126,"count":60,"type":"VEC3"},{"bufferView":85,"componentType":5126,"count":60,"type":"VEC2"},{"bufferView":86,"componentType":5123,"count":60,"type":"SCALAR"},{"bufferView":87,"componentType":5126,"count":96,"max":[1.1200000047683716,0.23999999463558197,0.4399999976158142],"min":[0.7799999713897705,0,0.1600000113248825],"type":"VEC3"},{"bufferView":88,"componentType":5126,"count":96,"type":"VEC3"},{"bufferView":89,"componentType":5126,"count":96,"type":"VEC2"},{"bufferView":90,"componentType":5126,"count":117,"max":[0.9672595262527466,0.2056262046098709,0.3160296678543091],"min":[0.5707690715789795,0.07741224020719528,0.10390031337738037],"type":"VEC3"},{"bufferView":91,"componentType":5126,"count":117,"type":"VEC3"},{"bufferView":92,"componentType":5126,"count":117,"type":"VEC2"},{"bufferView":93,"componentType":5123,"count":528,"type":"SCALAR"}],"bufferViews":[{"buffer":0,"byteLength":2304,"byteOffset":0,"target":34962},{"buffer":0,"byteLength":2304,"byteOffset":2304,"target":34962},{"buffer":0,"byteLength":1536,"byteOffset":4608,"target":34962},{"buffer":0,"byteLength":552,"byteOffset":6144,"target":34963},{"buffer":0,"byteLength":2304,"byteOffset":6696,"target":34962},{"buffer":0,"byteLength":2304,"byteOffset":9000,"target":34962},{"buffer":0,"byteLength":1536,"byteOffset":11304,"target":34962},{"buffer":0,"byteLength":1680,"byteOffset":12840,"target":34962},{"buffer":0,"byteLength":1680,"byteOffset":14520,"target":34962},{"buffer":0,"byteLength":1120,"byteOffset":16200,"target":34962},{"buffer":0,"byteLength":456,"byteOffset":17320,"target":34963},{"buffer":0,"byteLength":1152,"byteOffset":17776,"target":34962},{"buffer":0,"byteLength":1152,"byteOffset":18928,"target":34962},{"buffer":0,"byteLength":768,"byteOffset":20080,"target":34962},{"buffer":0,"byteLength":264,"byteOffset":20848,"target":34963},{"buffer":0,"byteLength":288,"byteOffset":21112,"target":34962},{"buffer":0,"byteLength":288,"byteOffset":21400,"target":34962},{"buffer":0,"byteLength":192,"byteOffset":21688,"target":34962},{"buffer":0,"byteLength":72,"byteOffset":21880,"target":34963},{"buffer":0,"byteLength":1152,"byteOffset":21952,"target":34962},{"buffer":0,"byteLength":1152,"byteOffset":23104,"target":34962},{"buffer":0,"byteLength":768,"byteOffset":24256,"target":34962},{"buffer":0,"byteLength":264,"byteOffset":25024,"target":34963},{"buffer":0,"byteLength":1152,"byteOffset":25288,"target":34962},{"buffer":0,"byteLength":1152,"byteOffset":26440,"target":34962},{"buffer":0,"byteLength":768,"byteOffset":27592,"target":34962},{"buffer":0,"byteLength":264,"byteOffset":28360,"target":34963},{"buffer":0,"byteLength":288,"byteOffset":28624,"target":34962},{"buffer":0,"byteLength":288,"byteOffset":28912,"target":34962},{"buffer":0,"byteLength":192,"byteOffset":29200,"target":34962},{"buffer":0,"byteLength":72,"byteOffset":29392,"target":34963},{"buffer":0,"byteLength":1152,"byteOffset":29464,"target":34962},{"buffer":0,"byteLength":1152,"byteOffset":30616,"target":34962},{"buffer":0,"byteLength":768,"byteOffset":31768,"target":34962},{"buffer":0,"byteLength":264,"byteOffset":32536,"target":34963},{"buffer":0,"byteLength":1152,"byteOffset":32800,"target":34962},{"buffer":0,"byteLength":1152,"byteOffset":33952,"target":34962},{"buffer":0,"byteLength":768,"byteOffset":35104,"target":34962},{"buffer":0,"byteLength":264,"byteOffset":35872,"target":34963},{"buffer":0,"byteLength":288,"byteOffset":36136,"target":34962},{"buffer":0,"byteLength":288,"byteOffset":36424,"target":34962},{"buffer":0,"byteLength":192,"byteOffset":36712,"target":34962},{"buffer":0,"byteLength":72,"byteOffset":36904,"target":34963},{"buffer":0,"byteLength":1152,"byteOffset":36976,"target":34962},{"buffer":0,"byteLength":1152,"byteOffset":38128,"target":34962},{"buffer":0,"byteLength":768,"byteOffset":39280,"target":34962},{"buffer":0,"byteLength":264,"byteOffset":40048,"target":34963},{"buffer":0,"byteLength":1152,"byteOffset":40312,"target":34962},{"buffer":0,"byteLength":1152,"byteOffset":41464,"target":34962},{"buffer":0,"byteLength":768,"byteOffset":42616,"target":34962},{"buffer":0,"byteLength":264,"byteOffset":43384,"target":34963},{"buffer":0,"byteLength":288,"byteOffset":43648,"target":34962},{"buffer":0,"byteLength":288,"byteOffset":43936,"target":34962},{"buffer":0,"byteLength":192,"byteOffset":44224,"target":34962},{"buffer":0,"byteLength":72,"byteOffset":44416,"target":34963},{"buffer":0,"byteLength":1152,"byteOffset":44488,"target":34962},{"buffer":0,"byteLength":1152,"byteOffset":45640,"target":34962},{"buffer":0,"byteLength":768,"byteOffset":46792,"target":34962},{"buffer":0,"byteLength":264,"byteOffset":47560,"target":34963},{"buffer":0,"byteLength":1152,"byteOffset":47824,"target":34962},{"buffer":0,"byteLength":1152,"byteOffset":48976,"target":34962},{"buffer":0,"byteLength":768,"byteOffset":50128,"target":34962},{"buffer":0,"byteLength":264,"byteOffset":50896,"target":34963},{"buffer":0,"byteLength":288,"byteOffset":51160,"target":34962},{"buffer":0,"byteLength":288,"byteOffset":51448,"target":34962},{"buffer":0,"byteLength":192,"byteOffset":51736,"target":34962},{"buffer":0,"byteLength":72,"byteOffset":51928,"target":34963},{"buffer":0,"byteLength":864,"byteOffset":52000,"target":34962},{"buffer":0,"byteLength":864,"byteOffset":52864,"target":34962},{"buffer":0,"byteLength":576,"byteOffset":53728,"target":34962},{"buffer":0,"byteLength":264,"byteOffset":54304,"target":34963},{"buffer":0,"byteLength":720,"byteOffset":54568,"target":34962},{"buffer":0,"byteLength":720,"byteOffset":55288,"target":34962},{"buffer":0,"byteLength":480,"byteOffset":56008,"target":34962},{"buffer":0,"byteLength":120,"byteOffset":56488,"target":34963},{"buffer":0,"byteLength":720,"byteOffset":56608,"target":34962},{"buffer":0,"byteLength":720,"byteOffset":57328,"target":34962},{"buffer":0,"byteLength":480,"byteOffset":58048,"target":34962},{"buffer":0,"byteLength":120,"byteOffset":58528,"target":34963},{"buffer":0,"byteLength":720,"byteOffset":58648,"target":34962},{"buffer":0,"byteLength":720,"byteOffset":59368,"target":34962},{"buffer":0,"byteLength":480,"byteOffset":60088,"target":34962},{"buffer":0,"byteLength":120,"byteOffset":60568,"target":34963},{"buffer":0,"byteLength":720,"byteOffset":60688,"target":34962},{"buffer":0,"byteLength":720,"byteOffset":61408,"target":34962},{"buffer":0,"byteLength":480,"byteOffset":62128,"target":34962},{"buffer":0,"byteLength":120,"byteOffset":62608,"target":34963},{"buffer":0,"byteLength":1152,"byteOffset":62728,"target":34962},{"buffer":0,"byteLength":1152,"byteOffset":63880,"target":34962},{"buffer":0,"byteLength":768,"byteOffset":65032,"target":34962},{"buffer":0,"byteLength":1404,"byteOffset":65800,"target":34962},{"buffer":0,"byteLength":1404,"byteOffset":67204,"target":34962},{"buffer":0,"byteLength":936,"byteOffset":68608,"target":34962},{"buffer":0,"byteLength":1056,"byteOffset":69544,"target":34963}],"buffers":[{"byteLength":70600,"uri":"data:application/octet-stream;base64,"}]}
