{"asset":{"generator":"Khronos glTF Blender I/O v4.0.44","version":"2.0"},"scene":0,"scenes":[{"name":"Scene","nodes":[0,1,2,3,4,5,6,7,8,9,10]}],"nodes":[{"extras":{"titancraft_visual_only":true,"titancraft_collision":"none"},"mesh":0,"name":"TC_BareArm_Sleeve_0"},{"extras":{"titancraft_visual_only":true,"titancraft_collision":"none"},"mesh":1,"name":"TC_BareArm_Sleeve_1"},{"extras":{"titancraft_visual_only":true,"titancraft_collision":"none"},"mesh":2,"name":"TC_BareArm_Sleeve_2"},{"extras":{"titancraft_visual_only":true,"titancraft_collision":"none"},"mesh":3,"name":"TC_BareArm_Elbow"},{"extras":{"titancraft_visual_only":true,"titancraft_collision":"none"},"mesh":4,"name":"TC_BareArm_SuitStripe"},{"extras":{"titancraft_visual_only":true,"titancraft_collision":"none"},"mesh":5,"name":"TC_BareArm_GloveCuff"},{"extras":{"titancraft_visual_only":true,"titancraft_collision":"none"},"mesh":6,"name":"TC_BareArm_Palm"},{"extras":{"titancraft_visual_only":true,"titancraft_collision":"none"},"mesh":7,"name":"TC_BareArm_Finger_0"},{"extras":{"titancraft_visual_only":true,"titancraft_collision":"none"},"mesh":8,"name":"TC_BareArm_Finger_1"},{"extras":{"titancraft_visual_only":true,"titancraft_collision":"none"},"mesh":9,"name":"TC_BareArm_Finger_2"},{"extras":{"titancraft_visual_only":true,"titancraft_collision":"none"},"mesh":10,"name":"TC_BareArm_Thumb"}],"materials":[{"doubleSided":true,"name":"TC_MVP_SuitFabric","pbrMetallicRoughness":{"baseColorFactor":[0.5199999809265137,0.5,0.45500001311302185,1],"metallicFactor":0,"roughnessFactor":0.8799999952316284}},{"doubleSided":true,"name":"TC_MVP_SuitFabricDark","pbrMetallicRoughness":{"baseColorFactor":[0.33000001311302185,0.3149999976158142,0.2849999964237213,1],"metallicFactor":0,"roughnessFactor":0.8999999761581421}},{"doubleSided":true,"name":"TC_MVP_OrangePaint","pbrMetallicRoughness":{"baseColorFactor":[0.7200000286102295,0.23000000417232513,0.03500000014901161,1],"metallicFactor":0,"roughnessFactor":0.41999998688697815}},{"doubleSided":true,"name":"TC_MVP_RubberDark","pbrMetallicRoughness":{"baseColorFactor":[0.02800000086426735,0.02800000086426735,0.03200000151991844,1],"metallicFactor":0,"roughnessFactor":0.7799999713897705}}],"meshes":[{"name":"Cylinder","primitives":[{"attributes":{"POSITION":0,"NORMAL":1,"TEXCOORD_0":2},"indices":3,"material":0}]},{"name":"Cylinder.001","primitives":[{"attributes":{"POSITION":4,"NORMAL":5,"TEXCOORD_0":6},"indices":3,"material":1}]},{"name":"Cylinder.002","primitives":[{"attributes":{"POSITION":7,"NORMAL":8,"TEXCOORD_0":9},"indices":3,"material":0}]},{"name":"Cylinder.003","primitives":[{"attributes":{"POSITION":10,"NORMAL":11,"TEXCOORD_0":12},"indices":3,"material":1}]},{"name":"Cylinder.004","primitives":[{"attributes":{"POSITION":13,"NORMAL":14,"TEXCOORD_0":15},"indices":16,"material":2}]},{"name":"Cylinder.005","primitives":[{"attributes":{"POSITION":17,"NORMAL":18,"TEXCOORD_0":19},"indices":3,"material":3}]},{"name":"Cube","primitives":[{"attributes":{"POSITION":20,"NORMAL":21,"TEXCOORD_0":22},"indices":23,"material":3}]},{"name":"Cube.001","primitives":[{"attributes":{"POSITION":24,"NORMAL":25,"TEXCOORD_0":26},"indices":23,"material":3}]},{"name":"Cube.002","primitives":[{"attributes":{"POSITION":27,"NORMAL":28,"TEXCOORD_0":29},"indices":23,"material":3}]},{"name":"Cube.003","primitives":[{"attributes":{"POSITION":30,"NORMAL":31,"TEXCOORD_0":32},"indices":23,"material":3}]},{"name":"Cube.004","primitives":[{"attributes":{"POSITION":33,"NORMAL":34,"TEXCOORD_0":35},"indices":36,"material":3}]}],"accessors":[{"bufferView":0,"componentType":5126,"count":140,"max":[0.14265848696231842,0.3199999928474426,0.01000000536441803],"min":[-0.14265848696231842,0.019999995827674866,-0.21000000834465027],"type":"VEC3"},{"bufferView":1,"componentType":5126,"count":140,"type":"VEC3"},{"bufferView":2,"componentType":5126,"count":140,"type":"VEC2"},{"bufferView":3,"componentType":5123,"count":228,"type":"SCALAR"},{"bufferView":4,"componentType":5126,"count":140,"max":[0.13124579191207886,0.30799999833106995,-0.23999999463558197],"min":[-0.13124579191207886,0.03200000524520874,-0.4399999976158142],"type":"VEC3"},{"bufferView":5,"componentType":5126,"count":140,"type":"VEC3"},{"bufferView":6,"componentType":5126,"count":140,"type":"VEC2"},{"bufferView":7,"componentType":5126,"count":140,"max":[0.11983312666416168,0.29600000381469727,-0.4700000286102295],"min":[-0.11983312666416168,0.04399999976158142,-0.6100000143051147],"type":"VEC3"},{"bufferView":8,"componentType":5126,"count":140,"type":"VEC3"},{"bufferView":9,"componentType":5126,"count":140,"type":"VEC2"},{"bufferView":10,"componentType":5126,"count":140,"max":[0.15026694536209106,0.328000009059906,0.09000000357627869],"min":[-0.15026694536209106,0.01199999451637268,-0.010000006295740604],"type":"VEC3"},{"bufferView":11,"componentType":5126,"count":140,"type":"VEC3"},{"bufferView":12,"componentType":5126,"count":140,"type":"VEC2"},{"bufferView":13,"componentType":5126,"count":60,"max":[0.12553946673870087,0.3019999861717224,-0.4375],"min":[-0.12553946673870087,0.03800000250339508,-0.4725000262260437],"type":"VEC3"},{"bufferView":14,"componentType":5126,"count":60,"type":"VEC3"},{"bufferView":15,"componentType":5126,"count":60,"type":"VEC2"},{"bufferView":16,"componentType":5123,"count":108,"type":"SCALAR"},{"bufferView":17,"componentType":5126,"count":140,"max":[0.10271410644054413,0.27799999713897705,-0.5949999690055847],"min":[-0.10271410644054413,0.06199999898672104,-0.6850000023841858],"type":"VEC3"},{"bufferView":18,"componentType":5126,"count":140,"type":"VEC3"},{"bufferView":19,"componentType":5126,"count":140,"type":"VEC2"},{"bufferView":20,"componentType":5126,"count":96,"max":[0.0925000011920929,0.26249998807907104,-0.6949999928474426],"min":[-0.0925000011920929,0.07750000059604645,-0.8449999690055847],"type":"VEC3"},{"bufferView":21,"componentType":5126,"count":96,"type":"VEC3"},{"bufferView":22,"componentType":5126,"count":96,"type":"VEC2"},{"bufferView":23,"componentType":5123,"count":132,"type":"SCALAR"},{"bufferView":24,"componentType":5126,"count":96,"max":[-0.035999998450279236,0.21815989911556244,-0.8335890173912048],"min":[-0.08399999886751175,0.15184010565280914,-0.9364109635353088],"type":"VEC3"},{"bufferView":25,"componentType":5126,"count":96,"type":"VEC3"},{"bufferView":26,"componentType":5126,"count":96,"type":"VEC2"},{"bufferView":27,"componentType":5126,"count":96,"max":[0.024000000208616257,0.21815989911556244,-0.8335890173912048],"min":[-0.024000000208616257,0.15184010565280914,-0.9364109635353088],"type":"VEC3"},{"bufferView":28,"componentType":5126,"count":96,"type":"VEC3"},{"bufferView":29,"componentType":5126,"count":96,"type":"VEC2"},{"bufferView":30,"componentType":5126,"count":96,"max":[0.08399999886751175,0.21815989911556244,-0.8335890173912048],"min":[0.035999998450279236,0.15184010565280914,-0.9364109635353088],"type":"VEC3"},{"bufferView":31,"componentType":5126,"count":96,"type":"VEC3"},{"bufferView":32,"componentType":5126,"count":96,"type":"VEC2"},{"bufferView":33,"componentType":5126,"count":96,"max":[-0.0824458971619606,0.14000000059604645,-0.7472232580184937],"min":[-0.14755409955978394,0.09000000357627869,-0.8327767848968506],"type":"VEC3"},{"bufferView":34,"componentType":5126,"count":96,"type":"VEC3"},{"bufferView":35,"componentType":5126,"count":96,"type":"VEC2"},{"bufferView":36,"componentType":5123,"count":132,"type":"SCALAR"}],"bufferViews":[{"buffer":0,"byteLength":1680,"byteOffset":0,"target":34962},{"buffer":0,"byteLength":1680,"byteOffset":1680,"target":34962},{"buffer":0,"byteLength":1120,"byteOffset":3360,"target":34962},{"buffer":0,"byteLength":456,"byteOffset":4480,"target":34963},{"buffer":0,"byteLength":1680,"byteOffset":4936,"target":34962},{"buffer":0,"byteLength":1680,"byteOffset":6616,"target":34962},{"buffer":0,"byteLength":1120,"byteOffset":8296,"target":34962},{"buffer":0,"byteLength":1680,"byteOffset":9416,"target":34962},{"buffer":0,"byteLength":1680,"byteOffset":11096,"target":34962},{"buffer":0,"byteLength":1120,"byteOffset":12776,"target":34962},{"buffer":0,"byteLength":1680,"byteOffset":13896,"target":34962},{"buffer":0,"byteLength":1680,"byteOffset":15576,"target":34962},{"buffer":0,"byteLength":1120,"byteOffset":17256,"target":34962},{"buffer":0,"byteLength":720,"byteOffset":18376,"target":34962},{"buffer":0,"byteLength":720,"byteOffset":19096,"target":34962},{"buffer":0,"byteLength":480,"byteOffset":19816,"target":34962},{"buffer":0,"byteLength":216,"byteOffset":20296,"target":34963},{"buffer":0,"byteLength":1680,"byteOffset":20512,"target":34962},{"buffer":0,"byteLength":1680,"byteOffset":22192,"target":34962},{"buffer":0,"byteLength":1120,"byteOffset":23872,"target":34962},{"buffer":0,"byteLength":1152,"byteOffset":24992,"target":34962},{"buffer":0,"byteLength":1152,"byteOffset":26144,"target":34962},{"buffer":0,"byteLength":768,"byteOffset":27296,"target":34962},{"buffer":0,"byteLength":264,"byteOffset":28064,"target":34963},{"buffer":0,"byteLength":1152,"byteOffset":28328,"target":34962},{"buffer":0,"byteLength":1152,"byteOffset":29480,"target":34962},{"buffer":0,"byteLength":768,"byteOffset":30632,"target":34962},{"buffer":0,"byteLength":1152,"byteOffset":31400,"target":34962},{"buffer":0,"byteLength":1152,"byteOffset":32552,"target":34962},{"buffer":0,"byteLength":768,"byteOffset":33704,"target":34962},{"buffer":0,"byteLength":1152,"byteOffset":34472,"target":34962},{"buffer":0,"byteLength":1152,"byteOffset":35624,"target":34962},{"buffer":0,"byteLength":768,"byteOffset":36776,"target":34962},{"buffer":0,"byteLength":1152,"byteOffset":37544,"target":34962},{"buffer":0,"byteLength":1152,"byteOffset":38696,"target":34962},{"buffer":0,"byteLength":768,"byteOffset":39848,"target":34962},{"buffer":0,"byteLength":264,"byteOffset":40616,"target":34963}],"buffers":[{"byteLength":40880,"uri":"data:application/octet-stream;base64,"}]}
