{"asset":{"generator":"Khronos glTF Blender I/O v4.0.44","version":"2.0"},"extensionsUsed":["KHR_materials_emissive_strength"],"scene":0,"scenes":[{"name":"Scene","nodes":[0,1,2,3,4,5,6]}],"nodes":[{"extras":{"titancraft_visual_only":true,"titancraft_collision":"none"},"mesh":0,"name":"TC_SavePoint_Base"},{"extras":{"titancraft_visual_only":true,"titancraft_collision":"none"},"mesh":1,"name":"TC_SavePoint_Column"},{"extras":{"titancraft_visual_only":true,"titancraft_collision":"none"},"mesh":2,"name":"TC_SavePoint_Ring"},{"extras":{"titancraft_visual_only":true,"titancraft_collision":"none"},"mesh":3,"name":"TC_SavePoint_Strip"},{"extras":{"titancraft_visual_only":true,"titancraft_collision":"none"},"mesh":4,"name":"TC_SavePoint_CapMount"},{"extras":{"titancraft_visual_only":true,"titancraft_collision":"none"},"mesh":5,"name":"TC_SavePoint_Emitter"},{"extras":{"titancraft_visual_only":true,"titancraft_collision":"none"},"mesh":6,"name":"TC_SavePoint_WarnPlate"}],"materials":[{"doubleSided":true,"name":"TC_MVP_DarkMetal","pbrMetallicRoughness":{"baseColorFactor":[0.04500000178813934,0.05000000074505806,0.057999998331069946,1],"metallicFactor":0.6499999761581421,"roughnessFactor":0.47999998927116394}},{"doubleSided":true,"name":"TC_MVP_HullBeige","pbrMetallicRoughness":{"baseColorFactor":[0.4779999852180481,0.4350000023841858,0.35600000619888306,1],"metallicFactor":0.11999999731779099,"roughnessFactor":0.6200000047683716}},{"doubleSided":true,"emissiveFactor":[0.11111111571023506,0.9444444959546326,1],"extensions":{"KHR_materials_emissive_strength":{"emissiveStrength":4.4999998807907104}},"name":"TC_MVP_CyanLED","pbrMetallicRoughness":{"baseColorFactor":[0,0.019999999552965164,0.019999999552965164,1],"metallicFactor":0,"roughnessFactor":0.30000001192092896}},{"doubleSided":true,"name":"TC_MVP_OrangePaint","pbrMetallicRoughness":{"baseColorFactor":[0.7200000286102295,0.23000000417232513,0.03500000014901161,1],"metallicFactor":0,"roughnessFactor":0.41999998688697815}}],"meshes":[{"name":"Cylinder","primitives":[{"attributes":{"POSITION":0,"NORMAL":1,"TEXCOORD_0":2},"indices":3,"material":0}]},{"name":"Cone","primitives":[{"attributes":{"POSITION":4,"NORMAL":5,"TEXCOORD_0":6},"indices":3,"material":1}]},{"name":"Cylinder.001","primitives":[{"attributes":{"POSITION":7,"NORMAL":8,"TEXCOORD_0":9},"indices":10,"material":2}]},{"name":"Cube","primitives":[{"attributes":{"POSITION":11,"NORMAL":12,"TEXCOORD_0":13},"indices":14,"material":2}]},{"name":"Cylinder.002","primitives":[{"attributes":{"POSITION":15,"NORMAL":16,"TEXCOORD_0":17},"indices":3,"material":0}]},{"name":"Cylinder.003","primitives":[{"attributes":{"POSITION":18,"NORMAL":19,"TEXCOORD_0":20},"indices":21,"material":2}]},{"name":"Cube.001","primitives":[{"attributes":{"POSITION":22,"NORMAL":23,"TEXCOORD_0":24},"indices":25,"material":3}]}],"accessors":[{"bufferView":0,"componentType":5126,"count":144,"max":[0.4099999666213989,0.14000000059604645,0.36373063921928406],"min":[-0.4099999666213989,0,-0.36373063921928406],"type":"VEC3"},{"bufferView":1,"componentType":5126,"count":144,"type":"VEC3"},{"bufferView":2,"componentType":5126,"count":144,"type":"VEC2"},{"bufferView":3,"componentType":5123,"count":204,"type":"SCALAR"},{"bufferView":4,"componentType":5126,"count":144,"max":[0.24863293766975403,1.4600000381469727,0.22398769855499268],"min":[-0.24863293766975403,0.13999998569488525,-0.22398769855499268],"type":"VEC3"},{"bufferView":5,"componentType":5126,"count":144,"type":"VEC3"},{"bufferView":6,"componentType":5126,"count":144,"type":"VEC2"},{"bufferView":7,"componentType":5126,"count":36,"max":[0.30000001192092896,0.26499998569488525,0.25980761647224426],"min":[-0.30000001192092896,0.2149999886751175,-0.25980761647224426],"type":"VEC3"},{"bufferView":8,"componentType":5126,"count":36,"type":"VEC3"},{"bufferView":9,"componentType":5126,"count":36,"type":"VEC2"},{"bufferView":10,"componentType":5123,"count":60,"type":"SCALAR"},{"bufferView":11,"componentType":5126,"count":24,"max":[0.27226346731185913,1.310244083404541,0.04500000178813934],"min":[0.207736536860466,0.4097558856010437,-0.04500000178813934],"type":"VEC3"},{"bufferView":12,"componentType":5126,"count":24,"type":"VEC3"},{"bufferView":13,"componentType":5126,"count":24,"type":"VEC2"},{"bufferView":14,"componentType":5123,"count":36,"type":"SCALAR"},{"bufferView":15,"componentType":5126,"count":144,"max":[0.18400000035762787,1.5399999618530273,0.16454482078552246],"min":[-0.18400000035762787,1.4600000381469727,-0.16454482078552246],"type":"VEC3"},{"bufferView":16,"componentType":5126,"count":144,"type":"VEC3"},{"bufferView":17,"componentType":5126,"count":144,"type":"VEC2"},{"bufferView":18,"componentType":5126,"count":60,"max":[0.12363734841346741,1.5799999237060547,0.12999999523162842],"min":[-0.12363734841346741,1.5399999618530273,-0.12999999523162842],"type":"VEC3"},{"bufferView":19,"componentType":5126,"count":60,"type":"VEC3"},{"bufferView":20,"componentType":5126,"count":60,"type":"VEC2"},{"bufferView":21,"componentType":5123,"count":108,"type":"SCALAR"},{"bufferView":22,"componentType":5126,"count":96,"max":[0.12999999523162842,0.10999999940395355,0.41499999165534973],"min":[-0.12999999523162842,0.030000001192092896,0.3850000202655792],"type":"VEC3"},{"bufferView":23,"componentType":5126,"count":96,"type":"VEC3"},{"bufferView":24,"componentType":5126,"count":96,"type":"VEC2"},{"bufferView":25,"componentType":5123,"count":132,"type":"SCALAR"}],"bufferViews":[{"buffer":0,"byteLength":1728,"byteOffset":0,"target":34962},{"buffer":0,"byteLength":1728,"byteOffset":1728,"target":34962},{"buffer":0,"byteLength":1152,"byteOffset":3456,"target":34962},{"buffer":0,"byteLength":408,"byteOffset":4608,"target":34963},{"buffer":0,"byteLength":1728,"byteOffset":5016,"target":34962},{"buffer":0,"byteLength":1728,"byteOffset":6744,"target":34962},{"buffer":0,"byteLength":1152,"byteOffset":8472,"target":34962},{"buffer":0,"byteLength":432,"byteOffset":9624,"target":34962},{"buffer":0,"byteLength":432,"byteOffset":10056,"target":34962},{"buffer":0,"byteLength":288,"byteOffset":10488,"target":34962},{"buffer":0,"byteLength":120,"byteOffset":10776,"target":34963},{"buffer":0,"byteLength":288,"byteOffset":10896,"target":34962},{"buffer":0,"byteLength":288,"byteOffset":11184,"target":34962},{"buffer":0,"byteLength":192,"byteOffset":11472,"target":34962},{"buffer":0,"byteLength":72,"byteOffset":11664,"target":34963},{"buffer":0,"byteLength":1728,"byteOffset":11736,"target":34962},{"buffer":0,"byteLength":1728,"byteOffset":13464,"target":34962},{"buffer":0,"byteLength":1152,"byteOffset":15192,"target":34962},{"buffer":0,"byteLength":720,"byteOffset":16344,"target":34962},{"buffer":0,"byteLength":720,"byteOffset":17064,"target":34962},{"buffer":0,"byteLength":480,"byteOffset":17784,"target":34962},{"buffer":0,"byteLength":216,"byteOffset":18264,"target":34963},{"buffer":0,"byteLength":1152,"byteOffset":18480,"target":34962},{"buffer":0,"byteLength":1152,"byteOffset":19632,"target":34962},{"buffer":0,"byteLength":768,"byteOffset":20784,"target":34962},{"buffer":0,"byteLength":264,"byteOffset":21552,"target":34963}],"buffers":[{"byteLength":21816,"uri":"data:application/octet-stream;base64,"}]}
