{"asset":{"generator":"Khronos glTF Blender I/O v4.0.44","version":"2.0"},"extensionsUsed":["KHR_materials_emissive_strength"],"scene":0,"scenes":[{"name":"Scene","nodes":[0,1,2,3,4,5]}],"nodes":[{"extras":{"titancraft_visual_only":true,"titancraft_collision":"none"},"mesh":0,"name":"TC_Component_Core"},{"extras":{"titancraft_visual_only":true,"titancraft_collision":"none"},"mesh":1,"name":"TC_Component_Shard_0"},{"extras":{"titancraft_visual_only":true,"titancraft_collision":"none"},"mesh":2,"name":"TC_Component_Shard_1"},{"extras":{"titancraft_visual_only":true,"titancraft_collision":"none"},"mesh":3,"name":"TC_Component_Shard_2"},{"extras":{"titancraft_visual_only":true,"titancraft_collision":"none"},"mesh":4,"name":"TC_Component_Shard_3"},{"extras":{"titancraft_visual_only":true,"titancraft_collision":"none"},"mesh":5,"name":"TC_Component_Rock"}],"materials":[{"doubleSided":true,"emissiveFactor":[0.47999998927116394,0.18000000715255737,1],"extensions":{"KHR_materials_emissive_strength":{"emissiveStrength":1.399999976158142}},"name":"TC_MVP_PurpleCrystal","pbrMetallicRoughness":{"baseColorFactor":[0.2199999988079071,0.07999999821186066,0.41999998688697815,1],"metallicFactor":0,"roughnessFactor":0.2199999988079071}},{"doubleSided":true,"name":"TC_MVP_DarkMetal","pbrMetallicRoughness":{"baseColorFactor":[0.04500000178813934,0.05000000074505806,0.057999998331069946,1],"metallicFactor":0.20000000298023224,"roughnessFactor":0.699999988079071}}],"meshes":[{"name":"Icosphere","primitives":[{"attributes":{"POSITION":0,"NORMAL":1,"TEXCOORD_0":2},"indices":3,"material":0}]},{"name":"Icosphere.001","primitives":[{"attributes":{"POSITION":4,"NORMAL":5,"TEXCOORD_0":6},"indices":7,"material":0}]},{"name":"Icosphere.002","primitives":[{"attributes":{"POSITION":8,"NORMAL":9,"TEXCOORD_0":10},"indices":11,"material":0}]},{"name":"Icosphere.003","primitives":[{"attributes":{"POSITION":12,"NORMAL":13,"TEXCOORD_0":14},"indices":15,"material":0}]},{"name":"Icosphere.004","primitives":[{"attributes":{"POSITION":16,"NORMAL":17,"TEXCOORD_0":18},"indices":19,"material":0}]},{"name":"Icosphere.005","primitives":[{"attributes":{"POSITION":20,"NORMAL":21,"TEXCOORD_0":22},"indices":23,"material":1}]}],"accessors":[{"bufferView":0,"componentType":5126,"count":60,"max":[0.05438034236431122,0.5245000123977661,0.05653723329305649],"min":[-0.05438034236431122,-0.004500001668930054,-0.05653723329305649],"type":"VEC3"},{"bufferView":1,"componentType":5126,"count":60,"type":"VEC3"},{"bufferView":2,"componentType":5126,"count":60,"type":"VEC2"},{"bufferView":3,"componentType":5123,"count":60,"type":"SCALAR"},{"bufferView":4,"componentType":5126,"count":60,"max":[0.16402079164981842,0.24407203495502472,0.008844394236803055],"min":[0.07597920298576355,0.035927966237068176,-0.08884438872337341],"type":"VEC3"},{"bufferView":5,"componentType":5126,"count":60,"type":"VEC3"},{"bufferView":6,"componentType":5126,"count":60,"type":"VEC2"},{"bufferView":7,"componentType":5123,"count":60,"type":"SCALAR"},{"bufferView":8,"componentType":5126,"count":60,"max":[-0.06009914353489876,0.21486085653305054,-0.03429915010929108],"min":[-0.15990085899829865,0.06513914465904236,-0.08570084720849991],"type":"VEC3"},{"bufferView":9,"componentType":5126,"count":60,"type":"VEC3"},{"bufferView":10,"componentType":5126,"count":60,"type":"VEC2"},{"bufferView":11,"componentType":5123,"count":60,"type":"SCALAR"},{"bufferView":12,"componentType":5126,"count":60,"max":[0.04634953290224075,0.2131308615207672,0.16147056221961975],"min":[-0.006349531933665276,0.06686914712190628,0.09852942824363708],"type":"VEC3"},{"bufferView":13,"componentType":5126,"count":60,"type":"VEC3"},{"bufferView":14,"componentType":5126,"count":60,"type":"VEC2"},{"bufferView":15,"componentType":5123,"count":60,"type":"SCALAR"},{"bufferView":16,"componentType":5126,"count":60,"max":[-0.01674133539199829,0.19805926084518433,-0.09546268731355667],"min":[-0.06325866281986237,0.08194074034690857,-0.1445372998714447],"type":"VEC3"},{"bufferView":17,"componentType":5126,"count":60,"type":"VEC3"},{"bufferView":18,"componentType":5126,"count":60,"type":"VEC2"},{"bufferView":19,"componentType":5123,"count":60,"type":"SCALAR"},{"bufferView":20,"componentType":5126,"count":60,"max":[0.14033585786819458,0.06818433851003647,0.1411687433719635],"min":[-0.16007401049137115,-0.005914447829127312,-0.12051233649253845],"type":"VEC3"},{"bufferView":21,"componentType":5126,"count":60,"type":"VEC3"},{"bufferView":22,"componentType":5126,"count":60,"type":"VEC2"},{"bufferView":23,"componentType":5123,"count":60,"type":"SCALAR"}],"bufferViews":[{"buffer":0,"byteLength":720,"byteOffset":0,"target":34962},{"buffer":0,"byteLength":720,"byteOffset":720,"target":34962},{"buffer":0,"byteLength":480,"byteOffset":1440,"target":34962},{"buffer":0,"byteLength":120,"byteOffset":1920,"target":34963},{"buffer":0,"byteLength":720,"byteOffset":2040,"target":34962},{"buffer":0,"byteLength":720,"byteOffset":2760,"target":34962},{"buffer":0,"byteLength":480,"byteOffset":3480,"target":34962},{"buffer":0,"byteLength":120,"byteOffset":3960,"target":34963},{"buffer":0,"byteLength":720,"byteOffset":4080,"target":34962},{"buffer":0,"byteLength":720,"byteOffset":4800,"target":34962},{"buffer":0,"byteLength":480,"byteOffset":5520,"target":34962},{"buffer":0,"byteLength":120,"byteOffset":6000,"target":34963},{"buffer":0,"byteLength":720,"byteOffset":6120,"target":34962},{"buffer":0,"byteLength":720,"byteOffset":6840,"target":34962},{"buffer":0,"byteLength":480,"byteOffset":7560,"target":34962},{"buffer":0,"byteLength":120,"byteOffset":8040,"target":34963},{"buffer":0,"byteLength":720,"byteOffset":8160,"target":34962},{"buffer":0,"byteLength":720,"byteOffset":8880,"target":34962},{"buffer":0,"byteLength":480,"byteOffset":9600,"target":34962},{"buffer":0,"byteLength":120,"byteOffset":10080,"target":34963},{"buffer":0,"byteLength":720,"byteOffset":10200,"target":34962},{"buffer":0,"byteLength":720,"byteOffset":10920,"target":34962},{"buffer":0,"byteLength":480,"byteOffset":11640,"target":34962},{"buffer":0,"byteLength":120,"byteOffset":12120,"target":34963}],"buffers":[{"byteLength":12240,"uri":"data:application/octet-stream;base64,"}]}
