{"asset":{"generator":"Khronos glTF Blender I/O v4.0.44","version":"2.0"},"scene":0,"scenes":[{"name":"Scene","nodes":[0,1,2,3,4,5,6,7]}],"nodes":[{"extras":{"titancraft_visual_only":true,"titancraft_collision":"none"},"mesh":0,"name":"TC_ArmUnbuilt_Tray"},{"extras":{"titancraft_visual_only":true,"titancraft_collision":"none"},"mesh":1,"name":"TC_ArmUnbuilt_TrayStripe"},{"extras":{"titancraft_visual_only":true,"titancraft_collision":"none"},"mesh":2,"name":"TC_ArmUnbuilt_Segment_0"},{"extras":{"titancraft_visual_only":true,"titancraft_collision":"none"},"mesh":3,"name":"TC_ArmUnbuilt_Segment_1"},{"extras":{"titancraft_visual_only":true,"titancraft_collision":"none"},"mesh":4,"name":"TC_ArmUnbuilt_Segment_2"},{"extras":{"titancraft_visual_only":true,"titancraft_collision":"none"},"mesh":5,"name":"TC_ArmUnbuilt_Elbow"},{"extras":{"titancraft_visual_only":true,"titancraft_collision":"none"},"mesh":6,"name":"TC_ArmUnbuilt_Wrist"},{"extras":{"titancraft_visual_only":true,"titancraft_collision":"none"},"mesh":7,"name":"TC_ArmUnbuilt_PalmBlank"}],"materials":[{"doubleSided":true,"name":"TC_MVP_SteelScrap","pbrMetallicRoughness":{"baseColorFactor":[0.4000000059604645,0.4099999964237213,0.4300000071525574,1],"metallicFactor":0.8999999761581421,"roughnessFactor":0.41999998688697815}},{"doubleSided":true,"name":"TC_MVP_OrangePaint","pbrMetallicRoughness":{"baseColorFactor":[0.7200000286102295,0.23000000417232513,0.03500000014901161,1],"metallicFactor":0,"roughnessFactor":0.41999998688697815}},{"doubleSided":true,"name":"TC_MVP_HullBeige","pbrMetallicRoughness":{"baseColorFactor":[0.4779999852180481,0.4350000023841858,0.35600000619888306,1],"metallicFactor":0.11999999731779099,"roughnessFactor":0.6200000047683716}},{"doubleSided":true,"name":"TC_MVP_MidMetal","pbrMetallicRoughness":{"baseColorFactor":[0.18000000715255737,0.1899999976158142,0.20499999821186066,1],"metallicFactor":0.75,"roughnessFactor":0.44999998807907104}},{"doubleSided":true,"name":"TC_MVP_DarkMetal","pbrMetallicRoughness":{"baseColorFactor":[0.04500000178813934,0.05000000074505806,0.057999998331069946,1],"metallicFactor":0.6499999761581421,"roughnessFactor":0.47999998927116394}}],"meshes":[{"name":"Cube","primitives":[{"attributes":{"POSITION":0,"NORMAL":1,"TEXCOORD_0":2},"indices":3,"material":0}]},{"name":"Cube.001","primitives":[{"attributes":{"POSITION":4,"NORMAL":5,"TEXCOORD_0":6},"indices":7,"material":1}]},{"name":"Cylinder","primitives":[{"attributes":{"POSITION":8,"NORMAL":9,"TEXCOORD_0":10},"indices":11,"material":2}]},{"name":"Cylinder.001","primitives":[{"attributes":{"POSITION":12,"NORMAL":13,"TEXCOORD_0":14},"indices":15,"material":3}]},{"name":"Cylinder.002","primitives":[{"attributes":{"POSITION":16,"NORMAL":17,"TEXCOORD_0":18},"indices":19,"material":2}]},{"name":"Cylinder.003","primitives":[{"attributes":{"POSITION":20,"NORMAL":21,"TEXCOORD_0":22},"indices":23,"material":4}]},{"name":"Cylinder.004","primitives":[{"attributes":{"POSITION":24,"NORMAL":25,"TEXCOORD_0":26},"indices":27,"material":4}]},{"name":"Cube.002","primitives":[{"attributes":{"POSITION":28,"NORMAL":29,"TEXCOORD_0":30},"indices":31,"material":3}]}],"accessors":[{"bufferView":0,"componentType":5126,"count":96,"max":[0.550000011920929,0.03999999910593033,0.3100000023841858],"min":[-0.550000011920929,0,-0.3100000023841858],"type":"VEC3"},{"bufferView":1,"componentType":5126,"count":96,"type":"VEC3"},{"bufferView":2,"componentType":5126,"count":96,"type":"VEC2"},{"bufferView":3,"componentType":5123,"count":132,"type":"SCALAR"},{"bufferView":4,"componentType":5126,"count":24,"max":[0.5,0.05000000074505806,0.2849999964237213],"min":[-0.5,0.04000000283122063,0.2550000250339508],"type":"VEC3"},{"bufferView":5,"componentType":5126,"count":24,"type":"VEC3"},{"bufferView":6,"componentType":5126,"count":24,"type":"VEC2"},{"bufferView":7,"componentType":5123,"count":36,"type":"SCALAR"},{"bufferView":8,"componentType":5126,"count":140,"max":[-0.17813509702682495,0.3499999940395355,0.025345128029584885],"min":[-0.5018649101257324,0.03999999165534973,-0.22534511983394623],"type":"VEC3"},{"bufferView":9,"componentType":5126,"count":140,"type":"VEC3"},{"bufferView":10,"componentType":5126,"count":140,"type":"VEC2"},{"bufferView":11,"componentType":5123,"count":228,"type":"SCALAR"},{"bufferView":12,"componentType":5126,"count":140,"max":[0.10699909180402756,0.32999998331069946,0.22622893750667572],"min":[-0.18699908256530762,0.040000006556510925,0.0137710552662611],"type":"VEC3"},{"bufferView":13,"componentType":5126,"count":140,"type":"VEC3"},{"bufferView":14,"componentType":5126,"count":140,"type":"VEC2"},{"bufferView":15,"componentType":5123,"count":228,"type":"SCALAR"},{"bufferView":16,"componentType":5126,"count":140,"max":[0.45946070551872253,0.3100000023841858,0.04456103965640068],"min":[0.1805392950773239,0.03999999165534973,-0.16456104815006256],"type":"VEC3"},{"bufferView":17,"componentType":5126,"count":140,"type":"VEC3"},{"bufferView":18,"componentType":5126,"count":140,"type":"VEC2"},{"bufferView":19,"componentType":5123,"count":228,"type":"SCALAR"},{"bufferView":20,"componentType":5126,"count":140,"max":[-0.057291436940431595,0.3700000047683716,-0.11047059297561646],"min":[-0.342708557844162,0.03999999165534973,-0.3695293962955475],"type":"VEC3"},{"bufferView":21,"componentType":5126,"count":140,"type":"VEC3"},{"bufferView":22,"componentType":5126,"count":140,"type":"VEC2"},{"bufferView":23,"componentType":5123,"count":228,"type":"SCALAR"},{"bufferView":24,"componentType":5126,"count":140,"max":[0.25887352228164673,0.24000000953674316,0.29221948981285095],"min":[0.0611264742910862,0.03999999910593033,0.14778049290180206],"type":"VEC3"},{"bufferView":25,"componentType":5126,"count":140,"type":"VEC3"},{"bufferView":26,"componentType":5126,"count":140,"type":"VEC2"},{"bufferView":27,"componentType":5123,"count":228,"type":"SCALAR"},{"bufferView":28,"componentType":5126,"count":96,"max":[0.5321217179298401,0.20000000298023224,0.2779795825481415],"min":[0.3078782558441162,0,0.08202043175697327],"type":"VEC3"},{"bufferView":29,"componentType":5126,"count":96,"type":"VEC3"},{"bufferView":30,"componentType":5126,"count":96,"type":"VEC2"},{"bufferView":31,"componentType":5123,"count":132,"type":"SCALAR"}],"bufferViews":[{"buffer":0,"byteLength":1152,"byteOffset":0,"target":34962},{"buffer":0,"byteLength":1152,"byteOffset":1152,"target":34962},{"buffer":0,"byteLength":768,"byteOffset":2304,"target":34962},{"buffer":0,"byteLength":264,"byteOffset":3072,"target":34963},{"buffer":0,"byteLength":288,"byteOffset":3336,"target":34962},{"buffer":0,"byteLength":288,"byteOffset":3624,"target":34962},{"buffer":0,"byteLength":192,"byteOffset":3912,"target":34962},{"buffer":0,"byteLength":72,"byteOffset":4104,"target":34963},{"buffer":0,"byteLength":1680,"byteOffset":4176,"target":34962},{"buffer":0,"byteLength":1680,"byteOffset":5856,"target":34962},{"buffer":0,"byteLength":1120,"byteOffset":7536,"target":34962},{"buffer":0,"byteLength":456,"byteOffset":8656,"target":34963},{"buffer":0,"byteLength":1680,"byteOffset":9112,"target":34962},{"buffer":0,"byteLength":1680,"byteOffset":10792,"target":34962},{"buffer":0,"byteLength":1120,"byteOffset":12472,"target":34962},{"buffer":0,"byteLength":456,"byteOffset":13592,"target":34963},{"buffer":0,"byteLength":1680,"byteOffset":14048,"target":34962},{"buffer":0,"byteLength":1680,"byteOffset":15728,"target":34962},{"buffer":0,"byteLength":1120,"byteOffset":17408,"target":34962},{"buffer":0,"byteLength":456,"byteOffset":18528,"target":34963},{"buffer":0,"byteLength":1680,"byteOffset":18984,"target":34962},{"buffer":0,"byteLength":1680,"byteOffset":20664,"target":34962},{"buffer":0,"byteLength":1120,"byteOffset":22344,"target":34962},{"buffer":0,"byteLength":456,"byteOffset":23464,"target":34963},{"buffer":0,"byteLength":1680,"byteOffset":23920,"target":34962},{"buffer":0,"byteLength":1680,"byteOffset":25600,"target":34962},{"buffer":0,"byteLength":1120,"byteOffset":27280,"target":34962},{"buffer":0,"byteLength":456,"byteOffset":28400,"target":34963},{"buffer":0,"byteLength":1152,"byteOffset":28856,"target":34962},{"buffer":0,"byteLength":1152,"byteOffset":30008,"target":34962},{"buffer":0,"byteLength":768,"byteOffset":31160,"target":34962},{"buffer":0,"byteLength":264,"byteOffset":31928,"target":34963}],"buffers":[{"byteLength":32192,"uri":"data:application/octet-stream;base64,"}]}
