{"asset":{"generator":"Khronos glTF Blender I/O v4.0.44","version":"2.0"},"extensionsUsed":["KHR_materials_emissive_strength"],"scene":0,"scenes":[{"name":"Scene","nodes":[0,1,2,3,4,5,6,7]}],"nodes":[{"extras":{"titancraft_visual_only":true,"titancraft_collision":"none"},"mesh":0,"name":"TC_Electronics_CrateMain"},{"extras":{"titancraft_visual_only":true,"titancraft_collision":"none"},"mesh":1,"name":"TC_Electronics_LidMain"},{"extras":{"titancraft_visual_only":true,"titancraft_collision":"none"},"mesh":2,"name":"TC_Electronics_ModuleA"},{"extras":{"titancraft_visual_only":true,"titancraft_collision":"none"},"mesh":3,"name":"TC_Electronics_ModuleB"},{"extras":{"titancraft_visual_only":true,"titancraft_collision":"none"},"mesh":4,"name":"TC_Electronics_LidB"},{"extras":{"titancraft_visual_only":true,"titancraft_collision":"none"},"mesh":5,"name":"TC_Electronics_IndicatorA"},{"extras":{"titancraft_visual_only":true,"titancraft_collision":"none"},"mesh":6,"name":"TC_Electronics_IndicatorB"},{"extras":{"titancraft_visual_only":true,"titancraft_collision":"none"},"mesh":7,"name":"TC_Electronics_Antenna"}],"materials":[{"doubleSided":true,"name":"TC_MVP_DarkMetal","pbrMetallicRoughness":{"baseColorFactor":[0.04500000178813934,0.05000000074505806,0.057999998331069946,1],"metallicFactor":0.6499999761581421,"roughnessFactor":0.47999998927116394}},{"doubleSided":true,"name":"TC_MVP_OrangePaint","pbrMetallicRoughness":{"baseColorFactor":[0.7200000286102295,0.23000000417232513,0.03500000014901161,1],"metallicFactor":0,"roughnessFactor":0.41999998688697815}},{"doubleSided":true,"name":"TC_MVP_MidMetal","pbrMetallicRoughness":{"baseColorFactor":[0.18000000715255737,0.1899999976158142,0.20499999821186066,1],"metallicFactor":0.75,"roughnessFactor":0.44999998807907104}},{"doubleSided":true,"emissiveFactor":[0.11111111571023506,0.9444444959546326,1],"extensions":{"KHR_materials_emissive_strength":{"emissiveStrength":3.5999999046325684}},"name":"TC_MVP_CyanLED","pbrMetallicRoughness":{"baseColorFactor":[0,0.019999999552965164,0.019999999552965164,1],"metallicFactor":0,"roughnessFactor":0.30000001192092896}},{"doubleSided":true,"name":"TC_MVP_MidMetal","pbrMetallicRoughness":{"baseColorFactor":[0.18000000715255737,0.1899999976158142,0.20499999821186066,1],"metallicFactor":0.75,"roughnessFactor":0.44999998807907104}}],"meshes":[{"name":"Cube","primitives":[{"attributes":{"POSITION":0,"NORMAL":1,"TEXCOORD_0":2},"indices":3,"material":0}]},{"name":"Cube.001","primitives":[{"attributes":{"POSITION":4,"NORMAL":5,"TEXCOORD_0":6},"indices":3,"material":1}]},{"name":"Cube.002","primitives":[{"attributes":{"POSITION":7,"NORMAL":8,"TEXCOORD_0":9},"indices":10,"material":2}]},{"name":"Cube.003","primitives":[{"attributes":{"POSITION":11,"NORMAL":12,"TEXCOORD_0":13},"indices":14,"material":0}]},{"name":"Cube.004","primitives":[{"attributes":{"POSITION":15,"NORMAL":16,"TEXCOORD_0":17},"indices":14,"material":1}]},{"name":"Cube.005","primitives":[{"attributes":{"POSITION":18,"NORMAL":19,"TEXCOORD_0":20},"indices":21,"material":3}]},{"name":"Cube.006","primitives":[{"attributes":{"POSITION":22,"NORMAL":23,"TEXCOORD_0":24},"indices":25,"material":3}]},{"name":"Cylinder","primitives":[{"attributes":{"POSITION":26,"NORMAL":27,"TEXCOORD_0":28},"indices":29,"material":4}]}],"accessors":[{"bufferView":0,"componentType":5126,"count":96,"max":[0.1599999964237213,0.20000000298023224,0.12999999523162842],"min":[-0.1599999964237213,0,-0.12999999523162842],"type":"VEC3"},{"bufferView":1,"componentType":5126,"count":96,"type":"VEC3"},{"bufferView":2,"componentType":5126,"count":96,"type":"VEC2"},{"bufferView":3,"componentType":5123,"count":132,"type":"SCALAR"},{"bufferView":4,"componentType":5126,"count":96,"max":[0.14000000059604645,0.22499999403953552,0.10999999940395355],"min":[-0.14000000059604645,0.19499999284744263,-0.10999999940395355],"type":"VEC3"},{"bufferView":5,"componentType":5126,"count":96,"type":"VEC3"},{"bufferView":6,"componentType":5126,"count":96,"type":"VEC2"},{"bufferView":7,"componentType":5126,"count":96,"max":[0.3324624001979828,0.11999999731779099,0.18283183872699738],"min":[0.14753757417201996,0,0.01716816984117031],"type":"VEC3"},{"bufferView":8,"componentType":5126,"count":96,"type":"VEC3"},{"bufferView":9,"componentType":5126,"count":96,"type":"VEC2"},{"bufferView":10,"componentType":5123,"count":132,"type":"SCALAR"},{"bufferView":11,"componentType":5126,"count":96,"max":[0.04113173112273216,0.320000022649765,0.06957819312810898],"min":[-0.16113172471523285,0.2200000137090683,-0.10957818478345871],"type":"VEC3"},{"bufferView":12,"componentType":5126,"count":96,"type":"VEC3"},{"bufferView":13,"componentType":5126,"count":96,"type":"VEC2"},{"bufferView":14,"componentType":5123,"count":132,"type":"SCALAR"},{"bufferView":15,"componentType":5126,"count":96,"max":[0.024796219542622566,0.3349999785423279,0.05324267968535423],"min":[-0.1447962075471878,0.3149999976158142,-0.09324268251657486],"type":"VEC3"},{"bufferView":16,"componentType":5126,"count":96,"type":"VEC3"},{"bufferView":17,"componentType":5126,"count":96,"type":"VEC2"},{"bufferView":18,"componentType":5126,"count":24,"max":[0.054999999701976776,0.14749999344348907,0.13500000536441803],"min":[-0.04500000178813934,0.13250000774860382,0.1289999932050705],"type":"VEC3"},{"bufferView":19,"componentType":5126,"count":24,"type":"VEC3"},{"bufferView":20,"componentType":5126,"count":24,"type":"VEC2"},{"bufferView":21,"componentType":5123,"count":36,"type":"SCALAR"},{"bufferView":22,"componentType":5126,"count":24,"max":[0.29470348358154297,0.085999995470047,0.16557860374450684],"min":[0.24529653787612915,0.07400000095367432,0.14442139863967896],"type":"VEC3"},{"bufferView":23,"componentType":5126,"count":24,"type":"VEC3"},{"bufferView":24,"componentType":5126,"count":24,"type":"VEC2"},{"bufferView":25,"componentType":5123,"count":36,"type":"SCALAR"},{"bufferView":26,"componentType":5126,"count":36,"max":[-0.09480384737253189,0.44999998807907104,0.06599999964237213],"min":[-0.10519615560770035,0.3100000023841858,0.053999997675418854],"type":"VEC3"},{"bufferView":27,"componentType":5126,"count":36,"type":"VEC3"},{"bufferView":28,"componentType":5126,"count":36,"type":"VEC2"},{"bufferView":29,"componentType":5123,"count":60,"type":"SCALAR"}],"bufferViews":[{"buffer":0,"byteLength":1152,"byteOffset":0,"target":34962},{"buffer":0,"byteLength":1152,"byteOffset":1152,"target":34962},{"buffer":0,"byteLength":768,"byteOffset":2304,"target":34962},{"buffer":0,"byteLength":264,"byteOffset":3072,"target":34963},{"buffer":0,"byteLength":1152,"byteOffset":3336,"target":34962},{"buffer":0,"byteLength":1152,"byteOffset":4488,"target":34962},{"buffer":0,"byteLength":768,"byteOffset":5640,"target":34962},{"buffer":0,"byteLength":1152,"byteOffset":6408,"target":34962},{"buffer":0,"byteLength":1152,"byteOffset":7560,"target":34962},{"buffer":0,"byteLength":768,"byteOffset":8712,"target":34962},{"buffer":0,"byteLength":264,"byteOffset":9480,"target":34963},{"buffer":0,"byteLength":1152,"byteOffset":9744,"target":34962},{"buffer":0,"byteLength":1152,"byteOffset":10896,"target":34962},{"buffer":0,"byteLength":768,"byteOffset":12048,"target":34962},{"buffer":0,"byteLength":264,"byteOffset":12816,"target":34963},{"buffer":0,"byteLength":1152,"byteOffset":13080,"target":34962},{"buffer":0,"byteLength":1152,"byteOffset":14232,"target":34962},{"buffer":0,"byteLength":768,"byteOffset":15384,"target":34962},{"buffer":0,"byteLength":288,"byteOffset":16152,"target":34962},{"buffer":0,"byteLength":288,"byteOffset":16440,"target":34962},{"buffer":0,"byteLength":192,"byteOffset":16728,"target":34962},{"buffer":0,"byteLength":72,"byteOffset":16920,"target":34963},{"buffer":0,"byteLength":288,"byteOffset":16992,"target":34962},{"buffer":0,"byteLength":288,"byteOffset":17280,"target":34962},{"buffer":0,"byteLength":192,"byteOffset":17568,"target":34962},{"buffer":0,"byteLength":72,"byteOffset":17760,"target":34963},{"buffer":0,"byteLength":432,"byteOffset":17832,"target":34962},{"buffer":0,"byteLength":432,"byteOffset":18264,"target":34962},{"buffer":0,"byteLength":288,"byteOffset":18696,"target":34962},{"buffer":0,"byteLength":120,"byteOffset":18984,"target":34963}],"buffers":[{"byteLength":19104,"uri":"data:application/octet-stream;base64,"}]}
