{"asset":{"generator":"Khronos glTF Blender I/O v4.0.44","version":"2.0"},"scene":0,"scenes":[{"name":"Scene","nodes":[0,1,2,3,4,5,6,7,8,9,10]}],"nodes":[{"extras":{"titancraft_visual_only":true,"titancraft_collision":"none"},"mesh":0,"name":"TC_Biomass_Blob_0"},{"extras":{"titancraft_visual_only":true,"titancraft_collision":"none"},"mesh":1,"name":"TC_Biomass_Blob_1"},{"extras":{"titancraft_visual_only":true,"titancraft_collision":"none"},"mesh":2,"name":"TC_Biomass_Blob_2"},{"extras":{"titancraft_visual_only":true,"titancraft_collision":"none"},"mesh":3,"name":"TC_Biomass_Blob_3"},{"extras":{"titancraft_visual_only":true,"titancraft_collision":"none"},"mesh":4,"name":"TC_Biomass_Blob_4"},{"extras":{"titancraft_visual_only":true,"titancraft_collision":"none"},"mesh":5,"name":"TC_Biomass_Spike_0"},{"extras":{"titancraft_visual_only":true,"titancraft_collision":"none"},"mesh":6,"name":"TC_Biomass_Spike_1"},{"extras":{"titancraft_visual_only":true,"titancraft_collision":"none"},"mesh":7,"name":"TC_Biomass_Spike_2"},{"extras":{"titancraft_visual_only":true,"titancraft_collision":"none"},"mesh":8,"name":"TC_Biomass_Spike_3"},{"extras":{"titancraft_visual_only":true,"titancraft_collision":"none"},"mesh":9,"name":"TC_Biomass_Spike_4"},{"extras":{"titancraft_visual_only":true,"titancraft_collision":"none"},"mesh":10,"name":"TC_Biomass_Substrate"}],"materials":[{"doubleSided":true,"emissiveFactor":[0.17499999701976776,0.004999999888241291,0.009999999776482582],"name":"TC_MVP_BiomassRed","pbrMetallicRoughness":{"baseColorFactor":[0.15000000596046448,0.009999999776482582,0.01600000075995922,1],"metallicFactor":0,"roughnessFactor":0.3199999928474426}},{"doubleSided":true,"name":"TC_MVP_DarkMetal","pbrMetallicRoughness":{"baseColorFactor":[0.04500000178813934,0.05000000074505806,0.057999998331069946,1],"metallicFactor":0.6499999761581421,"roughnessFactor":0.47999998927116394}}],"meshes":[{"name":"Icosphere","primitives":[{"attributes":{"POSITION":0,"NORMAL":1,"TEXCOORD_0":2},"indices":3,"material":0}]},{"name":"Icosphere.001","primitives":[{"attributes":{"POSITION":4,"NORMAL":5,"TEXCOORD_0":6},"indices":7,"material":0}]},{"name":"Icosphere.002","primitives":[{"attributes":{"POSITION":8,"NORMAL":9,"TEXCOORD_0":10},"indices":11,"material":0}]},{"name":"Icosphere.003","primitives":[{"attributes":{"POSITION":12,"NORMAL":13,"TEXCOORD_0":14},"indices":15,"material":0}]},{"name":"Icosphere.004","primitives":[{"attributes":{"POSITION":16,"NORMAL":17,"TEXCOORD_0":18},"indices":19,"material":0}]},{"name":"Cone","primitives":[{"attributes":{"POSITION":20,"NORMAL":21,"TEXCOORD_0":22},"indices":23,"material":0}]},{"name":"Cone.001","primitives":[{"attributes":{"POSITION":24,"NORMAL":25,"TEXCOORD_0":26},"indices":27,"material":0}]},{"name":"Cone.002","primitives":[{"attributes":{"POSITION":28,"NORMAL":29,"TEXCOORD_0":30},"indices":31,"material":0}]},{"name":"Cone.003","primitives":[{"attributes":{"POSITION":32,"NORMAL":33,"TEXCOORD_0":34},"indices":35,"material":0}]},{"name":"Cone.004","primitives":[{"attributes":{"POSITION":36,"NORMAL":37,"TEXCOORD_0":38},"indices":39,"material":0}]},{"name":"Icosphere.005","primitives":[{"attributes":{"POSITION":40,"NORMAL":41,"TEXCOORD_0":42},"indices":43,"material":1}]}],"accessors":[{"bufferView":0,"componentType":5126,"count":60,"max":[0.1247982606291771,0.3164658546447754,0.1675969958305359],"min":[-0.13081513345241547,-0.00577150285243988,-0.14986780285835266],"type":"VEC3"},{"bufferView":1,"componentType":5126,"count":60,"type":"VEC3"},{"bufferView":2,"componentType":5126,"count":60,"type":"VEC2"},{"bufferView":3,"componentType":5123,"count":60,"type":"SCALAR"},{"bufferView":4,"componentType":5126,"count":60,"max":[0.24945977330207825,0.21726927161216736,0.04790882393717766],"min":[0.04932522028684616,0.0027794092893600464,-0.14409448206424713],"type":"VEC3"},{"bufferView":5,"componentType":5126,"count":60,"type":"VEC3"},{"bufferView":6,"componentType":5126,"count":60,"type":"VEC2"},{"bufferView":7,"componentType":5123,"count":60,"type":"SCALAR"},{"bufferView":8,"componentType":5126,"count":60,"max":[-0.03191983699798584,0.19605013728141785,0.0490240715444088],"min":[-0.2184654176235199,0.0001963973045349121,-0.13452672958374023],"type":"VEC3"},{"bufferView":9,"componentType":5126,"count":60,"type":"VEC3"},{"bufferView":10,"componentType":5126,"count":60,"type":"VEC2"},{"bufferView":11,"componentType":5123,"count":60,"type":"SCALAR"},{"bufferView":12,"componentType":5126,"count":60,"max":[0.09427226334810257,0.148973748087883,0.2257700264453888],"min":[-0.041348814964294434,0.009780026972293854,0.06461115181446075],"type":"VEC3"},{"bufferView":13,"componentType":5126,"count":60,"type":"VEC3"},{"bufferView":14,"componentType":5126,"count":60,"type":"VEC2"},{"bufferView":15,"componentType":5123,"count":60,"type":"SCALAR"},{"bufferView":16,"componentType":5126,"count":60,"max":[0.0313011072576046,0.14698007702827454,-0.06556375324726105],"min":[-0.12373611330986023,-0.0026926621794700623,-0.2112458348274231],"type":"VEC3"},{"bufferView":17,"componentType":5126,"count":60,"type":"VEC3"},{"bufferView":18,"componentType":5126,"count":60,"type":"VEC2"},{"bufferView":19,"componentType":5123,"count":60,"type":"SCALAR"},{"bufferView":20,"componentType":5126,"count":30,"max":[0.17232801020145416,0.27150219678878784,-0.008450418710708618],"min":[0.12557461857795715,0.11828632652759552,-0.1064305454492569],"type":"VEC3"},{"bufferView":21,"componentType":5126,"count":30,"type":"VEC3"},{"bufferView":22,"componentType":5126,"count":30,"type":"VEC2"},{"bufferView":23,"componentType":5123,"count":48,"type":"SCALAR"},{"bufferView":24,"componentType":5126,"count":30,"max":[0.02611376903951168,0.2764011323451996,-0.12750333547592163],"min":[-0.04614564776420593,0.11685975641012192,-0.17432162165641785],"type":"VEC3"},{"bufferView":25,"componentType":5126,"count":30,"type":"VEC3"},{"bufferView":26,"componentType":5126,"count":30,"type":"VEC2"},{"bufferView":27,"componentType":5123,"count":48,"type":"SCALAR"},{"bufferView":28,"componentType":5126,"count":30,"max":[-0.11687570810317993,0.2688620686531067,0.009625118225812912],"min":[-0.1767517626285553,0.11942190676927567,-0.08906608819961548],"type":"VEC3"},{"bufferView":29,"componentType":5126,"count":30,"type":"VEC3"},{"bufferView":30,"componentType":5126,"count":30,"type":"VEC2"},{"bufferView":31,"componentType":5123,"count":48,"type":"SCALAR"},{"bufferView":32,"componentType":5126,"count":30,"max":[-0.046779438853263855,0.27151674032211304,0.16537156701087952],"min":[-0.12996262311935425,0.11783574521541595,0.09565001726150513],"type":"VEC3"},{"bufferView":33,"componentType":5126,"count":30,"type":"VEC3"},{"bufferView":34,"componentType":5126,"count":30,"type":"VEC2"},{"bufferView":35,"componentType":5123,"count":48,"type":"SCALAR"},{"bufferView":36,"componentType":5126,"count":30,"max":[0.1510086953639984,0.26741427183151245,0.16018539667129517],"min":[0.047949351370334625,0.12057836353778839,0.09583119302988052],"type":"VEC3"},{"bufferView":37,"componentType":5126,"count":30,"type":"VEC3"},{"bufferView":38,"componentType":5126,"count":30,"type":"VEC2"},{"bufferView":39,"componentType":5123,"count":48,"type":"SCALAR"},{"bufferView":40,"componentType":5126,"count":60,"max":[0.16701295971870422,0.057324230670928955,0.14877262711524963],"min":[-0.18308031558990479,-0.016745202243328094,-0.15560773015022278],"type":"VEC3"},{"bufferView":41,"componentType":5126,"count":60,"type":"VEC3"},{"bufferView":42,"componentType":5126,"count":60,"type":"VEC2"},{"bufferView":43,"componentType":5123,"count":60,"type":"SCALAR"}],"bufferViews":[{"buffer":0,"byteLength":720,"byteOffset":0,"target":34962},{"buffer":0,"byteLength":720,"byteOffset":720,"target":34962},{"buffer":0,"byteLength":480,"byteOffset":1440,"target":34962},{"buffer":0,"byteLength":120,"byteOffset":1920,"target":34963},{"buffer":0,"byteLength":720,"byteOffset":2040,"target":34962},{"buffer":0,"byteLength":720,"byteOffset":2760,"target":34962},{"buffer":0,"byteLength":480,"byteOffset":3480,"target":34962},{"buffer":0,"byteLength":120,"byteOffset":3960,"target":34963},{"buffer":0,"byteLength":720,"byteOffset":4080,"target":34962},{"buffer":0,"byteLength":720,"byteOffset":4800,"target":34962},{"buffer":0,"byteLength":480,"byteOffset":5520,"target":34962},{"buffer":0,"byteLength":120,"byteOffset":6000,"target":34963},{"buffer":0,"byteLength":720,"byteOffset":6120,"target":34962},{"buffer":0,"byteLength":720,"byteOffset":6840,"target":34962},{"buffer":0,"byteLength":480,"byteOffset":7560,"target":34962},{"buffer":0,"byteLength":120,"byteOffset":8040,"target":34963},{"buffer":0,"byteLength":720,"byteOffset":8160,"target":34962},{"buffer":0,"byteLength":720,"byteOffset":8880,"target":34962},{"buffer":0,"byteLength":480,"byteOffset":9600,"target":34962},{"buffer":0,"byteLength":120,"byteOffset":10080,"target":34963},{"buffer":0,"byteLength":360,"byteOffset":10200,"target":34962},{"buffer":0,"byteLength":360,"byteOffset":10560,"target":34962},{"buffer":0,"byteLength":240,"byteOffset":10920,"target":34962},{"buffer":0,"byteLength":96,"byteOffset":11160,"target":34963},{"buffer":0,"byteLength":360,"byteOffset":11256,"target":34962},{"buffer":0,"byteLength":360,"byteOffset":11616,"target":34962},{"buffer":0,"byteLength":240,"byteOffset":11976,"target":34962},{"buffer":0,"byteLength":96,"byteOffset":12216,"target":34963},{"buffer":0,"byteLength":360,"byteOffset":12312,"target":34962},{"buffer":0,"byteLength":360,"byteOffset":12672,"target":34962},{"buffer":0,"byteLength":240,"byteOffset":13032,"target":34962},{"buffer":0,"byteLength":96,"byteOffset":13272,"target":34963},{"buffer":0,"byteLength":360,"byteOffset":13368,"target":34962},{"buffer":0,"byteLength":360,"byteOffset":13728,"target":34962},{"buffer":0,"byteLength":240,"byteOffset":14088,"target":34962},{"buffer":0,"byteLength":96,"byteOffset":14328,"target":34963},{"buffer":0,"byteLength":360,"byteOffset":14424,"target":34962},{"buffer":0,"byteLength":360,"byteOffset":14784,"target":34962},{"buffer":0,"byteLength":240,"byteOffset":15144,"target":34962},{"buffer":0,"byteLength":96,"byteOffset":15384,"target":34963},{"buffer":0,"byteLength":720,"byteOffset":15480,"target":34962},{"buffer":0,"byteLength":720,"byteOffset":16200,"target":34962},{"buffer":0,"byteLength":480,"byteOffset":16920,"target":34962},{"buffer":0,"byteLength":120,"byteOffset":17400,"target":34963}],"buffers":[{"byteLength":17520,"uri":"data:application/octet-stream;base64,"}]}
